<svg xmlns="http://www.w3.org/2000/svg" width="250" height="250" stroke="null" xmlns:v="https://vecta.io/nano"><path stroke="#0089e2" stroke-width="6.27" stroke-miterlimit="10" fill="none" d="M94.97 220.074V73.933h70.432"/><path fill="#0089e2" d="M111.44 91.045v147.51l54.582-17.982V73.062L111.44 91.045zm5.282 71.806c-.972 0-1.762-1.18-1.762-2.64s.787-2.64 1.762-2.64 1.76 1.18 1.76 2.64-.787 2.64-1.76 2.64zm15.79-112.988a5.434 5.434 0 1 0 5.434 5.434 5.44 5.44 0 0 0-5.434-5.434zm0-12.062a17.468 17.468 0 0 0-12.531 5.294 1.604 1.604 0 0 0 0 2.248l3.653 3.653a1.596 1.596 0 0 0 2.222.034c1.22-1.16 3.484-2.776 6.648-2.776 3.12 0 5.412 1.635 6.645 2.8a1.593 1.593 0 0 0 2.214-.042l3.653-3.653a1.604 1.604 0 0 0 0-2.248 17.46 17.46 0 0 0-12.503-5.319zm0-24.164c-16.223 0-26.5 9.12-29.665 12.38a1.559 1.559 0 0 0 .017 2.192l3.793 3.8a1.559 1.559 0 0 0 2.211 0 33.155 33.155 0 0 1 47.282 0 1.559 1.559 0 0 0 2.211 0l3.793-3.8a1.559 1.559 0 0 0 .017-2.192c-3.175-3.26-13.45-12.38-29.66-12.38zm0 12.082a29.485 29.485 0 0 0-21.051 8.814 1.613 1.613 0 0 0 0 2.273l3.703 3.7a1.607 1.607 0 0 0 2.279 0 21.093 21.093 0 0 1 30.143 0 1.607 1.607 0 0 0 2.279 0l3.7-3.7a1.616 1.616 0 0 0 0-2.273 29.502 29.502 0 0 0-21.053-8.814z"/></svg>