<svg width="196" height="182" viewBox="0 0 196 182" fill="none" xmlns="http://www.w3.org/2000/svg">
<path d="M182.097 0H13.9033C6.23713 0 0 6.23713 0 13.9033V127.979C0 135.645 6.23713 141.882 13.9033 141.882H77.312V150.219C77.312 153.717 75.6288 157.012 72.9181 158.82L65.7423 163.607H60.0373C56.3435 163.607 53.3385 166.612 53.3385 170.306V174.592C53.3385 178.286 56.3435 181.291 60.0373 181.291H135.963C139.656 181.291 142.662 178.286 142.662 174.592V170.306C142.662 166.612 139.656 163.607 135.963 163.607H130.258L123.082 158.82C120.372 157.012 118.688 153.717 118.688 150.219V141.882H182.096C189.763 141.882 196 135.645 196 127.979V13.9033C196 6.23713 189.763 0 182.097 0V0ZM135.963 169.35C136.49 169.35 136.919 169.779 136.919 170.306V174.592C136.919 175.12 136.49 175.549 135.963 175.549H60.0377C59.5102 175.549 59.081 175.12 59.081 174.592V170.306C59.081 169.779 59.5102 169.35 60.0377 169.35H135.963ZM119.895 163.597L119.91 163.607H76.0904L76.105 163.597C80.4564 160.695 83.0541 155.694 83.0541 150.219V141.883H112.946V150.219C112.946 155.694 115.544 160.695 119.895 163.597ZM190.258 127.979C190.258 132.479 186.597 136.14 182.097 136.14C177.538 136.14 18.2865 136.14 13.9037 136.14C9.40335 136.14 5.74254 132.479 5.74254 127.979V13.9033C5.74254 9.40297 9.40335 5.74215 13.9037 5.74215H182.097C186.597 5.74215 190.258 9.40297 190.258 13.9033V127.979Z" fill="#4A4A4A" fill-opacity="0.8"/>
<path d="M179.599 11.9417C172.848 11.9417 23.1671 11.9417 16.4006 11.9417C13.9422 11.9417 11.9424 13.9419 11.9424 16.3999V125.481C11.9424 127.94 13.9426 129.94 16.4006 129.94H179.599C182.058 129.94 184.058 127.939 184.058 125.481V77.64C184.058 76.054 182.773 74.7689 181.187 74.7689C179.601 74.7689 178.316 76.054 178.316 77.64V124.198H17.6842V31.8819H178.316V64.2416C178.316 65.8276 179.601 67.1127 181.187 67.1127C182.773 67.1127 184.058 65.8276 184.058 64.2416C184.058 62.1698 184.058 18.7167 184.058 16.3999C184.058 13.9419 182.058 11.9417 179.599 11.9417V11.9417ZM29.1815 26.1397H17.6842V17.6838H29.1815V26.1397ZM178.316 26.1397H34.9236V17.6838H178.316V26.1397H178.316Z" fill="#4A4A4A" fill-opacity="0.8"/>
<path d="M60.6613 38.9477C57.4341 35.7206 52.2114 35.7199 48.9839 38.9474L46.0129 41.9184L45.9934 41.8988C42.7659 38.6713 37.5432 38.671 34.3157 41.8985C31.0966 45.1175 31.0966 50.3563 34.3157 53.5762L40.1739 59.434C43.4002 62.6611 48.6245 62.6619 51.8512 59.4344L60.6613 50.6247C63.8803 47.4052 63.8803 42.1664 60.6613 38.9477V38.9477ZM56.6011 46.5646L47.7911 55.3743C46.808 56.3573 45.217 56.3566 44.2347 55.3743C44.2347 55.3743 44.2347 55.3743 44.2347 55.3739L38.3766 49.5161C37.3958 48.5353 37.3958 46.9397 38.3766 45.9593C39.3581 44.9767 40.9502 44.9751 41.9333 45.9593L43.9829 48.0089C45.1045 49.1298 46.9221 49.1298 48.0426 48.0089L53.0437 43.0082C54.0263 42.0256 55.6177 42.0252 56.6 43.0086C57.5811 43.9882 57.5811 45.5838 56.6011 46.5646V46.5646Z" fill="#4A4A4A" fill-opacity="0.8"/>
<path d="M60.6613 67.2839C57.4341 64.0568 52.2114 64.056 48.9839 67.2835L46.0129 70.2545L45.9934 70.235C42.7659 67.0075 37.5432 67.0071 34.3157 70.2346C31.0966 73.4537 31.0966 78.6925 34.3157 81.9123L40.1739 87.7701C43.4002 90.9973 48.6245 90.998 51.8512 87.7705L60.6613 78.9608C63.8803 75.741 63.8803 70.5026 60.6613 67.2839V67.2839ZM56.6011 74.9003L47.7911 83.71C46.808 84.6931 45.217 84.6923 44.2347 83.71C44.2347 83.71 44.2347 83.71 44.2347 83.7096L38.3766 77.8518C37.3958 76.8711 37.3958 75.2755 38.3766 74.2951C39.3581 73.3124 40.9502 73.3109 41.9333 74.2951L43.9829 76.3447C45.1045 77.4656 46.9221 77.4656 48.0426 76.3447L53.0437 71.344C54.0263 70.3613 55.6177 70.3609 56.6 71.3444C57.5811 72.3244 57.5811 73.92 56.6011 74.9003V74.9003Z" fill="#4A4A4A" fill-opacity="0.8"/>
<path d="M48.9839 95.6193L46.0129 98.5904L45.9934 98.5708C42.7659 95.3433 37.5432 95.343 34.3157 98.5705C31.0966 101.79 31.0966 107.028 34.3157 110.248L40.1739 116.106C43.4006 119.333 48.6245 119.333 51.8516 116.106L60.6613 107.297C63.8803 104.077 63.8803 98.8388 60.6613 95.6197C57.4338 92.3926 52.2114 92.3918 48.9839 95.6193V95.6193ZM56.6008 103.236L47.7911 112.046C46.808 113.029 45.217 113.029 44.2347 112.046C44.2347 112.046 44.2347 112.046 44.2347 112.046L38.3766 106.188C37.3958 105.207 37.3958 103.612 38.3766 102.631C39.3581 101.649 40.9502 101.647 41.9333 102.631L43.9829 104.681C45.1045 105.802 46.9221 105.802 48.0426 104.681L53.0437 99.6802C54.0263 98.6975 55.6177 98.6972 56.6 99.6806C57.5838 100.663 57.5838 102.253 56.6008 103.236Z" fill="#4A4A4A" fill-opacity="0.8"/>
<path d="M163.032 75.4386C163.032 71.8827 160.138 68.9894 156.582 68.9894H77.376C73.82 68.9894 70.9268 71.8827 70.9268 75.4386V79.6136C70.9268 83.1695 73.82 86.0628 77.376 86.0628H156.582C160.138 86.0628 163.032 83.1695 163.032 79.6136V75.4386ZM157.29 79.614C157.29 80.004 156.973 80.321 156.582 80.321H77.376C76.9859 80.321 76.6689 80.004 76.6689 79.614V75.439C76.6689 75.0489 76.9859 74.732 77.376 74.732H156.582C156.973 74.732 157.29 75.0489 157.29 75.439V79.614Z" fill="#4A4A4A" fill-opacity="0.8"/>
<path d="M156.582 97.326H77.376C73.82 97.326 70.9268 100.219 70.9268 103.775V107.95C70.9268 111.506 73.82 114.399 77.376 114.399H156.582C160.138 114.399 163.032 111.506 163.032 107.95V103.775C163.032 100.219 160.138 97.326 156.582 97.326ZM157.29 107.95C157.29 108.34 156.973 108.657 156.582 108.657H77.376C76.9859 108.657 76.6689 108.34 76.6689 107.95V103.775C76.6689 103.385 76.9859 103.068 77.376 103.068H156.582C156.973 103.068 157.29 103.385 157.29 103.775V107.95Z" fill="#4A4A4A" fill-opacity="0.8"/>
<path d="M163.032 47.1026C163.032 43.5467 160.138 40.6534 156.582 40.6534H123.678C122.092 40.6534 120.807 41.9385 120.807 43.5245C120.807 45.1105 122.092 46.3956 123.678 46.3956H156.582C156.973 46.3956 157.29 46.7126 157.29 47.1026V51.278C157.29 51.6677 156.973 51.9846 156.582 51.9846H77.376C76.9859 51.9846 76.6689 51.6677 76.6689 51.278V47.1026C76.6689 46.7126 76.9859 46.3956 77.376 46.3956H110.28C111.866 46.3956 113.151 45.1105 113.151 43.5245C113.151 41.9385 111.866 40.6534 110.28 40.6534H77.376C73.82 40.6534 70.9268 43.5467 70.9268 47.1026V51.278C70.9268 54.8339 73.82 57.7268 77.376 57.7268H156.582C160.138 57.7268 163.032 54.8339 163.032 51.278V47.1026Z" fill="#4A4A4A" fill-opacity="0.8"/>
</svg>
