<svg width="1710" height="1869" viewBox="0 0 1710 1869" fill="none" xmlns="http://www.w3.org/2000/svg">
<g opacity="0.4">
<path d="M1708.58 1461.06C1697.23 1466.73 1686.59 1473.11 1675.95 1479.5C1681.62 1483.75 1688.01 1487.3 1694.39 1490.85L1708.58 1499.36L1708.58 1502.9L1692.26 1494.39C1685.17 1490.14 1677.37 1486.59 1670.28 1481.63L1668.15 1480.21L1670.28 1478.79C1677.37 1474.53 1683.75 1470.28 1690.84 1466.02L1707.87 1456.09L1707.87 1461.06L1708.58 1461.06Z" fill="#4A4A4A"/>
<path d="M1495.8 1175.94L1663.89 1079.48L1665.31 1078.77L1665.31 1077.35C1666.02 1044.73 1666.02 1012.81 1666.73 980.186L1668.15 883.019L1668.15 875.927L1662.47 879.473C1634.1 895.786 1607.15 912.098 1579.49 929.12L1537.65 953.944L1517.08 966.001L1506.44 972.384C1502.89 974.512 1498.64 977.349 1496.51 981.605C1493.67 985.86 1493.67 990.825 1493.67 995.08L1493.67 1007.14L1493.67 1031.25L1493.67 1079.48L1494.38 1127.71C1494.38 1144.02 1494.38 1160.34 1495.8 1175.94ZM1495.8 1175.94C1495.8 1144.02 1497.22 1111.4 1497.93 1079.48L1498.64 1031.25L1499.35 1007.14L1499.35 995.08C1499.35 990.825 1500.06 987.988 1501.48 985.151C1502.89 982.314 1505.73 980.186 1509.28 978.768L1519.92 972.384L1540.48 960.327L1582.33 936.213C1609.99 919.9 1637.65 903.587 1666.02 887.275L1660.35 883.728L1659.64 980.895C1659.64 1013.52 1658.93 1045.44 1659.64 1078.06L1661.06 1075.23L1495.8 1175.94Z" fill="#4A4A4A"/>
<path d="M1495.1 1194.38L1495.81 1288L1495.81 1334.81L1495.81 1358.22C1495.81 1362.47 1495.81 1366.02 1495.81 1370.27C1495.81 1374.53 1497.93 1379.49 1501.48 1381.62L1581.62 1430.56L1622.05 1454.67L1641.91 1466.73L1651.84 1472.41L1656.8 1475.24C1658.93 1475.95 1660.35 1477.37 1662.48 1478.08L1666.73 1480.21L1667.44 1475.24C1667.44 1473.82 1668.15 1471.7 1668.86 1468.86C1668.86 1468.15 1668.86 1467.44 1668.86 1466.73L1668.86 1465.31L1668.86 1462.48L1668.86 1450.42L1668.15 1426.3L1667.44 1378.08L1666.73 1329.85L1666.03 1305.73L1666.03 1293.67L1666.03 1287.29C1666.03 1285.16 1665.32 1282.33 1663.9 1280.91C1661.06 1276.65 1656.8 1275.23 1653.26 1273.11L1642.62 1267.43L1621.34 1255.38L1579.5 1231.26L1537.65 1207.15L1517.08 1195.09C1509.99 1191.54 1503.61 1186.58 1495.81 1183.74L1495.1 1194.38ZM1495.1 1194.38L1495.81 1183.74C1503.61 1186.58 1509.99 1191.54 1517.08 1195.09L1537.65 1207.15L1578.79 1231.97L1619.92 1256.79L1640.49 1269.56L1651.13 1275.94C1654.68 1278.07 1658.22 1279.49 1659.64 1282.33C1661.06 1285.16 1661.06 1288.71 1661.06 1292.97L1661.06 1305.02L1661.06 1329.14L1661.06 1377.37L1661.06 1425.6L1661.06 1449.71L1661.06 1461.77L1661.06 1464.6L1661.06 1466.02C1661.06 1466.73 1661.06 1466.73 1661.06 1466.73C1661.06 1468.15 1660.35 1470.28 1659.64 1472.41L1665.32 1469.57C1663.9 1468.86 1661.77 1468.15 1660.35 1467.44L1655.39 1464.6L1645.46 1458.93L1624.89 1446.87L1584.46 1423.47L1503.61 1378.78C1497.22 1375.24 1499.35 1366.02 1498.64 1358.22L1497.93 1334.81L1496.51 1288L1495.1 1194.38Z" fill="#4A4A4A"/>
<path d="M1538.36 1156.79L1518.5 1168.14L1508.57 1173.81L1501.48 1178.78C1504.31 1180.19 1506.44 1182.32 1509.28 1183.74L1519.92 1189.42L1541.19 1200.76L1583.75 1224.17L1626.3 1247.57L1647.58 1259.63L1658.22 1265.3C1661.77 1267.43 1664.6 1268.85 1667.44 1268.85C1668.86 1268.85 1670.28 1268.14 1671.7 1267.43L1676.66 1264.6L1687.3 1258.92L1708.58 1246.86L1709.29 1246.86L1709.29 1256.08L1691.55 1266.01L1680.92 1271.69C1678.79 1272.4 1677.37 1273.82 1675.24 1274.52C1673.11 1275.23 1670.28 1276.65 1667.44 1276.65C1661.77 1276.65 1657.51 1273.82 1654.67 1271.69L1644.03 1266.01L1622.76 1253.96L1580.91 1229.84L1539.07 1205.73L1518.5 1193.67L1507.86 1187.29C1504.31 1185.16 1500.77 1182.32 1497.93 1180.19L1495.8 1178.78L1497.93 1177.36L1507.86 1171.68L1517.79 1166.01L1537.65 1155.37L1578.07 1133.38L1658.22 1088.7L1578.78 1134.09L1538.36 1156.79Z" fill="#4A4A4A"/>
<path d="M1708.58 1107.14L1702.9 1104.3L1680.92 1091.54C1677.37 1089.41 1673.83 1087.28 1669.57 1085.86C1665.31 1084.45 1661.06 1085.86 1657.51 1087.99C1661.06 1085.86 1665.31 1084.45 1669.57 1085.15C1673.83 1085.86 1677.37 1088.7 1680.92 1090.83L1702.9 1102.89L1707.87 1105.72L1707.87 1107.14L1708.58 1107.14Z" fill="#4A4A4A"/>
<path d="M1684.46 1086.57L1706.45 1099.34L1708.58 1100.76L1708.58 1101.47L1706.45 1100.05L1684.46 1086.57C1680.92 1084.45 1676.66 1083.03 1673.83 1080.19C1670.99 1077.35 1669.57 1073.1 1669.57 1068.84C1669.57 1073.1 1670.99 1077.35 1673.83 1080.19C1676.66 1083.03 1680.92 1084.45 1684.46 1086.57Z" fill="#4A4A4A"/>
<path d="M1708.58 909.262L1688.72 897.205C1682.34 893.659 1676.66 889.403 1670.28 886.566C1670.28 889.403 1669.57 892.24 1669.57 895.077L1669.57 906.425L1669.57 929.83L1669.57 975.931L1670.28 1068.13L1668.86 975.931L1666.73 929.83L1666.02 906.425L1666.02 895.077C1666.02 891.531 1666.73 887.275 1666.73 883.729L1666.73 880.892L1669.57 882.311C1677.37 885.857 1683.75 890.112 1690.85 893.659L1708.58 903.588L1708.58 909.262Z" fill="#4A4A4A"/>
<path d="M1708.58 1261.76L1693.68 1270.98L1683.05 1277.36C1679.5 1279.49 1676.66 1281.62 1675.24 1284.45C1673.83 1287.29 1673.12 1290.84 1673.83 1294.38L1673.83 1306.44L1673.83 1330.56L1673.83 1378.78L1673.83 1427.01L1673.83 1451.13L1673.83 1463.19L1673.83 1468.86C1675.24 1468.15 1677.37 1467.44 1678.79 1466.02L1689.43 1459.64L1709.29 1448.29L1709.29 1456.8L1693.68 1466.02C1686.59 1470.28 1680.21 1474.53 1672.41 1478.08L1666.73 1480.21L1666.73 1474.53L1666.02 1462.48L1666.02 1450.42L1666.02 1426.3L1667.44 1329.85L1667.44 1305.73L1667.44 1293.67C1667.44 1289.42 1667.44 1284.45 1670.28 1280.2C1673.12 1275.94 1677.37 1273.11 1680.21 1271.69L1690.85 1266.01L1708.58 1255.38L1708.58 1261.76V1261.76Z" fill="#4A4A4A"/>
<path d="M1671.69 1634.11L1672.4 1657.52C1673.11 1665.32 1671.69 1673.83 1677.37 1678.09C1687.3 1683.76 1697.94 1690.14 1707.87 1695.82L1707.87 1701.49C1696.52 1695.11 1685.88 1688.02 1674.53 1680.92C1670.98 1678.09 1668.86 1673.83 1668.86 1669.58C1668.86 1665.32 1668.86 1661.77 1668.86 1657.52L1668.86 1634.11L1668.86 1587.3L1668.15 1493.68L1669.57 1587.3L1671.69 1634.11Z" fill="#4A4A4A"/>
<path d="M1708.58 1504.32L1690.85 1493.68C1683.76 1489.43 1677.38 1485.17 1669.57 1481.63L1668.86 1492.97L1669.57 1481.63C1677.38 1484.46 1683.76 1489.43 1690.85 1492.97L1707.87 1502.9L1707.87 1504.32L1708.58 1504.32Z" fill="#4A4A4A"/>
<path d="M1708.58 1851.85L1683.05 1866.04L1708.58 1851.14L1708.58 1851.85Z" fill="#4A4A4A"/>
<path d="M1708.58 1709.29L1688.01 1697.95L1677.37 1692.27C1673.82 1690.14 1670.99 1688.73 1668.15 1688.73C1665.31 1688.73 1662.48 1690.14 1658.93 1691.56L1648.29 1697.24L1627.01 1709.29L1585.17 1732.7C1558.22 1748.3 1530.56 1762.49 1503.6 1778.09L1505.73 1780.22C1507.15 1781.64 1509.28 1782.35 1510.7 1783.06L1521.34 1789.44L1543.32 1802.21L1587.3 1827.74L1631.27 1852.56L1652.55 1866.04L1651.84 1866.04L1630.56 1853.98L1586.59 1829.16L1541.9 1805.04L1519.92 1792.99L1508.57 1786.6C1506.44 1785.18 1505.02 1784.47 1502.9 1783.06L1497.93 1778.8L1495.8 1776.67L1497.93 1775.25C1511.41 1766.74 1525.59 1758.94 1539.07 1750.43L1580.91 1726.32L1622.76 1702.2L1643.33 1690.14L1653.97 1684.47C1657.51 1682.34 1662.48 1680.22 1667.44 1680.22C1672.41 1680.22 1676.66 1682.34 1680.21 1684.47L1690.85 1690.14L1707.87 1699.36L1707.87 1709.29L1708.58 1709.29Z" fill="#4A4A4A"/>
<path d="M1640.49 1866.04L1627.72 1858.24L1584.45 1832.7L1540.48 1807.88L1518.49 1795.11L1507.86 1788.73C1505.02 1787.31 1502.18 1785.18 1499.35 1784.47C1499.35 1791.57 1499.35 1798.66 1499.35 1805.75L1500.05 1829.87L1500.76 1865.33L1494.38 1865.33L1494.38 1829.87L1494.38 1805.75C1494.38 1797.95 1494.38 1789.44 1495.09 1781.64L1495.09 1778.8L1497.93 1779.51C1502.18 1780.93 1505.73 1783.06 1509.27 1785.18L1519.91 1791.57L1541.19 1804.33L1584.45 1830.58L1627.72 1856.11L1641.19 1863.91L1640.49 1863.91L1640.49 1866.04Z" fill="#4A4A4A"/>
<path d="M1497.22 1775.25L1580.91 1727.73L1666.02 1678.8L1667.44 1678.09L1667.44 1676.67C1668.15 1644.75 1668.15 1612.13 1668.86 1580.21L1670.28 1483.75L1670.28 1478.08L1665.31 1480.21C1663.9 1480.92 1661.77 1481.63 1659.64 1482.33C1656.8 1483.75 1655.39 1484.46 1653.97 1485.88L1643.33 1492.26L1622.76 1505.03L1580.91 1529.85L1539.07 1554.68L1518.5 1567.44L1507.86 1573.83L1502.9 1577.37C1500.77 1578.79 1498.64 1580.21 1497.93 1582.34C1496.51 1584.47 1496.51 1587.3 1496.51 1589.43L1496.51 1595.81L1496.51 1607.87L1496.51 1631.99L1496.51 1680.22L1497.22 1728.44L1497.22 1752.56L1497.22 1764.62L1497.22 1771C1496.51 1771.71 1496.51 1773.13 1497.22 1775.25ZM1497.22 1775.25C1497.22 1773.13 1496.51 1771 1496.51 1769.58L1496.51 1763.2L1497.22 1751.14L1497.93 1727.03L1499.35 1678.8L1500.06 1630.57L1500.77 1606.45L1500.77 1594.4L1500.77 1588.01C1500.77 1586.59 1500.77 1584.47 1501.48 1583.76C1502.9 1581.63 1506.44 1579.5 1509.99 1577.37L1520.63 1570.99L1541.2 1558.93L1583.04 1534.11L1624.89 1509.29L1645.46 1497.23L1656.09 1490.85C1657.51 1490.14 1659.64 1488.72 1661.06 1488.01L1666.73 1485.88L1661.77 1482.33L1661.06 1578.79C1661.06 1610.71 1660.35 1643.33 1661.06 1675.25L1662.48 1672.41L1497.22 1775.25Z" fill="#4A4A4A"/>
<path d="M1502.19 1570.28L1583.04 1524.89L1623.47 1502.9L1644.04 1491.56L1653.97 1485.88L1663.89 1479.5L1666.73 1478.08L1663.89 1476.66L1580.2 1427.72L1538.36 1403.61L1517.08 1391.55L1506.44 1385.88C1502.9 1383.75 1498.64 1381.62 1493.68 1381.62C1488.71 1381.62 1483.75 1383.75 1480.2 1385.88L1469.56 1391.55L1448.28 1403.61L1406.44 1427.72L1364.59 1451.84L1344.02 1463.89C1336.93 1468.15 1329.84 1471.7 1323.46 1476.66L1321.33 1478.08L1323.46 1480.21C1330.55 1485.88 1337.64 1489.43 1345.44 1492.97L1367.43 1505.03L1412.11 1529.15L1456.09 1553.97L1478.07 1566.03C1481.62 1568.15 1485.16 1570.28 1489.42 1571.7C1494.38 1573.12 1498.64 1572.41 1502.19 1570.28ZM1502.19 1570.28C1498.64 1572.41 1494.38 1573.83 1490.13 1572.41C1485.87 1570.99 1482.33 1568.86 1478.78 1566.74L1456.79 1553.97L1412.82 1529.15L1368.85 1503.61L1346.86 1490.85C1339.77 1486.59 1331.97 1482.33 1325.58 1477.37L1325.58 1480.92C1353.24 1464.6 1381.61 1449.71 1409.98 1434.11L1451.83 1410.7L1473.11 1398.64L1483.75 1392.97C1487.29 1390.84 1490.13 1389.42 1492.97 1389.42C1495.8 1389.42 1498.64 1390.84 1502.19 1392.97L1512.83 1398.64L1534.1 1410.7L1576.66 1434.11L1661.77 1480.21L1661.77 1477.37L1652.55 1483.04L1642.62 1488.72L1622.76 1500.78L1583.04 1524.18L1502.19 1570.28Z" fill="#4A4A4A"/>
<path d="M1155.36 1173.1L1237.64 1124.87L1278.77 1101.47L1299.34 1089.41L1309.98 1083.74C1311.4 1083.03 1313.53 1081.61 1314.94 1080.19C1316.36 1078.77 1317.78 1076.64 1318.49 1073.81C1319.91 1041.18 1319.91 1009.97 1320.62 978.768L1321.33 931.248L1321.33 907.843L1321.33 895.786L1321.33 890.112C1321.33 887.984 1320.62 885.856 1320.62 883.728L1319.91 878.054L1314.94 880.891C1311.4 883.019 1307.85 884.438 1304.31 886.565L1293.67 892.949L1273.1 905.006L1231.96 929.829L1190.83 954.653L1170.26 967.42L1160.33 973.803C1156.78 975.931 1153.24 978.058 1150.4 982.314C1147.56 986.569 1148.27 991.534 1148.27 995.08L1148.27 1007.14L1148.27 1031.25L1148.27 1079.48C1148.27 1111.4 1147.56 1144.02 1148.27 1175.94C1151.11 1174.52 1153.24 1173.81 1155.36 1173.1ZM1155.36 1173.1C1153.24 1174.52 1151.11 1174.52 1148.98 1175.23C1148.27 1143.31 1149.69 1111.4 1149.69 1078.77L1151.11 1030.54L1151.82 1006.43L1151.82 994.371C1151.82 990.116 1151.82 986.569 1153.95 983.732C1156.07 980.895 1158.91 979.477 1162.46 977.349L1173.09 971.675L1193.66 959.618L1235.51 935.504L1277.35 911.389L1297.92 899.332L1308.56 892.949L1319.2 887.275L1313.53 884.438C1313.53 885.856 1314.24 887.984 1314.24 889.402L1314.24 895.076L1314.24 907.134L1314.24 930.539L1314.24 978.058C1314.24 1009.27 1314.94 1041.89 1314.94 1072.39C1314.24 1075.93 1312.11 1078.06 1308.56 1079.48L1298.63 1085.86L1278.06 1097.92L1237.64 1122.75L1155.36 1173.1Z" fill="#4A4A4A"/>
<path d="M1148.98 1195.09L1149.69 1288.71L1149.69 1335.52L1149.69 1358.93C1149.69 1363.18 1149.69 1366.73 1149.69 1370.98C1150.4 1375.24 1152.52 1379.49 1156.07 1382.33C1183.02 1399.35 1209.26 1414.96 1236.22 1431.27L1276.64 1455.38L1296.5 1467.44L1306.43 1473.12L1317.07 1478.79L1322.04 1481.63L1322.04 1475.95L1322.74 1463.89L1322.74 1451.84L1322.04 1427.72L1321.33 1379.49L1320.62 1331.27L1319.91 1307.15L1319.91 1295.09C1319.91 1290.84 1319.91 1286.58 1317.07 1282.33C1314.94 1278.07 1310.69 1275.94 1307.14 1273.82L1296.5 1268.14L1275.22 1256.09L1233.38 1231.97L1149.69 1183.74L1148.98 1195.09ZM1148.98 1195.09L1149.69 1182.32L1232.67 1231.97L1273.81 1256.79L1294.37 1269.56L1305.01 1275.94C1308.56 1278.07 1311.4 1280.2 1313.52 1283.04C1314.94 1285.87 1315.65 1289.42 1315.65 1293.68L1315.65 1305.73L1315.65 1329.85L1315.65 1378.08L1315.65 1426.3L1315.65 1450.42L1315.65 1462.48L1314.94 1474.53L1320.62 1470.99L1310.69 1466.02L1300.76 1460.35L1280.19 1448.29L1239.76 1424.89C1212.81 1409.28 1185.15 1394.39 1158.91 1378.79C1156.07 1376.66 1154.65 1373.82 1153.94 1370.27C1153.23 1366.73 1153.23 1362.47 1153.23 1358.93L1152.52 1335.52L1151.11 1288.71L1148.98 1195.09Z" fill="#4A4A4A"/>
<path d="M1309.98 1089.41L1229.83 1134.09L1189.41 1156.08L1169.55 1167.43L1159.62 1173.1L1149.69 1179.49L1147.56 1180.9L1150.4 1182.32L1234.09 1231.26L1275.93 1255.37L1297.21 1267.43L1307.85 1273.11C1311.4 1275.23 1315.65 1278.07 1320.62 1278.07C1326.29 1278.07 1330.55 1275.23 1334.09 1273.82L1344.73 1268.14L1366.01 1256.08L1407.85 1231.97L1449.7 1207.86L1470.27 1195.8L1480.91 1189.41C1484.45 1187.29 1488 1185.16 1490.84 1182.32L1493.67 1180.19L1490.84 1178.78C1483.74 1173.81 1475.94 1170.27 1468.85 1166.01L1446.86 1153.95L1402.18 1129.84L1357.5 1105.01L1335.51 1092.96C1331.97 1090.83 1328.42 1088.7 1324.16 1087.99C1317.78 1085.86 1313.52 1087.28 1309.98 1089.41ZM1309.98 1089.41C1313.52 1087.28 1317.78 1085.86 1322.04 1086.57C1326.29 1087.28 1329.84 1090.12 1333.38 1091.54L1355.37 1104.31L1399.34 1129.84L1443.32 1155.37L1465.3 1168.14C1472.4 1172.39 1480.2 1176.65 1486.58 1181.61L1486.58 1178.07C1483.03 1180.19 1480.2 1182.32 1476.65 1184.45L1466.01 1190.12L1444.74 1201.47L1402.18 1224.88L1360.34 1248.28L1339.06 1260.34L1328.42 1266.01C1324.87 1268.14 1322.04 1269.56 1319.2 1269.56C1316.36 1269.56 1313.52 1268.14 1309.98 1266.01L1299.34 1260.34L1278.06 1248.28L1235.51 1224.88L1150.4 1178.78L1150.4 1181.61L1159.62 1175.23L1169.55 1169.56L1189.41 1158.21L1229.12 1134.8L1309.98 1089.41Z" fill="#4A4A4A"/>
<path d="M1323.46 1068.84C1323.46 1073.1 1324.87 1077.35 1328.42 1080.19C1331.97 1082.32 1335.51 1084.45 1339.06 1086.57L1360.34 1099.34L1403.6 1124.87L1446.16 1151.12L1467.43 1163.88C1474.53 1168.14 1481.62 1173.1 1489.42 1176.65L1492.26 1178.07L1492.97 1175.23L1493.68 1169.56C1493.68 1167.43 1493.68 1165.3 1493.68 1163.17L1493.68 1151.12L1493.68 1127L1493.68 1078.77L1493.68 1030.54L1493.68 1006.43L1493.68 994.372C1493.68 990.826 1494.38 985.861 1491.55 980.896C1490.13 978.059 1488 976.641 1485.87 975.223L1480.91 972.386L1470.27 966.002L1449.7 953.945L1407.86 929.831L1366.01 905.716L1344.73 893.659L1334.09 887.985L1329.13 885.148C1328.42 884.439 1327.71 884.439 1326.29 883.729L1323.46 883.02L1321.33 882.311L1321.33 884.439C1320.62 892.241 1321.33 900.042 1321.33 907.844L1322.04 931.249L1323.46 977.35L1323.46 1068.84ZM1323.46 1068.84L1322.75 976.641L1322.75 930.54L1322.75 907.135C1322.75 899.333 1322.75 891.531 1323.46 884.439L1321.33 885.857L1324.17 886.566C1324.17 886.566 1325.58 887.276 1326.29 887.985L1331.26 890.822L1341.9 897.205L1362.46 909.972L1403.6 934.795L1444.74 959.619L1465.31 971.676L1475.94 978.06L1480.91 980.896C1482.33 981.606 1483.04 982.315 1483.75 983.733C1485.16 985.861 1484.46 989.407 1485.16 993.663L1485.16 1005.72L1485.87 1029.83L1486.58 1078.06L1488 1126.29L1488.71 1150.41L1488.71 1162.46C1488.71 1164.59 1488.71 1166.72 1488.71 1168.14L1488 1173.81L1490.84 1172.39C1483.75 1168.85 1475.94 1164.59 1468.85 1160.34L1446.86 1148.28L1403.6 1123.46L1360.34 1097.92L1338.35 1085.16C1334.8 1083.03 1331.26 1080.9 1327.71 1078.77C1324.87 1077.35 1323.46 1073.1 1323.46 1068.84Z" fill="#4A4A4A"/>
<path d="M1324.16 1281.62C1322.04 1344.74 1320.62 1409.28 1319.2 1473.11L1319.2 1477.37L1322.75 1475.95L1326.29 1474.53L1329.13 1473.11L1334.8 1470.28L1345.44 1464.6C1352.53 1461.06 1359.63 1456.8 1366.72 1452.55L1408.56 1428.43L1450.41 1403.61C1464.6 1395.1 1478.07 1387.29 1491.55 1378.07L1492.97 1376.66L1492.97 1374.53L1493.67 1278.07C1493.67 1246.15 1494.38 1213.53 1493.67 1181.61L1493.67 1175.94L1489.42 1178.78L1405.73 1229.84L1324.16 1281.62ZM1324.16 1281.62L1409.27 1233.39L1492.97 1185.16L1488.71 1182.32C1488 1214.24 1488 1246.86 1487.29 1278.78L1485.87 1375.24L1487.29 1372.4C1474.52 1381.62 1460.34 1389.42 1446.86 1397.93L1405.02 1422.76L1363.17 1446.87L1341.9 1458.93L1331.26 1464.6L1326.29 1467.44L1323.45 1468.86L1321.33 1469.57L1324.87 1472.4C1325.58 1409.99 1324.87 1346.16 1324.16 1281.62Z" fill="#4A4A4A"/>
<path d="M1322.75 1490.85L1323.46 1585.88L1323.46 1633.4L1323.46 1656.81L1323.46 1668.87C1323.46 1673.12 1324.87 1678.09 1328.42 1680.92C1331.97 1683.76 1335.51 1685.18 1338.35 1688.02L1348.28 1694.4L1368.85 1706.46L1409.27 1731.28C1436.23 1747.59 1463.18 1763.91 1490.84 1779.51L1496.51 1782.35L1496.51 1775.96C1497.22 1759.65 1496.51 1744.05 1496.51 1727.73L1495.8 1679.51L1494.38 1631.28L1493.67 1607.16L1493.67 1595.1C1493.67 1591.56 1493.67 1586.59 1491.55 1582.34C1489.42 1578.08 1485.16 1575.96 1481.62 1573.83L1470.98 1568.15L1449.7 1556.1L1407.86 1531.98L1366.01 1507.87L1345.44 1495.81C1338.35 1491.55 1331.26 1487.3 1324.16 1484.46C1323.46 1485.88 1322.75 1488.01 1322.75 1490.85ZM1322.75 1490.85C1322.75 1488.01 1323.46 1485.88 1324.16 1483.04C1331.26 1486.59 1338.35 1490.85 1345.44 1495.1L1366.01 1507.16L1407.15 1531.98L1448.28 1556.81L1468.85 1569.57L1479.49 1575.96C1483.04 1578.08 1485.87 1580.21 1487.29 1583.05C1488.71 1585.88 1488.71 1590.14 1488.71 1593.69L1488.71 1605.74L1488.71 1629.86L1488.71 1678.09C1488.71 1710 1489.42 1742.63 1488.71 1774.54L1494.38 1771C1466.72 1755.4 1439.77 1739.79 1412.11 1723.48L1370.97 1700.07L1350.41 1688.73L1339.77 1683.05C1336.22 1680.92 1332.68 1679.51 1329.84 1677.38C1327 1675.25 1325.58 1671.7 1325.58 1668.16L1325.58 1656.1L1324.87 1632.7L1323.46 1585.18L1322.75 1490.85Z" fill="#4A4A4A"/>
<path d="M1368.85 1857.53L1354.66 1866.04L1344.02 1866.04L1345.44 1865.33L1366.01 1853.27L1407.85 1829.16C1436.22 1813.55 1463.88 1797.24 1492.25 1781.64L1409.98 1831.99L1368.85 1857.53Z" fill="#4A4A4A"/>
<path d="M1490.84 1866.04L1491.55 1829.87L1492.26 1805.75C1492.26 1797.95 1492.97 1789.44 1492.26 1781.64C1493.68 1789.44 1492.97 1797.95 1493.68 1805.75L1493.68 1829.87L1494.38 1866.04L1490.84 1866.04Z" fill="#4A4A4A"/>
<path d="M1470.98 1791.57L1450.41 1802.21L1409.98 1824.9L1336.22 1866.04L1409.27 1824.19L1449.7 1800.79L1469.56 1788.73C1475.23 1785.18 1481.62 1782.35 1486.58 1778.09C1480.91 1774.55 1474.53 1771 1468.14 1767.45L1446.86 1756.1L1404.31 1733.41L1362.46 1710L1341.19 1698.66L1330.55 1692.98C1327 1690.85 1324.16 1689.44 1321.33 1689.44C1318.49 1689.44 1315.65 1690.85 1312.11 1692.98L1301.47 1698.66L1280.19 1710.71L1238.35 1734.12C1211.39 1749.72 1183.02 1763.91 1156.78 1779.51L1158.91 1781.64C1160.33 1783.06 1162.46 1783.77 1163.87 1784.47L1174.51 1790.86L1196.5 1803.62L1239.76 1829.16L1283.03 1853.98L1305.01 1866.75C1305.72 1867.46 1306.43 1867.46 1307.14 1868.17L1306.43 1868.17C1305.72 1868.17 1305.01 1867.46 1305.01 1867.46L1283.74 1853.27L1239.76 1829.16L1195.79 1805.04L1173.8 1792.99L1162.46 1787.31C1161.04 1786.6 1158.91 1785.18 1156.78 1783.77L1151.82 1780.22L1149.69 1778.8L1151.82 1777.38C1158.2 1772.42 1165.29 1768.87 1172.39 1764.62L1192.95 1752.56L1234.8 1728.44L1276.64 1704.33L1297.21 1692.27L1307.85 1686.6C1310.69 1684.47 1315.65 1681.63 1321.33 1682.34C1327 1682.34 1330.55 1685.18 1334.09 1687.31L1344.73 1692.98L1366.01 1705.04L1407.86 1729.15L1449.7 1753.27L1470.27 1765.32C1477.36 1769.58 1484.45 1773.13 1490.84 1778.09L1492.97 1779.51L1490.84 1780.93C1484.45 1784.47 1478.07 1787.31 1470.98 1791.57Z" fill="#4A4A4A"/>
<path d="M1292.96 1866.04L1281.61 1858.95L1238.35 1833.41L1194.37 1809.3L1172.39 1796.53C1166 1792.99 1159.62 1788.73 1152.53 1785.89C1152.53 1787.31 1151.82 1788.02 1151.82 1788.73C1151.82 1790.15 1151.82 1792.28 1151.82 1794.4L1151.82 1806.46L1152.53 1830.58L1153.24 1865.33L1146.85 1865.33L1146.85 1830.58L1146.85 1806.46L1146.85 1794.4C1146.85 1792.28 1146.85 1790.86 1146.85 1788.02C1146.85 1785.89 1147.56 1783.77 1148.27 1782.35L1148.98 1779.51L1151.11 1780.93C1158.91 1784.47 1166 1789.44 1173.1 1793.69L1194.37 1806.46L1237.64 1832.7L1280.9 1858.24L1292.96 1865.33V1865.33L1292.96 1866.04Z" fill="#4A4A4A"/>
<path d="M1160.33 1769.58L1240.47 1722.77L1280.9 1699.36L1300.76 1688.02L1310.69 1682.34C1314.24 1680.22 1317.78 1676.67 1318.49 1672.41C1319.91 1640.5 1319.91 1610 1320.62 1578.79C1321.33 1547.59 1322.04 1517.09 1321.33 1485.88L1321.33 1483.75L1319.91 1483.04L1318.49 1481.63C1318.49 1481.63 1317.78 1481.63 1317.07 1480.92C1317.07 1480.92 1316.36 1480.92 1315.65 1480.92C1314.94 1480.92 1314.94 1480.92 1314.24 1480.92L1313.53 1480.92L1312.11 1481.63L1309.27 1483.04C1307.14 1483.75 1305.72 1485.17 1303.6 1485.88L1292.96 1492.26L1272.39 1504.32L1231.25 1529.15C1203.59 1545.46 1176.64 1562.48 1148.98 1579.5L1148.27 1580.21L1148.27 1581.63L1148.98 1678.8L1148.98 1775.25L1160.33 1769.58ZM1160.33 1769.58L1149.69 1775.25L1151.11 1678.8L1153.24 1582.34L1152.53 1584.47C1180.19 1568.15 1208.56 1552.55 1235.51 1536.24L1276.65 1512.12L1297.21 1500.07L1307.85 1493.68C1309.27 1492.97 1311.4 1491.55 1312.82 1490.85L1315.65 1489.43L1317.07 1488.72L1316.36 1488.72C1315.65 1488.72 1315.65 1488.72 1315.65 1488.72C1314.94 1488.72 1314.94 1488.72 1315.65 1488.72L1316.36 1489.43L1314.94 1486.59C1315.65 1517.09 1314.94 1548.29 1314.94 1579.5C1314.94 1610.71 1315.65 1641.92 1315.65 1672.41C1314.94 1679.51 1306.43 1682.34 1300.05 1686.6L1280.19 1698.66L1240.47 1722.77L1160.33 1769.58Z" fill="#4A4A4A"/>
<path d="M1156.78 1569.57L1236.93 1524.89L1277.36 1502.9L1297.21 1491.56L1307.14 1485.88L1317.07 1479.5L1319.91 1478.08L1317.07 1476.66L1234.09 1428.43L1192.25 1404.32L1170.97 1392.26L1160.33 1386.59C1156.78 1384.46 1153.24 1381.62 1147.56 1381.62C1141.89 1380.91 1137.63 1384.46 1134.09 1385.88L1123.45 1391.55L1102.17 1403.61L1060.33 1427.72L1018.48 1451.84L997.911 1463.89C990.819 1468.15 983.726 1471.7 977.343 1476.66L975.215 1478.08L977.343 1479.5C984.435 1485.17 991.528 1488.72 999.33 1492.97L1021.32 1505.03L1066 1529.15L1109.97 1553.97L1131.96 1566.03C1135.51 1568.15 1139.05 1570.28 1143.31 1571.7C1148.98 1573.83 1153.24 1571.7 1156.78 1569.57ZM1156.78 1569.57C1153.24 1571.7 1148.98 1573.12 1144.73 1572.41C1140.47 1571.7 1136.92 1568.86 1133.38 1566.74L1111.39 1553.97L1067.42 1529.15L1023.44 1503.61L1001.46 1490.85C994.365 1486.59 986.563 1482.33 980.18 1477.37L980.18 1480.92C986.563 1476.66 993.656 1473.11 1000.75 1468.86L1022.03 1457.51L1064.58 1434.11L1106.43 1410.7L1127.7 1398.64L1138.34 1392.97C1141.89 1390.84 1144.73 1389.42 1147.56 1389.42C1150.4 1389.42 1153.24 1391.55 1156.78 1393.68L1167.42 1399.35L1188.7 1411.41L1231.25 1434.82L1316.36 1480.92L1316.36 1478.08L1307.14 1484.46L1297.21 1490.14L1277.36 1501.48L1237.64 1524.89L1156.78 1569.57Z" fill="#4A4A4A"/>
<path d="M977.345 1068.13C977.345 1072.39 978.054 1076.64 981.601 1079.48C985.147 1082.32 988.693 1083.74 992.239 1085.87L1014.23 1098.63L1057.49 1124.16L1100.75 1150.41L1122.03 1163.17C1129.12 1167.43 1136.22 1172.39 1144.02 1175.94L1146.86 1177.36L1146.86 1174.52C1146.86 1170.27 1147.56 1166.01 1147.56 1162.46L1147.56 1150.41L1147.56 1126.29L1147.56 1078.06L1147.56 1029.83L1147.56 1005.72L1147.56 993.663C1147.56 990.116 1148.27 985.152 1145.44 980.187C1144.02 978.059 1141.89 975.932 1139.76 974.513L1134.09 971.676L1123.45 965.293L1102.88 953.236L1061.04 929.121L1019.19 905.007L997.913 892.949C990.821 889.403 984.438 884.438 976.636 881.601L974.508 880.892L974.508 883.729C973.799 891.531 974.508 899.333 974.508 907.134L975.217 929.83L976.636 975.932L977.345 1068.13ZM977.345 1068.13L976.636 975.932L976.636 929.83L976.636 907.134C976.636 899.333 976.636 891.531 977.345 884.439L974.508 885.857C981.601 889.403 988.693 893.659 995.076 897.914L1015.64 910.681L1056.78 935.504L1098.63 960.328L1119.19 972.385L1129.83 978.769L1134.8 981.606C1136.22 982.315 1136.93 983.733 1137.64 984.442C1139.05 986.57 1139.05 990.116 1139.05 994.372L1139.05 1006.43L1139.76 1030.54L1140.47 1078.77L1141.89 1127L1142.6 1151.12L1142.6 1163.17C1142.6 1167.43 1141.89 1170.97 1141.89 1175.23L1144.73 1173.81C1136.93 1170.27 1129.83 1166.01 1122.74 1161.75L1100.75 1148.99L1056.78 1124.16L1013.52 1098.63L991.53 1085.87C987.984 1083.74 984.438 1081.61 980.891 1079.48C978.054 1077.35 976.636 1072.39 977.345 1068.13Z" fill="#4A4A4A"/>
<path d="M1144.72 1183.03C1137.63 1185.87 1130.54 1190.12 1123.45 1194.38L1102.17 1206.44L1060.32 1230.55L1018.48 1254.67L997.91 1266.72L987.271 1273.11C983.725 1275.23 979.469 1276.65 976.632 1281.62C973.795 1285.87 974.504 1290.84 974.504 1295.09L974.504 1307.15L974.504 1331.27L973.795 1379.49L973.086 1427.72L973.086 1451.84C973.086 1459.64 972.377 1468.15 973.795 1475.95L974.504 1481.63L979.469 1479.5C987.271 1475.95 993.654 1471.7 1000.75 1467.44L1021.31 1455.38L1062.45 1430.56L1103.59 1405.74L1124.16 1393.68L1134.79 1387.3C1137.63 1385.17 1142.6 1383.04 1145.43 1378.79C1148.27 1373.82 1147.56 1369.56 1147.56 1365.31L1147.56 1353.25L1147.56 1329.14L1147.56 1280.91L1146.85 1232.68L1146.85 1208.57C1146.14 1199.35 1146.14 1191.54 1144.72 1183.03ZM1144.72 1183.03C1145.43 1190.83 1144.72 1199.35 1144.72 1207.15L1144.01 1231.26L1142.6 1279.49L1141.89 1327.72L1141.18 1351.83L1141.18 1363.89C1141.18 1368.15 1141.18 1371.69 1139.76 1373.82C1138.34 1376.66 1134.79 1378.08 1131.25 1380.2L1120.61 1386.59L1100.04 1398.64L1058.2 1422.76L1016.35 1446.87L995.782 1458.93C988.689 1463.19 981.597 1467.44 975.214 1470.28L980.888 1473.82C980.178 1466.02 980.179 1458.22 980.179 1449.71L980.179 1425.6L980.179 1377.37L980.179 1329.14L980.179 1305.02L980.179 1292.97C980.179 1288.71 980.178 1285.16 981.597 1282.33C983.015 1279.49 986.562 1278.07 990.108 1275.94L1000.75 1269.56L1021.31 1256.79L1062.45 1231.97L1103.59 1206.44L1124.16 1193.67C1131.25 1190.83 1137.63 1186.58 1144.72 1183.03Z" fill="#4A4A4A"/>
<path d="M976.633 1493.68L977.342 1587.3L977.342 1634.11L977.342 1657.52C977.342 1661.77 977.342 1665.32 977.342 1669.58C977.342 1673.83 979.47 1678.09 983.016 1680.92L1063.16 1729.86L1103.59 1753.98L1123.45 1766.03C1129.83 1770.29 1136.92 1773.84 1144.02 1777.38L1148.98 1780.22L1148.98 1774.54L1149.69 1762.49L1149.69 1750.43L1148.98 1726.32L1148.27 1678.09L1147.56 1629.86L1146.85 1605.74L1146.85 1593.69C1146.85 1589.43 1146.85 1585.18 1144.02 1580.92C1141.89 1576.66 1137.63 1574.54 1134.09 1572.41L1123.45 1566.74L1102.17 1554.68L1060.32 1530.56L976.633 1482.33L976.633 1493.68ZM976.633 1493.68L977.342 1482.33L1060.32 1531.98L1101.46 1556.81L1122.03 1569.57L1132.67 1575.96C1136.21 1578.08 1139.05 1580.21 1141.18 1583.05C1142.6 1585.88 1143.31 1589.43 1143.31 1593.69L1143.31 1605.74L1143.31 1629.86L1143.31 1678.09L1143.31 1726.32L1143.31 1750.43L1143.31 1762.49L1142.6 1774.54L1148.27 1771C1141.18 1768.16 1134.8 1763.91 1127.7 1759.65L1107.13 1747.59L1066.71 1724.19L985.144 1678.09C978.76 1674.54 980.179 1665.32 980.179 1657.52L979.47 1634.11L978.051 1587.3L976.633 1493.68Z" fill="#4A4A4A"/>
<path d="M1142.6 1866.04C1142.6 1839.8 1143.31 1812.84 1144.02 1786.6L1064.58 1831.99L1005 1866.04L1002.88 1866.04L1061.74 1829.87L1145.44 1778.8L1149.69 1775.96L1149.69 1781.64C1149.69 1810.01 1149.69 1838.38 1149.69 1866.04L1142.6 1866.04Z" fill="#4A4A4A"/>
<path d="M1124.15 1792.28L1103.59 1803.62L1063.16 1825.61L990.816 1866.04L1063.16 1824.19L1102.88 1800.79L1122.74 1788.73C1128.41 1785.18 1134.79 1781.64 1140.47 1778.09C1134.79 1773.84 1128.41 1771 1122.03 1767.45L1100.75 1756.1L1058.19 1732.7L1015.64 1709.29L994.362 1697.24L983.724 1691.56C980.177 1689.44 977.34 1688.02 974.503 1688.02C973.085 1688.02 971.666 1688.73 970.248 1689.44L965.283 1692.27L954.644 1697.95L933.367 1710L890.812 1733.41L848.257 1756.81L826.98 1768.16C821.306 1771.71 814.922 1774.55 809.248 1778.8C822.724 1786.6 836.2 1794.4 849.675 1802.21L892.94 1827.74L936.913 1852.56L958.9 1865.33C959.609 1865.33 959.609 1866.04 960.318 1866.04L959.609 1866.04C959.609 1866.04 958.9 1866.04 958.9 1865.33L936.913 1853.27L893.649 1829.16L849.675 1805.04C834.781 1797.24 819.887 1789.44 805.702 1780.93L802.865 1779.51L804.993 1777.38C811.376 1772.42 818.469 1768.87 825.561 1764.62L846.129 1752.56L887.975 1728.44L929.821 1704.33L951.098 1692.27L961.737 1686.6C963.865 1685.89 965.283 1684.47 967.411 1683.76C969.538 1682.34 972.375 1681.63 975.212 1681.63C980.886 1681.63 985.142 1684.47 987.979 1686.6L998.618 1692.27L1019.9 1704.33L1061.74 1728.44L1103.59 1752.56L1124.15 1764.62C1131.25 1768.87 1138.34 1772.42 1144.72 1778.09L1146.85 1779.51L1144.72 1780.93C1137.63 1785.18 1130.54 1788.02 1124.15 1792.28Z" fill="#4A4A4A"/>
<path d="M948.262 1866.04L936.204 1858.95L892.94 1833.41L848.967 1808.59L826.98 1795.82C820.597 1792.28 814.214 1788.02 807.121 1785.18C807.121 1786.6 806.412 1787.31 806.412 1788.02L806.412 1793.69L806.412 1805.75L807.121 1829.87L807.83 1865.33L801.447 1865.33L801.447 1829.87L801.447 1805.75L801.447 1793.69L801.447 1787.31C801.447 1784.47 802.866 1783.06 802.866 1780.93L803.575 1778.09L805.703 1779.51C813.505 1783.06 820.597 1788.02 827.69 1792.28L848.967 1805.04L892.231 1831.29L935.495 1856.82L948.262 1864.62V1864.62L948.262 1866.04Z" fill="#4A4A4A"/>
<path d="M811.383 1771.71L892.947 1724.19L934.083 1700.78L954.651 1688.73L964.581 1683.05C965.999 1682.34 968.127 1680.92 969.546 1679.51C970.964 1678.09 972.382 1675.25 972.382 1673.12C973.801 1641.21 973.801 1610 974.51 1578.08L975.219 1530.56L975.219 1507.16L975.219 1495.1L975.219 1489.43C975.219 1487.3 974.51 1485.17 974.51 1483.04L973.801 1477.37L968.836 1480.21C965.29 1482.33 961.744 1483.75 958.198 1485.88L947.559 1492.26L926.991 1504.32L885.854 1529.15L844.718 1553.97L824.15 1566.74L814.22 1573.12C810.674 1575.25 806.418 1577.37 804.291 1581.63C801.454 1585.89 802.163 1590.85 802.163 1594.4L802.163 1606.45L802.163 1630.57L802.163 1678.8C802.163 1710.71 801.454 1743.34 802.163 1775.25C806.418 1773.13 809.255 1772.42 811.383 1771.71ZM811.383 1771.71C809.255 1773.13 806.418 1773.13 804.291 1774.55C804.291 1742.63 805 1710 805 1678.09L806.418 1629.86L807.127 1605.74L807.127 1593.69C807.127 1589.43 807.128 1585.88 809.255 1583.05C811.383 1580.21 814.22 1578.79 817.766 1576.66L828.405 1570.99L848.973 1558.93L890.819 1534.82L932.665 1510.7L953.233 1498.65L963.871 1492.26L974.51 1486.59L968.836 1483.75C968.836 1485.17 969.546 1487.3 969.546 1488.72L969.546 1494.39L969.546 1506.45L969.546 1529.85L969.546 1577.37L970.255 1671.7C970.255 1675.25 967.418 1677.38 963.871 1679.51L953.942 1685.89L934.083 1697.95L893.656 1722.77L811.383 1771.71Z" fill="#4A4A4A"/>
<path d="M630.52 1495.1L631.229 1588.72L631.229 1635.53L631.229 1658.94C631.229 1663.19 631.229 1666.74 631.229 1670.99C631.938 1675.25 634.066 1679.51 637.612 1681.63C664.563 1698.66 690.806 1714.26 717.757 1730.57L797.902 1778.8L802.867 1781.64L803.576 1775.25C803.576 1771 804.285 1766.74 804.285 1763.2L804.285 1751.14L803.576 1727.03L802.867 1678.8L802.158 1630.57L801.448 1606.45L801.448 1594.4C801.448 1590.85 801.449 1585.89 799.321 1581.63C797.193 1577.37 792.228 1575.25 789.391 1573.12L778.752 1567.44L757.475 1555.39L715.629 1531.27L673.784 1507.16L652.506 1495.1C645.414 1490.85 639.031 1486.59 631.229 1483.75L630.52 1495.1ZM630.52 1495.1L630.52 1483.75C637.612 1486.59 644.704 1491.56 651.797 1495.81L672.365 1507.87L714.211 1532.69L755.347 1557.52L775.915 1570.28L786.554 1576.66C790.1 1578.79 793.647 1580.21 795.065 1583.76C796.484 1586.59 796.484 1590.14 796.484 1594.4L796.484 1606.45L796.484 1630.57L796.484 1678.8L796.484 1727.03L796.484 1751.14L796.484 1763.2C796.484 1767.45 795.775 1771 795.775 1775.25L801.448 1772.42L720.594 1725.61C693.643 1710 665.982 1695.11 639.74 1679.51C636.903 1677.38 634.775 1674.54 634.066 1670.99C633.357 1667.45 633.356 1663.19 633.356 1659.65L632.647 1636.24L631.229 1589.43L630.52 1495.1Z" fill="#4A4A4A"/>
<path d="M796.487 1866.04C796.487 1839.8 797.196 1814.26 797.905 1788.02L796.487 1788.73C794.359 1789.44 792.94 1790.15 790.813 1791.57L780.174 1797.24L758.897 1808.59L716.342 1831.99L674.496 1856.11C668.822 1859.66 663.148 1862.49 658.183 1866.04L655.346 1866.04C661.02 1862.49 667.403 1858.24 673.077 1854.69L714.214 1829.16L756.06 1804.33L777.337 1792.28L787.976 1786.6C789.394 1785.89 791.522 1784.47 793.65 1783.77L796.487 1782.35L800.033 1780.93L803.579 1779.51L803.579 1783.77C803.579 1811.43 803.579 1838.38 803.579 1866.04L796.487 1866.04V1866.04Z" fill="#4A4A4A"/>
<path d="M758.895 1802.21L718.467 1824.19L643.996 1866.04L718.467 1823.48L758.185 1800.08C770.242 1792.99 783.009 1785.89 795.066 1778.09C792.229 1776.67 790.101 1774.55 787.264 1773.13L776.626 1767.45L755.348 1756.1L712.793 1732.7L670.238 1709.29L648.961 1697.24L638.322 1691.56C634.776 1689.44 631.939 1688.02 629.102 1688.02C626.265 1688.02 623.428 1690.14 619.882 1692.27L609.243 1697.95L587.966 1710L545.411 1733.41L502.856 1756.81L481.578 1768.16C475.195 1771.71 469.521 1774.55 463.847 1778.8L548.957 1828.45L592.93 1853.98L614.208 1866.04L613.499 1866.04L592.221 1853.98L547.539 1829.16L458.883 1780.93L456.045 1779.51L458.883 1777.38C465.266 1772.42 472.358 1768.16 479.451 1763.91L500.019 1751.85L541.864 1727.73L583.71 1703.62L604.988 1691.56L615.626 1685.89C619.173 1684.47 622.719 1680.92 628.393 1680.92C634.067 1680.92 638.322 1683.76 641.869 1685.89L652.507 1691.56L673.785 1703.62L715.63 1727.73L757.476 1751.85L778.753 1763.91L789.392 1770.29C792.938 1772.42 796.485 1774.55 799.322 1777.38L801.449 1778.8L799.322 1780.22C785.846 1788.02 772.37 1794.4 758.895 1802.21Z" fill="#4A4A4A"/>
<path d="M601.439 1866.04L589.382 1858.95L546.118 1833.41L502.145 1808.59L480.158 1795.82C473.775 1792.28 467.392 1788.73 461.008 1785.18L460.299 1788.02C460.299 1790.15 460.299 1791.57 460.299 1793.69L460.299 1805.75L461.008 1830.58L461.718 1866.04L455.334 1866.04L455.334 1830.58L455.334 1806.46L455.334 1794.4C455.334 1792.28 455.334 1790.15 455.334 1788.02L456.044 1782.35L456.753 1779.51L459.59 1780.93C467.392 1784.47 474.484 1789.44 481.577 1793.69L502.854 1806.46L546.118 1832.7L589.382 1858.24L602.149 1866.04L601.439 1866.04Z" fill="#4A4A4A"/>
<path d="M624.844 1676.67C626.972 1613.55 628.39 1549 629.809 1485.17L629.809 1480.92L626.262 1482.34L622.716 1483.75L619.879 1485.17C617.752 1485.88 616.333 1487.3 614.205 1488.01L603.567 1493.68C596.474 1497.23 589.382 1501.48 582.289 1505.03L540.444 1529.15L498.598 1553.97C484.413 1562.48 470.937 1570.28 457.461 1579.5L456.043 1580.92L456.043 1583.05L455.334 1679.51C455.334 1712.13 454.625 1744.05 455.334 1776.67L455.334 1782.35L459.589 1779.51L543.281 1728.44L624.844 1676.67ZM624.844 1676.67L539.734 1724.9L456.043 1773.13L460.298 1775.96C461.008 1744.05 461.008 1711.42 461.717 1679.51L463.135 1583.05L461.717 1585.89C474.483 1576.67 488.668 1568.86 502.144 1560.35L543.99 1535.53L585.835 1511.41L607.113 1499.36L617.752 1493.68C619.17 1492.97 621.298 1491.56 622.716 1490.85L625.553 1489.43L627.681 1488.72L624.135 1485.88C623.426 1548.3 624.135 1611.42 624.844 1676.67Z" fill="#4A4A4A"/>
<path d="M449.664 1866.04C449.664 1839.8 450.373 1812.84 451.082 1786.6L371.646 1831.99L312.779 1866.04L310.651 1866.04L369.519 1829.87L453.21 1778.8L457.465 1775.96L457.465 1781.64C457.465 1810.01 457.465 1837.67 457.465 1866.04L449.664 1866.04Z" fill="#4A4A4A"/>
<path d="M1139.05 787.98L1058.2 833.372L1017.77 855.359L997.202 866.707C990.109 870.253 983.726 873.8 977.342 878.764L975.215 880.183L977.342 881.601C980.889 883.729 983.726 886.566 987.272 888.694L997.911 895.077L1018.48 907.134L1060.32 931.249L1102.17 955.363L1123.45 967.42L1134.09 973.094C1137.63 975.222 1141.18 978.059 1146.85 978.059C1149.69 978.059 1152.53 977.35 1154.65 975.931C1156.78 974.513 1158.2 973.804 1160.33 973.094L1170.97 967.42L1192.24 955.363L1234.09 931.249L1275.94 907.134L1296.5 895.077C1303.6 890.822 1310.69 887.275 1317.07 882.311L1319.91 880.183L1317.07 878.764L1228.42 830.535L1184.44 806.421L1162.46 794.364C1158.91 792.236 1155.36 790.108 1151.11 788.69C1146.85 785.144 1142.6 785.853 1139.05 787.98ZM1139.05 787.98C1142.6 785.853 1146.85 785.143 1151.11 787.271C1154.65 788.69 1158.2 791.527 1162.46 793.654L1184.44 806.421L1228.42 831.245L1271.68 856.778L1314.94 882.311L1314.94 878.764C1308.56 883.02 1301.47 887.275 1294.38 890.821L1273.1 902.169L1230.54 925.575L1187.99 948.98L1166.71 961.037L1156.07 966.711L1151.11 969.548C1149.69 970.257 1148.27 970.967 1146.85 970.967C1144.02 970.967 1141.18 969.548 1137.63 967.42L1126.99 961.746L1105.72 949.689L1063.16 926.284L1020.61 902.879L999.329 891.531L988.691 885.857C985.144 883.729 982.307 881.601 978.761 879.473L978.761 882.311C984.435 877.346 991.528 873.8 997.911 870.253L1017.77 858.196L1057.49 834.791L1139.05 787.98Z" fill="#4A4A4A"/>
<path d="M1483.04 587.263L1401.47 634.783L1360.34 658.188L1339.77 670.245L1329.84 675.919C1326.29 677.338 1322.04 680.175 1321.33 685.14C1320.62 690.104 1320.62 692.941 1320.62 697.197L1320.62 709.254L1319.91 732.659L1318.49 779.47L1317.78 826.28L1317.78 849.685L1317.78 861.742C1317.78 865.998 1317.07 869.544 1317.78 873.8L1318.49 878.055L1322.04 876.637C1323.46 875.927 1324.87 875.927 1325.58 875.218L1328.42 873.8C1330.55 873.091 1331.97 871.672 1334.09 870.963L1344.73 865.289L1366.01 853.231L1407.86 829.117C1422.04 820.606 1435.52 812.095 1448.99 803.584C1462.47 795.073 1476.65 786.562 1489.42 777.342L1490.13 776.633L1490.13 775.923L1489.42 679.466L1489.42 583.008C1488 585.845 1485.16 585.845 1483.04 587.263ZM1483.04 587.263C1485.16 585.845 1488 585.845 1490.84 584.426L1489.42 680.884L1487.29 777.342L1488 775.923C1474.52 784.434 1461.05 792.945 1446.86 800.747L1405.02 824.862L1363.17 848.976L1341.9 860.324L1331.26 865.998L1326.29 868.835L1323.46 870.254C1322.75 870.254 1322.04 870.963 1321.33 870.963L1325.58 874.509C1324.87 871.672 1325.58 866.707 1324.87 863.161L1324.87 851.104L1324.87 827.699L1324.87 780.888L1324.87 734.078L1324.87 710.673L1324.87 698.615C1324.87 695.069 1324.87 690.104 1324.87 687.267C1325.58 683.721 1328.42 682.303 1331.97 680.175L1341.9 673.792L1361.75 661.734L1402.18 636.911L1483.04 587.263Z" fill="#4A4A4A"/>
<path d="M1481.62 790.109L1402.89 834.082L1323.46 878.055L1321.33 879.474L1323.46 880.892C1327 883.02 1329.84 885.857 1333.39 887.985L1344.02 894.368L1364.59 906.425L1406.44 930.54L1448.28 954.654L1469.56 966.711L1480.2 972.385C1483.75 974.513 1488 976.641 1493.68 976.641C1498.64 976.641 1503.61 973.804 1506.44 972.385L1517.08 966.711L1538.36 954.654L1580.2 930.54L1622.05 906.425L1642.62 894.368L1653.26 887.985L1663.19 881.602L1666.02 879.474L1663.19 878.055C1633.4 861.033 1602.9 845.43 1573.11 829.117L1528.43 804.294L1505.73 791.527C1502.19 789.399 1497.93 787.272 1493.68 787.272C1489.42 786.562 1485.16 787.981 1481.62 790.109ZM1481.62 790.109C1485.16 787.981 1489.42 786.562 1493.68 786.562C1497.93 786.562 1502.19 788.69 1505.73 790.818L1527.72 803.584L1572.4 829.117C1602.19 846.139 1631.98 863.161 1661.06 880.892L1661.06 877.346C1633.4 893.659 1604.32 908.553 1576.66 924.157L1534.1 947.562L1512.83 959.619L1502.19 965.293C1498.64 967.421 1495.8 968.839 1492.97 968.839C1490.13 968.839 1487.29 967.421 1483.75 965.293L1473.11 959.619L1451.83 947.562L1409.28 924.157L1366.72 900.751L1345.44 889.403L1334.8 883.729C1331.26 881.602 1328.42 879.474 1324.87 877.346L1324.87 880.183L1363.88 857.487L1402.89 834.791L1481.62 790.109Z" fill="#4A4A4A"/>
<path d="M1494.38 595.774L1495.09 689.395L1495.09 736.205L1495.09 759.61C1495.09 763.866 1495.09 767.412 1495.09 771.668C1495.8 775.923 1497.93 780.179 1501.47 783.016C1528.42 800.038 1554.67 815.641 1581.62 831.954L1622.05 856.068L1641.9 868.125L1651.83 873.799L1662.47 879.473L1668.15 882.31L1668.15 875.927L1668.86 863.87L1668.86 851.813L1668.15 827.698L1667.44 779.469L1666.73 731.24L1666.02 707.126L1666.02 695.069C1666.02 690.813 1666.02 686.558 1663.18 682.302C1661.05 678.047 1656.8 675.919 1653.25 673.791L1642.61 668.117L1621.34 656.06L1579.49 631.946L1495.8 583.717L1494.38 595.774ZM1494.38 595.774L1495.09 583.008L1578.07 632.655L1619.21 658.188L1639.78 670.954L1650.42 677.338C1653.96 679.465 1656.8 681.593 1658.93 684.43C1660.34 687.267 1661.05 690.813 1661.05 695.069L1661.05 707.126L1661.05 731.24L1661.05 779.469C1661.05 811.386 1661.76 844.011 1661.05 875.927L1666.73 872.381L1656.8 867.416L1646.87 861.742L1626.3 849.685L1585.87 826.28C1558.92 810.676 1531.26 795.782 1505.02 780.179C1502.18 778.051 1500.05 775.214 1500.05 771.668C1499.35 768.121 1499.35 763.866 1499.35 760.32L1498.64 736.914L1497.22 690.104L1494.38 595.774Z" fill="#4A4A4A"/>
<path d="M1708.58 510.664L1702.19 507.118L1681.62 495.77C1674.53 492.224 1668.15 486.55 1661.06 489.387C1634.1 504.99 1607.15 521.303 1579.49 536.907L1538.36 560.312L1517.79 572.369C1512.82 575.206 1507.86 578.043 1502.89 580.88L1581.62 625.563L1623.47 649.677L1644.03 661.734L1654.67 668.117C1658.22 670.245 1661.77 672.373 1664.6 672.373C1668.15 673.082 1670.99 670.954 1674.53 668.827L1685.17 663.153L1706.45 651.805L1707.87 651.095L1707.87 653.932L1687.3 665.99L1676.66 672.373C1673.11 674.501 1669.57 677.338 1664.6 676.628C1659.64 676.628 1656.09 673.791 1652.55 671.664L1641.91 665.99L1620.63 654.642L1578.07 631.236C1549.7 615.633 1521.33 600.03 1493.67 584.426L1488.71 581.589L1493.67 578.043C1500.06 573.078 1507.15 569.532 1514.24 565.986L1534.81 554.638L1575.95 531.942C1603.61 517.047 1630.56 501.444 1658.93 486.55C1663.18 484.422 1668.15 485.841 1671.69 487.968L1682.33 493.642L1702.9 505.699L1708.58 508.537L1708.58 510.664V510.664Z" fill="#4A4A4A"/>
<path d="M1708.58 661.734L1672.41 683.721C1672.41 715.637 1672.41 747.553 1672.41 778.76L1671.7 868.835L1676.66 865.998L1687.3 859.615L1707.87 847.557L1708.58 846.848L1708.58 855.359L1690.85 865.998L1680.21 872.381L1669.57 878.055L1663.89 880.892L1663.89 874.509L1665.31 777.342C1666.02 744.716 1666.02 712.8 1666.73 680.175L1666.73 678.756L1668.15 678.047L1708.58 654.642L1708.58 661.734V661.734Z" fill="#4A4A4A"/>
<path d="M1708.58 858.905C1697.23 865.998 1685.17 872.381 1674.53 879.473C1675.24 880.183 1676.66 880.892 1677.37 881.601C1678.79 882.31 1680.91 883.729 1682.33 884.438L1692.97 890.112L1708.58 898.623L1708.58 904.297L1690.84 893.658L1680.21 887.275C1678.08 885.857 1676.66 885.147 1674.53 883.729C1673.11 882.31 1671.69 880.892 1670.28 879.473L1668.15 878.055L1670.28 876.636C1683.04 868.835 1695.81 862.451 1708.58 855.359L1708.58 858.905V858.905Z" fill="#4A4A4A"/>
<path d="M1708.58 1177.36L1685.17 1190.83L1623.47 1225.59C1583.75 1248.28 1543.32 1268.85 1504.32 1291.55C1512.83 1297.93 1522.05 1302.89 1531.27 1308.57L1563.18 1327.01L1627.02 1363.89L1690.85 1400.77L1708.58 1410.7L1708.58 1411.41L1690.14 1401.48L1625.6 1365.31L1561.05 1329.85L1528.43 1312.11C1517.79 1306.44 1506.44 1300.77 1496.51 1292.96L1492.97 1290.13L1496.51 1288C1506.44 1281.62 1516.37 1275.23 1527.01 1269.56L1557.51 1251.83L1618.5 1216.37L1679.5 1180.9L1708.58 1164.59L1708.58 1177.36V1177.36Z" fill="#8C8C8C"/>
<path d="M1249.7 844.011L1368.85 773.795L1429.14 739.042L1458.93 722.02L1473.82 713.509C1475.95 712.091 1478.78 710.672 1481.62 708.544C1483.75 706.417 1485.88 702.87 1486.59 700.033C1488.71 652.514 1488.71 607.122 1490.13 561.021L1490.84 491.514L1491.55 456.761L1491.55 439.739L1491.55 431.228C1491.55 428.391 1490.84 424.845 1490.13 422.008L1489.42 414.206L1482.33 417.752C1477.37 420.589 1471.69 423.426 1466.73 426.263L1451.83 435.484L1421.34 453.215L1361.05 489.387L1300.76 526.268L1270.97 544.708L1256.08 553.928C1251.12 556.765 1245.44 559.602 1241.9 565.985C1238.35 572.369 1239.06 579.461 1239.06 584.426L1239.06 602.157L1239.06 637.619L1239.77 707.835C1239.77 754.645 1239.06 801.456 1239.77 848.266C1243.31 846.138 1246.86 845.429 1249.7 844.011ZM1249.7 844.011C1246.86 845.429 1243.31 846.139 1240.48 846.848C1239.77 800.037 1241.19 753.227 1241.9 706.417L1243.31 636.201L1244.02 600.739L1244.73 583.007C1244.73 577.333 1244.73 571.659 1247.57 567.404C1250.41 563.148 1255.37 561.021 1260.34 558.184L1275.94 549.673L1306.44 531.941L1367.43 497.188L1428.43 461.726L1458.93 443.995L1473.82 435.484L1488.71 427.682L1480.91 423.426C1480.91 426.263 1482.33 428.391 1482.33 431.228L1482.33 439.739L1482.33 456.761L1482.33 491.514L1482.33 561.021C1482.33 607.122 1483.04 653.932 1483.04 699.324C1482.33 704.289 1478.08 707.126 1473.11 709.963L1458.22 719.183L1428.43 737.623L1369.56 773.795L1249.7 844.011Z" fill="#8C8C8C"/>
<path d="M1240.48 875.927L1241.18 1012.81L1241.18 1080.9L1241.18 1114.94C1241.18 1120.62 1240.48 1126.29 1241.89 1132.68C1242.6 1139.06 1246.15 1144.73 1251.11 1148.99C1290.12 1173.81 1329.13 1196.51 1368.14 1220.62L1425.59 1256.08L1454.67 1273.82L1469.56 1282.33L1485.17 1290.13L1492.97 1294.38L1493.68 1285.87L1494.39 1268.14L1494.39 1250.41L1493.68 1214.95L1492.26 1144.02L1490.84 1073.1L1490.13 1037.64L1489.42 1019.9C1489.42 1014.23 1488.71 1007.14 1485.17 1001.46C1481.62 995.79 1475.95 992.244 1470.98 989.407L1455.38 980.896L1424.88 963.165L1363.18 928.411L1241.18 857.487L1240.48 875.927ZM1240.48 875.927L1241.18 857.487L1362.47 929.83L1422.75 966.711L1453.25 985.151L1468.14 994.372C1473.11 997.209 1477.36 1000.05 1480.2 1005.01C1482.33 1009.27 1483.04 1014.94 1483.04 1020.61L1483.04 1038.34L1483.04 1073.81L1483.04 1144.73L1483.04 1215.66L1483.04 1251.12L1483.04 1268.85L1482.33 1285.87L1490.13 1280.91L1475.24 1273.11L1460.34 1264.6L1430.55 1247.57L1371.69 1213.53C1331.97 1190.83 1291.54 1168.85 1253.24 1146.15C1248.99 1143.31 1246.86 1138.35 1245.44 1133.38C1244.73 1128.42 1244.73 1122.04 1244.73 1116.36L1244.02 1082.32L1242.6 1014.23L1240.48 875.927Z" fill="#8C8C8C"/>
<path d="M1301.47 822.024L1272.39 839.046L1258.21 847.557L1248.28 854.649L1368.14 919.9L1429.85 953.944L1460.34 970.966L1475.95 979.477C1481.62 982.314 1485.17 985.151 1489.42 985.151C1493.68 985.151 1497.23 983.023 1502.9 980.186L1518.5 971.675L1549 954.653L1610.7 920.609L1672.41 886.565L1703.62 869.544L1707.87 867.416L1707.87 875.927L1707.16 876.636L1676.67 894.367L1615.67 929.83L1554.67 964.583L1524.18 982.314L1508.57 990.825C1503.61 993.662 1497.23 997.917 1489.42 997.208C1481.62 997.208 1475.24 992.953 1470.27 990.116L1454.67 981.605L1424.17 963.874L1363.18 929.12L1241.19 858.196L1237.64 856.068L1241.19 853.94L1255.37 844.72L1270.27 836.918L1299.34 820.605L1358.21 787.98L1475.24 722.729L1358.92 789.398L1301.47 822.024Z" fill="#8C8C8C"/>
<path d="M1708.58 839.755C1706.45 838.336 1705.03 837.627 1702.9 836.209L1670.99 817.768L1607.16 780.178L1542.61 743.297L1510.7 724.857C1505.02 722.02 1500.06 718.473 1493.68 717.055C1487.29 715.637 1481.62 717.764 1475.95 721.311C1480.91 718.474 1487.29 716.346 1493.68 717.055C1500.06 717.764 1505.02 722.02 1510.7 724.857L1543.32 742.588L1607.87 778.76L1673.12 814.222L1705.74 831.953C1706.45 832.662 1707.87 833.372 1708.58 833.372L1708.58 839.755V839.755Z" fill="#8C8C8C"/>
<path d="M1502.19 707.835C1507.15 711.381 1512.83 714.218 1517.79 717.055L1549.71 735.496L1612.83 772.377L1676.66 808.548L1708.58 826.989L1708.58 832.663C1707.87 831.953 1707.16 831.953 1706.45 831.244L1675.25 812.094L1612.83 773.795L1549.71 736.205L1518.5 717.765C1512.12 714.928 1507.15 712.09 1502.19 707.835C1497.22 704.289 1495.1 697.905 1495.1 691.522C1495.1 697.905 1497.22 704.289 1502.19 707.835Z" fill="#8C8C8C"/>
<path d="M1708.58 553.928L1703.61 551.091L1673.12 533.36L1612.83 497.188L1552.54 460.307L1522.76 441.867L1507.86 432.647L1500.06 428.391C1498.64 427.682 1497.22 426.263 1496.51 426.263L1495.8 426.263C1495.1 436.193 1495.1 446.122 1495.1 456.761L1495.1 490.805L1495.1 558.184L1495.8 692.941L1493.68 558.184L1492.26 490.805L1491.55 456.761C1491.55 445.413 1490.84 434.065 1491.55 422.717L1491.55 419.171L1495.1 419.88L1499.35 421.299C1501.48 422.008 1502.19 422.717 1503.61 423.427L1511.41 427.682L1527.01 436.193L1557.51 453.924L1618.5 488.677L1679.5 524.14L1709.29 541.162L1709.29 553.928L1708.58 553.928Z" fill="#8C8C8C"/>
<path d="M1708.58 881.601L1620.64 931.958L1496.52 1002.88L1616.38 928.411L1708.58 872.381L1708.58 881.601Z" fill="#8C8C8C"/>
<path d="M1500.06 1275.23L1507.86 1270.98L1523.47 1262.47L1553.96 1244.74L1614.96 1209.27L1675.95 1173.1C1686.59 1166.72 1697.94 1159.63 1708.58 1153.24L1708.58 1166.01C1699.36 1171.68 1690.14 1176.65 1681.63 1182.32L1620.63 1218.49L1558.93 1253.96C1548.29 1259.63 1538.36 1265.3 1527.72 1270.98L1512.12 1279.49L1504.32 1283.74L1500.06 1285.87L1495.1 1288L1490.13 1290.13L1490.13 1283.74C1491.55 1189.41 1494.39 1095.79 1497.22 1003.59C1498.64 1095.79 1498.64 1186.58 1498.64 1277.36L1500.06 1275.23Z" fill="#8C8C8C"/>
<path d="M1497.93 1515.67L1498.64 1550.42L1499.35 1567.44C1499.35 1573.12 1501.48 1577.37 1505.02 1580.92C1508.57 1584.47 1514.24 1586.59 1519.21 1589.43L1534.1 1597.94L1563.89 1614.96L1624.18 1649.01C1651.84 1665.32 1680.21 1681.63 1707.87 1697.24L1707.87 1710C1678.08 1692.27 1649 1675.25 1619.21 1657.52L1560.35 1621.35L1530.56 1603.62L1515.66 1594.4C1510.7 1591.56 1505.73 1588.72 1500.77 1584.47C1495.8 1580.21 1493.68 1573.12 1493.68 1566.73L1493.68 1549.71L1493.68 1514.96L1493.68 1445.45L1492.97 1307.15L1495.09 1445.45L1497.93 1515.67Z" fill="#8C8C8C"/>
<path d="M1708.58 1424.18L1678.08 1405.74L1617.79 1368.85L1557.51 1332.68L1527.01 1314.95C1517.08 1309.28 1507.15 1302.89 1496.51 1297.93C1495.8 1301.48 1494.39 1305.02 1494.39 1309.28C1494.39 1305.73 1495.8 1301.48 1496.51 1297.93C1507.15 1302.89 1517.08 1309.28 1527.72 1314.95L1558.22 1332.68L1619.21 1368.15L1680.21 1402.9L1709.29 1419.21L1709.29 1424.18L1708.58 1424.18Z" fill="#8C8C8C"/>
<path d="M1708.58 1753.98L1622.05 1807.17L1561.76 1844.05L1531.27 1862.49L1524.17 1866.04L1507.86 1866.04C1509.28 1865.33 1509.99 1864.62 1511.41 1863.91L1527.01 1855.4L1557.51 1837.67L1618.5 1802.21C1648.29 1785.18 1678.08 1768.16 1707.87 1751.85L1707.87 1753.98L1708.58 1753.98Z" fill="#8C8C8C"/>
<path d="M1678.79 1761.07L1708.58 1743.34L1708.58 1748.3L1680.92 1763.91L1621.34 1796.53L1502.9 1862.49L1620.63 1795.11L1678.79 1761.07Z" fill="#8C8C8C"/>
<path d="M1708.58 1713.55C1707.87 1713.55 1707.16 1712.84 1707.16 1712.84L1675.95 1695.82L1614.25 1662.48L1552.54 1628.44L1522.04 1611.42L1506.44 1602.91C1500.77 1600.07 1496.51 1597.23 1492.96 1597.23C1488.71 1597.23 1485.16 1599.36 1479.49 1602.2L1463.89 1610.71L1433.39 1627.73L1371.68 1661.77C1331.97 1684.47 1291.54 1705.04 1252.53 1727.73L1256.08 1730.57C1258.2 1731.99 1261.04 1733.41 1263.88 1735.54L1279.48 1744.76L1311.4 1763.2L1374.52 1800.08L1438.35 1836.25L1470.27 1854.69C1475.94 1857.53 1480.91 1861.07 1486.58 1863.91C1492.26 1866.75 1498.64 1866.04 1504.31 1862.49C1499.35 1866.04 1492.26 1866.75 1486.58 1863.91C1480.91 1861.07 1475.94 1858.24 1470.27 1855.4L1438.35 1837.67L1374.52 1802.21L1309.98 1767.45L1278.06 1749.72L1261.75 1741.21C1258.91 1739.79 1256.08 1738.37 1253.24 1736.25L1246.15 1730.57L1242.6 1728.44L1246.15 1726.32C1256.08 1719.22 1266.01 1713.55 1276.64 1707.88L1307.14 1690.14L1368.14 1654.68L1429.13 1619.93L1459.63 1602.2L1475.23 1593.69C1479.49 1590.85 1486.58 1586.59 1494.38 1587.3C1502.19 1588.01 1508.57 1592.27 1512.82 1594.4L1528.43 1602.91L1558.92 1620.64L1619.92 1655.39L1680.92 1690.85L1709.99 1707.88L1709.99 1713.55L1708.58 1713.55Z" fill="#8C8C8C"/>
<path d="M1467.44 1866.04C1466.73 1865.33 1466.02 1865.33 1465.31 1864.62L1433.39 1846.18L1369.56 1809.3L1305.73 1773.13L1273.81 1754.69C1264.59 1749.72 1254.66 1743.34 1245.44 1739.08C1245.44 1740.5 1244.73 1741.92 1244.73 1744.05C1244.73 1746.17 1244.73 1749.72 1244.73 1752.56L1245.44 1770.29L1246.15 1805.75L1248.28 1866.04L1238.35 1866.04L1238.35 1805.75L1238.35 1770.29L1238.35 1752.56C1238.35 1749.72 1238.35 1746.88 1238.35 1743.34C1239.06 1739.79 1239.77 1736.95 1240.48 1734.83L1241.19 1730.57L1244.73 1731.99C1256.08 1737.66 1266.01 1744.05 1276.65 1750.43L1307.86 1769.58L1370.98 1807.88L1434.1 1845.47L1465.31 1864.62C1466.02 1865.33 1466.73 1865.33 1467.44 1866.04V1866.04Z" fill="#8C8C8C"/>
<path d="M1257.5 1714.97L1375.23 1646.17L1434.1 1612.13L1463.89 1595.1L1478.78 1586.59C1483.75 1583.76 1488.71 1578.08 1489.42 1571.7C1490.84 1525.6 1491.55 1480.92 1492.97 1435.52C1493.68 1390.13 1494.39 1345.45 1494.39 1299.35L1494.39 1296.51L1492.26 1295.09L1489.42 1293.67C1489.42 1293.67 1488.71 1292.96 1487.29 1292.96C1486.58 1292.96 1485.88 1292.96 1485.17 1292.96C1484.46 1292.96 1483.75 1292.96 1483.75 1293.67L1483.04 1293.67L1480.91 1294.38L1476.65 1296.51C1473.82 1297.93 1471.69 1299.35 1468.85 1300.77L1453.96 1309.99L1424.17 1327.72L1363.88 1363.89C1323.46 1388 1283.74 1412.83 1244.02 1436.94L1242.6 1437.65L1242.6 1439.07L1243.31 1580.21L1242.6 1721.35L1257.5 1714.97ZM1257.5 1714.97L1241.89 1722.77L1244.02 1581.63L1247.57 1440.49L1246.15 1443.33C1286.58 1419.92 1327.71 1397.22 1368.14 1373.11L1428.43 1337.65L1458.92 1319.92L1473.82 1310.7C1476.65 1309.28 1478.78 1307.15 1481.62 1306.44L1485.17 1304.31L1487.29 1303.6L1488 1303.6C1487.29 1303.6 1487.29 1303.6 1486.58 1304.31C1485.87 1304.31 1485.17 1304.31 1485.17 1304.31C1484.46 1304.31 1484.46 1304.31 1485.17 1304.31L1484.46 1304.31L1485.87 1305.02L1483.75 1300.77C1484.46 1345.45 1483.75 1391.55 1483.75 1436.23C1483.75 1481.62 1484.46 1527.02 1484.46 1571.7C1483.75 1581.63 1470.98 1585.88 1461.76 1592.27L1432.68 1610L1374.52 1645.46L1257.5 1714.97Z" fill="#8C8C8C"/>
<path d="M1251.82 1424.18L1369.56 1358.22L1428.43 1325.59L1458.22 1309.28L1473.11 1301.48L1487.3 1292.26L1490.84 1290.13L1487.3 1288L1365.3 1217.08L1304.31 1182.32L1273.81 1164.59L1258.21 1156.08C1253.24 1153.24 1247.57 1148.99 1239.77 1148.99C1231.26 1148.28 1224.87 1153.24 1220.62 1155.37L1205.01 1163.88L1174.52 1181.61L1113.52 1217.08L1052.53 1252.54L1022.03 1270.27C1012.1 1276.65 1001.46 1281.62 991.531 1288.71L987.984 1290.84L990.822 1293.67C1000.75 1301.48 1012.1 1307.15 1022.74 1312.82L1055.36 1330.55L1120.61 1366.02L1185.16 1402.19L1217.78 1419.92C1223.46 1422.76 1228.42 1426.3 1234.8 1427.72C1240.48 1429.14 1246.15 1427.01 1251.82 1424.18ZM1251.82 1424.18C1246.86 1427.01 1240.48 1429.14 1234.09 1427.72C1227.71 1426.3 1222.75 1422.76 1217.78 1419.92L1185.86 1401.48L1121.32 1364.6L1057.49 1327.01L1025.57 1308.57C1014.94 1302.18 1003.59 1296.51 995.077 1288.71L995.077 1293.67C1004.3 1287.29 1014.94 1281.62 1025.57 1275.94L1056.78 1258.92L1118.49 1224.88L1180.19 1190.12L1210.69 1173.1L1226.29 1164.59C1231.97 1161.75 1235.51 1158.92 1239.77 1159.63C1244.02 1159.63 1248.28 1162.46 1253.24 1165.3L1268.85 1173.81L1300.05 1190.83L1361.76 1224.88L1485.88 1292.26L1485.88 1288L1471.69 1297.22L1457.51 1305.73L1428.43 1322.75L1370.27 1356.8L1251.82 1424.18Z" fill="#8C8C8C"/>
<path d="M988.695 691.522C988.695 697.906 990.114 704.289 995.079 708.544C1000.04 712.8 1005.72 714.928 1010.68 718.474L1042.6 737.623L1105.72 775.214L1168.84 813.513L1200.05 832.663C1210.69 839.046 1220.62 845.429 1231.97 851.103L1236.22 853.231L1236.22 848.976C1236.93 843.302 1237.64 836.918 1237.64 831.244L1237.64 813.513L1237.64 778.051L1237.64 707.835L1236.93 637.619L1236.93 602.157L1236.93 584.426C1236.93 578.752 1237.64 571.659 1233.39 564.567C1231.26 561.021 1228.42 558.184 1225.58 556.765L1217.78 551.8L1202.18 543.289L1171.68 525.558L1110.69 490.096L1048.98 455.343L1018.48 437.611C1007.85 431.937 998.625 425.554 987.277 420.589L983.731 419.171L983.731 422.717C983.021 434.065 983.731 445.413 983.731 456.761L984.44 490.096L985.858 557.474L988.695 691.522ZM988.695 691.522L987.986 556.765L987.986 489.387L987.986 456.052C987.986 444.704 987.986 433.356 988.695 422.717L985.149 424.845C995.788 429.81 1005.72 436.193 1015.65 442.576L1046.14 461.017L1106.43 497.898L1166.72 534.069L1197.21 551.8L1212.11 561.021L1219.2 565.276C1221.33 566.695 1222.75 568.113 1223.46 569.532C1225.58 573.078 1225.58 578.043 1225.58 583.717L1225.58 601.448L1226.29 636.91L1227.71 707.126L1229.13 777.341L1229.84 812.804L1230.55 830.535C1230.55 836.209 1229.84 841.883 1229.84 847.557L1234.1 845.429C1223.46 840.465 1212.82 834.081 1202.18 827.698L1170.26 809.258L1106.43 773.086L1042.6 736.205L1010.68 717.765C1005.72 714.218 1000.04 712.091 995.079 707.835C990.114 704.289 988.695 697.196 988.695 691.522Z" fill="#8C8C8C"/>
<path d="M1234.09 858.905C1223.45 863.16 1212.81 869.544 1202.88 875.218L1172.38 892.949L1111.39 927.702L1050.39 963.164L1019.9 980.896L1004.29 989.407C999.327 992.244 992.944 995.081 989.398 1001.46C985.142 1007.85 985.852 1015.65 985.852 1020.61L985.852 1038.34L985.142 1073.81L984.433 1144.02L983.724 1214.24L983.015 1249.7C983.015 1261.76 982.305 1273.11 983.724 1285.16L984.433 1292.96L991.526 1290.13C1002.87 1285.16 1012.8 1278.78 1022.73 1273.11L1053.23 1255.37L1113.52 1219.2L1173.8 1183.03L1204.3 1164.59L1219.19 1155.37C1223.45 1152.53 1230.54 1149.7 1234.09 1142.6C1238.34 1135.51 1236.93 1128.42 1236.93 1123.45L1236.93 1105.72L1236.93 1070.26L1236.93 1000.05L1236.22 929.83L1236.22 894.367C1235.51 883.019 1235.51 870.962 1234.09 858.905ZM1234.09 858.905C1234.8 870.962 1234.09 882.31 1234.09 894.367L1233.38 929.83L1231.25 1000.05L1229.83 1070.26L1229.12 1105.72L1229.12 1123.45C1229.12 1129.84 1229.12 1134.8 1227 1138.35C1224.87 1141.9 1219.9 1144.73 1214.94 1147.57L1199.34 1156.08L1168.84 1173.81L1107.84 1209.27L1046.85 1244.74L1016.35 1262.47C1006.42 1268.14 995.781 1274.52 985.852 1278.78L993.653 1283.74C992.235 1272.4 992.944 1261.05 992.944 1248.99L992.944 1213.53L992.944 1143.31L992.944 1073.1L992.944 1037.64L992.944 1019.9C992.944 1013.52 992.235 1008.56 995.072 1005.01C997.2 1001.46 1002.16 998.627 1007.13 995.79L1022.02 986.57L1052.52 968.129L1112.81 931.248L1173.09 894.367L1202.88 875.927C1213.52 870.253 1223.45 864.579 1234.09 858.905Z" fill="#8C8C8C"/>
<path d="M988.691 1312.11L989.4 1449L989.4 1517.8L989.4 1551.84C989.4 1557.51 989.4 1563.19 989.4 1568.86C989.4 1575.25 992.947 1581.63 997.911 1585.18L1114.94 1656.81L1173.8 1692.27L1203.59 1710C1213.52 1715.68 1223.45 1722.06 1234.09 1727.03L1241.18 1731.28L1241.89 1722.77L1242.6 1705.04L1242.6 1687.31L1241.89 1651.84L1240.47 1581.63L1239.06 1511.41L1238.35 1475.95L1237.64 1458.22C1237.64 1452.55 1236.93 1445.45 1233.38 1439.78C1229.84 1434.11 1224.16 1430.56 1219.2 1427.72L1203.59 1419.21L1173.1 1401.48L1112.1 1366.73L990.109 1295.8L988.691 1312.11ZM988.691 1312.11L990.109 1295.8L1111.39 1368.15L1171.68 1405.03L1201.47 1423.47L1216.36 1432.69C1221.32 1435.52 1226.29 1438.36 1228.42 1443.33C1231.25 1447.58 1231.25 1453.26 1231.25 1458.93L1231.25 1476.66L1231.25 1512.12L1231.25 1582.34L1231.25 1652.55L1231.25 1688.02L1231.25 1705.75L1230.54 1722.77L1238.35 1717.8C1228.42 1713.55 1218.49 1707.17 1208.56 1701.49L1178.77 1684.47L1119.19 1649.72L1000.04 1581.63C990.819 1575.96 992.946 1563.19 992.237 1551.84L991.528 1517.8L990.109 1449L988.691 1312.11Z" fill="#8C8C8C"/>
<path d="M1230.55 1866.04C1231.26 1824.19 1231.26 1782.35 1232.67 1740.5L1117.07 1807.17L1012.81 1866.04L1011.39 1866.04L1112.81 1802.91L1234.8 1728.44L1241.19 1724.19L1241.19 1731.99C1241.19 1776.67 1241.19 1820.65 1240.48 1865.33L1230.55 1865.33L1230.55 1866.04Z" fill="#8C8C8C"/>
<path d="M996.494 1863.2L1114.23 1797.24L1173.81 1764.62L1203.59 1748.3C1213.52 1742.63 1223.45 1738.37 1232.67 1731.28L1235.51 1729.15L1232.67 1727.03C1223.45 1719.22 1212.82 1713.55 1202.89 1707.88L1172.39 1690.14L1111.39 1654.68L1050.4 1619.93L1019.9 1602.2L1004.3 1593.69C999.331 1590.85 993.657 1586.59 985.146 1586.59C980.891 1586.59 977.345 1588.01 974.508 1589.43C971.671 1590.85 969.543 1592.27 966.706 1593.69L951.102 1602.2L920.605 1619.93L859.609 1655.39L798.614 1690.85L768.116 1708.58C758.187 1714.97 747.548 1719.93 738.328 1727.73L734.782 1730.57L738.328 1732.7C759.605 1744.76 781.592 1756.1 802.87 1768.16L867.411 1802.91L931.243 1838.38L963.16 1856.11C968.834 1858.95 973.798 1862.49 979.472 1864.62C985.146 1866.75 991.53 1866.75 996.494 1863.2ZM996.494 1863.2C991.53 1866.75 984.437 1866.75 978.763 1863.91C973.089 1861.07 968.125 1858.24 962.451 1855.4L930.534 1836.96L866.702 1800.79L803.579 1763.91C782.301 1751.85 761.024 1739.79 740.456 1727.03L740.456 1731.99C749.676 1724.9 760.315 1719.93 770.244 1714.26L801.451 1697.24L863.156 1663.19L924.86 1628.44L955.358 1611.42L970.961 1602.91L978.054 1598.65C980.182 1597.94 982.309 1597.23 983.728 1597.23C987.274 1597.23 992.239 1599.36 997.204 1602.91L1012.81 1611.42L1044.01 1628.44L1105.72 1662.48L1167.42 1696.53L1198.63 1713.55C1209.27 1719.22 1219.91 1724.19 1228.42 1731.28L1228.42 1727.03C1219.91 1734.12 1209.27 1739.08 1200.05 1744.76L1170.97 1761.78L1112.81 1795.82L996.494 1863.2Z" fill="#8C8C8C"/>
<path d="M963.872 1866.04C963.163 1865.33 961.745 1864.62 961.035 1863.91L929.119 1845.47L865.287 1808.59L801.454 1772.42L769.538 1753.98C759.609 1748.3 750.388 1742.63 740.459 1738.37C739.75 1739.79 739.75 1741.92 739.75 1742.63L739.75 1751.14L740.459 1768.87L741.168 1804.33L742.587 1866.04L732.657 1866.04L732.657 1804.33L732.657 1768.87L732.657 1751.14L732.657 1741.92C733.366 1738.37 734.785 1735.54 734.785 1732.7L735.494 1729.15L739.041 1730.57C750.389 1736.25 760.318 1742.63 770.957 1749.01L802.164 1768.16L865.287 1806.46L929.119 1844.76L960.326 1863.91C961.745 1864.62 962.454 1865.33 963.872 1866.04V1866.04Z" fill="#8C8C8C"/>
<path d="M746.841 1717.8L865.995 1648.3L926.281 1613.55L956.069 1596.52L970.963 1588.01C973.091 1586.59 975.928 1585.18 978.765 1582.34C980.893 1580.21 983.021 1576.66 983.021 1573.12C984.439 1526.31 985.148 1480.92 986.567 1434.11L987.276 1364.6L987.985 1329.85L987.985 1312.82L987.985 1304.31C987.985 1301.48 987.276 1297.93 986.567 1295.09L985.858 1287.29L978.765 1290.84C973.8 1293.67 968.126 1295.8 963.161 1299.35L948.267 1308.57L917.77 1326.3L857.484 1362.47L797.197 1399.35L767.409 1417.79L752.515 1427.01C747.55 1429.85 741.876 1432.69 738.33 1439.07C734.784 1445.45 735.493 1452.55 735.493 1457.51L735.493 1475.24L735.493 1510.7L736.202 1580.92C736.202 1627.73 735.493 1674.54 736.202 1721.35C739.748 1720.64 743.295 1719.93 746.841 1717.8ZM746.841 1717.8C743.295 1719.93 739.748 1719.93 736.202 1721.35C735.493 1674.54 736.911 1627.73 737.621 1580.92L739.039 1510.7L739.748 1475.24L740.458 1457.51C740.458 1451.13 740.458 1446.16 743.295 1441.91C746.131 1437.65 751.096 1435.52 756.061 1431.98L771.664 1423.47L802.162 1405.74L863.158 1370.98L924.153 1335.52L954.651 1317.79L969.545 1308.57L985.148 1300.77L977.346 1296.51C977.346 1299.35 978.056 1301.48 978.765 1304.31L978.765 1312.82L978.765 1329.85L978.765 1364.6L978.765 1434.11L979.474 1571.7C978.765 1576.66 975.219 1580.21 970.254 1583.05L955.36 1592.27L925.571 1610L866.704 1646.17L746.841 1717.8Z" fill="#8C8C8C"/>
<path d="M482.29 1314.24L482.999 1451.13L482.999 1519.22L482.999 1553.26C482.999 1558.93 482.29 1564.61 483.709 1570.99C484.418 1577.37 487.964 1583.05 492.929 1587.3C531.937 1612.13 570.946 1634.82 609.955 1658.94L727.69 1729.15L735.492 1734.12L736.201 1724.9C736.91 1719.22 736.91 1712.84 737.619 1707.17L737.619 1689.43L736.91 1653.97L735.492 1583.05L734.073 1512.12L733.364 1476.66L732.655 1458.93C732.655 1453.26 732.655 1446.16 729.108 1440.49C725.562 1434.11 719.179 1431.27 714.214 1428.43L698.611 1419.92L668.113 1402.19L606.408 1367.44L545.413 1331.97L514.915 1314.24C504.986 1308.57 495.057 1302.19 483.709 1297.22L482.29 1314.24ZM482.29 1314.24L482.999 1297.22C493.638 1302.19 503.567 1308.57 513.497 1314.24L543.995 1331.97L604.99 1368.15L665.276 1405.03L695.774 1423.47L710.668 1432.69C715.633 1435.52 720.597 1438.36 722.725 1442.62C724.853 1446.87 724.853 1452.55 724.853 1458.22L724.853 1475.95L724.853 1511.41L724.853 1582.34L724.853 1653.26L724.853 1688.73L724.853 1706.46C724.853 1712.13 724.144 1717.8 724.144 1723.48L732.655 1719.22L614.21 1650.43C574.492 1627.73 534.774 1605.74 495.766 1583.05C491.51 1580.21 488.673 1575.96 487.964 1570.28C487.255 1565.32 487.255 1558.93 487.255 1553.97L486.546 1519.92L485.127 1451.84L482.29 1314.24Z" fill="#8C8C8C"/>
<path d="M724.85 1866.04C725.559 1824.9 725.559 1783.76 726.978 1742.63L725.559 1743.34C722.722 1744.76 720.594 1746.17 717.757 1746.88L702.154 1755.39L670.947 1772.42L609.242 1807.17L547.538 1841.92C534.062 1849.73 520.586 1857.53 507.111 1866.04L504.983 1866.04C518.459 1856.82 531.934 1848.31 546.119 1839.8L606.405 1802.21L667.401 1766.03L697.898 1748.3L713.502 1739.79C716.339 1738.37 718.467 1736.95 721.304 1735.54L725.559 1733.41L730.524 1731.28L735.489 1729.15L735.489 1735.54C735.489 1778.8 735.489 1822.06 734.779 1865.33L724.85 1865.33L724.85 1866.04Z" fill="#8C8C8C"/>
<path d="M495.056 1860.36L612.082 1795.11L670.949 1763.2C690.099 1752.56 710.667 1742.63 729.107 1730.57L732.654 1728.44L729.107 1726.32C724.143 1722.77 719.178 1719.22 714.213 1716.39L698.61 1707.17L668.112 1689.43L607.117 1653.97L545.412 1619.22L514.915 1601.49L499.311 1592.98C494.346 1590.14 487.963 1585.88 480.161 1585.88C471.65 1585.88 465.976 1590.14 461.012 1592.98L445.408 1601.49L414.911 1619.22L353.915 1654.68L292.92 1690.14L262.422 1707.88C252.493 1713.55 241.854 1719.22 232.634 1727.03L229.087 1729.86L233.343 1731.99L363.845 1802.91L429.096 1839.09L461.721 1856.82C467.395 1859.65 472.36 1863.2 478.743 1864.62C483.708 1866.04 489.382 1863.91 495.056 1860.36ZM495.056 1860.36C490.091 1863.2 483.708 1865.33 477.324 1864.62C470.941 1863.91 465.976 1859.65 460.302 1856.82L428.386 1838.38L363.845 1801.5L235.471 1726.32L235.471 1731.28C244.691 1724.19 255.33 1719.22 265.259 1713.55L296.466 1696.53L358.171 1662.48L419.875 1627.73L451.082 1610.71L466.686 1602.2C472.36 1599.36 475.906 1596.52 480.161 1596.52C484.417 1596.52 488.672 1598.65 493.637 1601.49L509.24 1610L540.448 1627.02L602.152 1661.06L664.566 1695.11L695.773 1712.13L711.376 1720.64C716.341 1723.48 721.306 1727.03 726.271 1729.86L726.271 1725.61C707.83 1737.66 687.971 1748.3 668.821 1760.36L611.372 1793.69L495.056 1860.36Z" fill="#8C8C8C"/>
<path d="M456.755 1866.04C456.046 1865.33 455.337 1865.33 454.627 1864.62L422.711 1846.18L358.879 1809.3L295.046 1773.13L263.13 1754.69C253.91 1749.72 243.98 1744.05 234.76 1739.08L234.051 1743.34C233.342 1746.17 234.051 1748.3 234.051 1751.85L234.76 1769.58L235.47 1805.04L236.888 1866.04L226.958 1866.04L226.958 1805.04L226.958 1769.58L226.958 1751.85C226.958 1749.01 226.959 1745.47 227.668 1742.63L229.086 1734.12L229.795 1729.86L233.342 1731.99C244.69 1737.66 254.619 1744.05 265.258 1750.43L296.465 1769.58L359.588 1807.88L422.711 1845.47L454.627 1864.62C455.337 1865.33 456.755 1866.04 457.464 1866.04L456.755 1866.04V1866.04Z" fill="#8C8C8C"/>
<path d="M474.489 1579.5C477.326 1487.3 479.454 1393.68 481.581 1299.35L481.581 1292.97L476.617 1295.09L471.652 1297.22L467.396 1299.35C464.559 1300.77 461.722 1302.19 459.595 1303.6L443.991 1312.11C433.353 1317.79 423.423 1323.46 412.784 1329.14L351.08 1363.89L290.084 1400.06C269.516 1412.12 249.657 1424.18 229.798 1437.65L227.671 1439.07L227.671 1441.91L226.961 1583.05C226.961 1629.86 226.252 1677.38 226.252 1724.19L226.252 1731.99L232.635 1727.73L354.626 1653.97L474.489 1579.5ZM474.489 1579.5L350.37 1649.72L227.671 1720.64L234.054 1724.19C235.472 1677.38 235.472 1629.86 236.181 1583.05L237.6 1441.91L235.472 1446.16C254.622 1433.4 274.481 1420.63 295.049 1408.57L356.045 1372.4L417.04 1336.94L447.538 1319.92L463.141 1311.41C465.978 1309.99 468.106 1308.57 470.943 1307.15L474.489 1305.02L477.326 1303.6L472.361 1299.35C473.07 1392.26 473.78 1485.17 474.489 1579.5Z" fill="#8C8C8C"/>
<path d="M219.158 1866.03C219.867 1824.18 219.867 1782.33 221.286 1740.49L105.678 1807.16L1.41858 1866.03L0 1866.03L101.422 1803.61L223.413 1729.14L229.796 1724.88L229.796 1732.69C229.796 1777.37 229.796 1821.34 229.087 1866.03L219.158 1866.03Z" fill="#8C8C8C"/>
<path d="M1225.58 281.577L1107.14 347.537L1047.56 380.162L1017.77 396.475C1007.84 402.149 997.913 407.114 988.692 413.497L985.855 415.625L988.692 417.753C993.657 421.299 998.622 424.845 1003.59 427.682L1019.19 436.902L1049.69 454.634L1110.68 490.096L1172.39 524.849L1202.89 542.58L1218.49 551.091C1223.45 553.928 1229.13 558.184 1237.64 558.184C1241.89 558.184 1245.44 556.765 1248.28 555.347C1251.82 553.928 1253.95 552.51 1256.08 551.091L1271.68 542.58L1302.18 524.849L1363.18 489.387L1424.17 453.924L1454.67 436.193C1464.6 430.519 1475.24 424.845 1484.46 417.043L1488 414.206L1483.75 412.079L1354.66 341.863L1290.12 306.401L1258.21 288.669C1252.53 285.832 1247.57 282.286 1241.89 280.158C1237.64 277.321 1230.55 278.74 1225.58 281.577ZM1225.58 281.577C1230.55 278.031 1237.64 277.321 1243.31 280.158C1248.99 282.995 1253.95 285.832 1259.63 288.669L1291.54 307.11L1355.37 343.282L1419.21 380.162L1482.33 417.043L1482.33 412.079C1473.11 418.462 1462.47 424.136 1451.83 429.81L1420.62 446.832L1358.92 480.876L1297.22 515.629L1266.72 532.651L1251.11 541.162L1244.02 545.417C1241.89 546.127 1239.77 546.836 1238.35 546.836C1234.8 546.836 1229.84 544.708 1224.87 541.162L1209.27 532.651L1178.06 515.629L1116.36 481.585L1053.94 448.25L1022.74 431.228L1007.13 422.717C1002.17 419.88 997.203 416.334 992.239 413.497L992.239 417.753C1000.75 410.66 1010.68 405.695 1020.61 400.021L1049.69 382.999L1107.85 348.956L1225.58 281.577Z" fill="#8C8C8C"/>
<path d="M1708.58 0.714179L1609.99 59.5818L1551.12 95.7534L1522.04 113.485L1507.15 122.705C1502.19 125.542 1497.93 128.379 1497.22 133.344C1496.51 137.599 1497.22 144.692 1497.22 149.656L1497.22 166.678L1497.22 201.432L1497.93 270.229L1497.93 339.026L1497.93 373.779L1497.93 390.801C1497.93 393.638 1497.93 396.475 1497.93 400.021L1498.64 399.312L1506.44 395.766L1522.04 387.255L1553.25 370.233L1614.96 335.479L1675.95 300.017C1687.3 293.634 1698.65 286.541 1710 280.158L1710 288.669C1700.07 295.052 1690.14 301.435 1680.21 307.109C1660.35 319.876 1640.49 331.933 1619.92 343.99L1558.93 379.453L1527.72 397.184L1512.12 405.695C1509.28 407.114 1507.15 408.532 1504.31 409.951L1500.06 412.078C1497.93 412.788 1496.51 413.497 1494.38 414.206L1489.42 415.625L1488 409.241C1486.58 402.149 1488 397.184 1487.29 391.51L1487.29 374.488L1488 339.735L1488.71 270.938L1490.13 202.141L1490.84 167.388L1491.55 150.366C1492.26 144.692 1491.55 139.727 1492.26 132.634C1493.68 125.542 1500.06 121.286 1505.02 119.159L1519.92 110.648L1549.71 93.6258L1609.28 59.5818L1708.58 0.714179Z" fill="#8C8C8C"/>
<path d="M1708.58 295.052L1611.41 351.083L1554.67 384.418L1501.48 416.334C1505.03 419.171 1508.57 422.008 1512.83 424.135L1528.43 432.646L1559.64 449.668L1622.05 483.712L1683.76 517.756L1710 531.941L1710 543.998L1709.29 543.998L1678.79 526.267L1617.09 490.805L1556.09 455.342L1525.59 437.611L1509.99 428.391C1505.03 425.554 1500.06 421.298 1495.1 417.752L1491.55 415.624L1495.1 413.497L1610.7 349.664L1708.58 295.052Z" fill="#8C8C8C"/>
</g>
</svg>
