<svg width="1710" height="1868" viewBox="0 0 1710 1868" fill="none" xmlns="http://www.w3.org/2000/svg">
<g opacity="0.2">
<path d="M1.42237 407.108C12.7703 401.434 23.4093 395.051 34.0481 388.668C28.3741 384.412 21.9906 380.866 15.6073 377.32L1.42236 368.809L1.42236 365.263L17.7354 373.774C24.8279 378.029 32.6295 381.575 39.722 386.54L41.8496 387.959L39.722 389.377C32.6295 393.633 26.2461 397.888 19.1536 402.144L2.13187 412.073L2.13187 407.108L1.42237 407.108Z" fill="#4A4A4A"/>
<path d="M214.196 692.227L46.1046 788.685L44.686 789.394L44.686 790.812C43.9768 823.438 43.9767 855.354 43.2674 887.979L41.8489 985.146L41.8489 992.239L47.5228 988.693C75.8927 972.38 102.844 956.067 130.505 939.045L172.351 914.222L192.919 902.164L203.557 895.781C207.104 893.653 211.359 890.816 213.487 886.561C216.324 882.305 216.324 877.341 216.324 873.085L216.324 861.028L216.324 836.913L216.324 788.685L215.615 740.456C215.615 724.143 215.615 707.83 214.196 692.227ZM214.196 692.227C214.196 724.143 212.778 756.768 212.068 788.685L211.359 836.913L210.65 861.028L210.65 873.085C210.65 877.341 209.941 880.178 208.522 883.015C207.104 885.852 204.267 887.979 200.721 889.398L190.082 895.781L169.514 907.838L127.668 931.953C100.007 948.266 72.3465 964.578 43.9765 980.891L49.6509 984.437L50.3599 887.27C50.3599 854.645 51.0692 822.728 50.3599 790.103L48.9413 792.94L214.196 692.227Z" fill="#4A4A4A"/>
<path d="M214.901 673.786L214.192 580.165L214.192 533.354L214.192 509.949C214.192 505.694 214.192 502.147 214.192 497.892C214.192 493.637 212.064 488.672 208.518 486.544L128.373 437.606L87.9457 413.491L68.0869 401.434L58.1572 395.76L53.1928 392.923C51.0651 392.214 49.6462 390.795 47.5185 390.086L43.2632 387.959L42.5541 392.923C42.5541 394.342 41.8448 396.469 41.1355 399.306C41.1355 400.016 41.1355 400.725 41.1355 401.434L41.1355 402.853L41.1355 405.69L41.1355 417.747L41.8446 441.861L42.5541 490.09L43.2632 538.319L43.9723 562.434L43.9723 574.491L43.9723 580.874C43.9723 583.002 44.6819 585.839 46.1004 587.257C48.9373 591.513 53.1928 592.931 56.7391 595.059L67.3778 600.733L88.6553 612.79L130.501 636.905L172.346 661.019L192.914 673.076C200.007 676.623 206.39 681.587 214.192 684.424L214.901 673.786ZM214.901 673.786L214.192 684.424C206.39 681.587 200.007 676.623 192.914 673.076L172.346 661.019L131.21 636.195L90.0734 611.372L69.5055 598.605L58.8667 592.222C55.3205 590.094 51.7742 588.676 50.3557 585.839C48.9372 583.002 48.9371 579.456 48.9371 575.2L48.9371 563.143L48.9371 539.028L48.9371 490.8L48.9371 442.571L48.9371 418.456L48.9371 406.399L48.9371 403.562L48.9371 402.143C48.9371 401.434 48.9371 401.434 48.9371 401.434C48.9371 400.016 49.6464 397.888 50.3557 395.76L44.6817 398.597C46.1003 399.306 48.2281 400.016 49.6466 400.725L54.611 403.562L64.5406 409.236L85.109 421.293L125.536 444.698L206.39 489.381C212.774 492.927 210.646 502.147 211.355 509.949L212.064 533.354L213.483 580.165L214.901 673.786Z" fill="#4A4A4A"/>
<path d="M171.64 711.376L191.5 700.028L201.429 694.354L208.521 689.389C205.684 687.97 203.557 685.843 200.72 684.424L190.081 678.75L168.804 667.402L126.249 643.997L83.6939 620.592L62.4164 608.535L51.7777 602.861C48.2314 600.733 45.3945 599.314 42.5575 599.314C41.1391 599.314 39.7203 600.024 38.3018 600.733L33.337 603.57L22.6982 609.244L1.42079 621.301L0.711718 621.301L0.711717 612.081L18.4429 602.151L29.0817 596.477C31.2094 595.768 32.6278 594.35 34.7556 593.64C36.8833 592.931 39.7206 591.513 42.5575 591.513C48.2315 591.513 52.4869 594.35 55.3239 596.477L65.9627 602.151L87.2401 614.209L129.086 638.323L170.931 662.438L191.5 674.495L202.138 680.878C205.685 683.006 209.231 685.843 212.068 687.97L214.195 689.389L212.068 690.807L202.138 696.481L192.209 702.155L172.35 712.794L131.923 734.781L51.7777 779.464L131.214 734.072L171.64 711.376Z" fill="#4A4A4A"/>
<path d="M1.41938 761.024L7.09372 763.861L29.0802 776.627C32.6265 778.755 36.1726 780.883 40.428 782.301C44.6835 783.72 48.9391 782.301 52.4854 780.174C48.9391 782.301 44.6835 783.72 40.428 783.011C36.1726 782.301 32.6265 779.464 29.0802 777.337L7.09372 765.279L2.12889 762.442L2.12889 761.024L1.41938 761.024Z" fill="#4A4A4A"/>
<path d="M25.5337 781.591L3.54717 768.825L1.41908 767.407L1.41908 766.697L3.54717 768.116L25.5337 781.591C29.0799 783.719 33.3354 785.138 36.1724 787.975C39.0094 790.812 40.4277 795.067 40.4277 799.323C40.4277 795.067 39.0094 790.812 36.1724 787.975C33.3354 785.138 29.0799 783.719 25.5337 781.591Z" fill="#4A4A4A"/>
<path d="M1.41874 958.903L21.278 970.961C27.6613 974.507 33.3351 978.762 39.7183 981.599C39.7183 978.762 40.4274 975.925 40.4274 973.088L40.4274 961.74L40.4274 938.335L40.4274 892.234L39.7183 800.032L41.1369 892.234L43.2646 938.335L43.9736 961.74L43.9736 973.088C43.9736 976.635 43.2646 980.89 43.2646 984.436L43.2646 987.273L40.4274 985.855C32.6257 982.309 26.2424 978.053 19.15 974.507L1.41874 964.577L1.41874 958.903Z" fill="#4A4A4A"/>
<path d="M1.41874 606.407L16.3132 597.187L26.9519 590.804C30.4982 588.676 33.335 586.548 34.7535 583.711C36.172 580.874 36.8813 577.328 36.1721 573.782L36.1721 561.724L36.1721 537.61L36.1721 489.381L36.1721 441.152L36.1721 417.038L36.1721 404.98L36.1721 399.306C34.7536 400.016 32.6257 400.725 31.2072 402.143L20.5685 408.527L0.709655 419.875L0.709654 411.364L16.3132 402.143C23.4057 397.888 29.7889 393.632 37.5907 390.086L43.2646 387.958L43.2646 393.632L43.9736 405.69L43.9736 417.747L43.9736 441.861L42.5555 538.319L42.5555 562.434L42.5555 574.491C42.5555 578.746 42.5553 583.711 39.7183 587.967C36.8813 592.222 32.6257 595.059 29.7887 596.478L19.15 602.152L1.41874 612.79L1.41874 606.407Z" fill="#4A4A4A"/>
<path d="M38.3034 234.052L37.5943 210.646C36.885 202.845 38.3035 194.334 32.6295 190.078C22.7 184.404 12.0613 178.021 2.13187 172.347L2.13187 166.673C13.4798 173.056 24.1187 180.149 35.4666 187.241C39.0129 190.078 41.1405 194.334 41.1405 198.589C41.1405 202.845 41.1405 206.391 41.1405 210.646L41.1405 234.052L41.1405 280.862L41.8496 374.483L40.431 280.862L38.3034 234.052Z" fill="#4A4A4A"/>
<path d="M1.41562 363.844L19.1468 374.482C26.2393 378.738 32.6226 382.993 40.4243 386.54L41.1338 375.192L40.4243 386.54C32.6226 383.703 26.2393 378.738 19.1468 375.192L2.12513 365.262L2.12513 363.844L1.41562 363.844Z" fill="#4A4A4A"/>
<path d="M1.41895 16.3122L26.9521 2.1272L1.41895 17.0214L1.41895 16.3122Z" fill="#4A4A4A"/>
<path d="M1.42081 158.871L21.9892 170.219L32.6279 175.893C36.1741 178.021 39.0111 179.439 41.8481 179.439C44.685 179.439 47.522 178.021 51.0682 176.602L61.7069 170.928L82.9844 158.871L124.83 135.466C151.782 119.862 179.442 105.677 206.394 90.074L204.266 87.9463C202.848 86.5278 200.72 85.8185 199.301 85.1093L188.663 78.726L166.676 65.9596L122.703 40.4266L78.729 15.6029L57.4516 2.12721L58.1607 2.12721L79.4381 14.1844L123.412 39.0081L168.094 63.1226L190.081 75.1798L201.429 81.563C203.557 82.9815 204.975 83.6908 207.103 85.1093L212.068 89.3648L214.195 91.4925L212.068 92.911C198.592 101.422 184.407 109.224 170.931 117.735L129.086 141.849L87.2401 165.964L66.6718 178.021L56.033 183.695C52.4868 185.823 47.5223 187.95 42.5576 187.95C37.5928 187.95 33.337 185.823 29.7907 183.695L19.152 178.021L2.13031 168.801L2.13031 158.871L1.42081 158.871Z" fill="#4A4A4A"/>
<path d="M69.5122 2.12721L82.2786 9.92894L125.543 35.4619L169.516 60.2856L191.503 73.052L202.142 79.4353C204.979 80.8538 207.815 82.9815 210.652 83.6908C210.652 76.5983 210.652 69.5058 210.652 62.4133L209.943 38.2989L209.234 2.83645L215.617 2.83645L215.617 38.2989L215.617 62.4133C215.617 70.215 215.617 78.726 214.908 86.5277L214.908 89.3647L212.071 88.6555C207.815 87.237 204.269 85.1093 200.723 82.9815L190.084 76.5983L168.807 63.8318L125.543 37.5896L82.2786 12.0567L68.8027 4.25496L69.5122 4.25496L69.5122 2.12721Z" fill="#4A4A4A"/>
<path d="M212.774 92.9111L129.083 140.431L43.9729 189.369L42.5547 190.078L42.5547 191.497C41.8455 223.413 41.8454 256.038 41.1361 287.954L39.7176 384.412L39.7176 390.086L44.6824 387.958C46.1009 387.249 48.2285 386.54 50.3563 385.831C53.1933 384.412 54.6117 383.703 56.0302 382.284L66.6689 375.901L87.2373 363.135L129.083 338.311L170.929 313.487L191.497 300.721L202.136 294.338L207.1 290.791C209.228 289.373 211.356 287.954 212.065 285.827C213.483 283.699 213.483 280.862 213.483 278.734L213.483 272.351L213.483 260.294L213.483 236.179L213.483 187.95L212.774 139.722L212.774 115.607L212.774 103.55L212.774 97.1666C213.484 96.4574 213.484 95.0389 212.774 92.9111ZM212.774 92.9111C212.774 95.0389 213.483 97.1666 213.483 98.5851L213.483 104.968L212.774 117.026L212.065 141.14L210.646 189.369L209.937 237.598L209.228 261.712L209.228 273.769L209.228 280.153C209.228 281.571 209.228 283.699 208.519 284.408C207.1 286.536 203.554 288.664 200.008 290.791L189.369 297.175L168.801 309.232L126.955 334.056L85.1096 358.879L64.5413 370.937L53.9025 377.32C52.484 378.029 50.3562 379.447 48.9377 380.157L43.2638 382.284L48.2286 385.831L48.9377 289.373C48.9377 257.457 49.6469 224.831 48.9377 192.915L47.5191 195.752L212.774 92.9111Z" fill="#4A4A4A"/>
<path d="M207.811 297.884L126.956 343.276L86.5289 365.262L65.961 376.61L56.0313 382.284L46.1021 388.668L43.2649 390.086L46.1021 391.505L129.793 440.443L171.639 464.557L192.916 476.614L203.555 482.288C207.101 484.416 211.357 486.544 216.322 486.544C221.286 486.544 226.251 484.416 229.797 482.288L240.436 476.614L261.713 464.557L303.559 440.443L345.405 416.328L365.973 404.271C373.065 400.016 380.158 396.469 386.541 391.505L388.669 390.086L386.541 387.958C379.449 382.284 372.356 378.738 364.554 375.192L342.568 363.135L297.885 339.02L253.912 314.197L231.925 302.139C228.379 300.012 224.833 297.884 220.577 296.465C215.612 295.047 211.357 295.756 207.811 297.884ZM207.811 297.884C211.357 295.756 215.612 294.338 219.868 295.756C224.123 297.175 227.669 299.302 231.216 301.43L253.202 314.197L297.176 339.02L341.149 364.553L363.136 377.32C370.228 381.575 378.03 385.831 384.413 390.795L384.413 387.249C356.753 403.562 328.383 418.456 300.013 434.059L258.167 457.465L236.89 469.522L226.251 475.196C222.705 477.324 219.868 478.742 217.031 478.742C214.194 478.742 211.357 477.324 207.811 475.196L197.172 469.522L175.894 457.465L133.34 434.06L48.2298 387.958L48.2298 390.795L57.4499 385.121L67.3796 379.447L87.2384 367.39L126.956 343.985L207.811 297.884Z" fill="#4A4A4A"/>
<path d="M554.634 695.064L472.361 743.293L431.225 766.698L410.657 778.755L400.018 784.429C398.6 785.138 396.472 786.557 395.053 787.975C393.635 789.394 392.216 791.522 391.507 794.359C390.089 826.984 390.089 858.191 389.379 889.398L388.67 936.917L388.67 960.323L388.67 972.38L388.67 978.054C388.67 980.182 389.379 982.309 389.379 984.437L390.089 990.111L395.053 987.274C398.6 985.146 402.146 983.728 405.692 981.6L416.331 975.217L436.899 963.16L478.035 938.336L519.172 913.512L539.74 900.746L549.669 894.363C553.216 892.235 556.762 890.107 559.599 885.852C562.436 881.596 561.727 876.631 561.727 873.085L561.727 861.028L561.727 836.913L561.727 788.685C561.727 756.768 562.436 724.143 561.727 692.227C558.89 693.645 556.762 694.355 554.634 695.064ZM554.634 695.064C556.762 693.645 558.89 693.645 561.017 692.936C561.727 724.852 560.308 756.768 560.308 789.394L558.89 837.623L558.181 861.737L558.181 873.794C558.181 878.05 558.18 881.596 556.053 884.433C553.925 887.27 551.088 888.689 547.542 890.816L536.903 896.49L516.335 908.548L474.489 932.662L432.644 956.776L412.075 968.834L401.437 975.217L390.798 980.891L396.472 983.728C396.472 982.309 395.763 980.182 395.763 978.763L395.763 973.089L395.763 961.032L395.763 937.627L395.763 890.107C395.763 858.9 395.053 826.275 395.053 795.777C395.763 792.231 397.89 790.103 401.437 788.685L411.366 782.301L431.934 770.244L472.361 745.42L554.634 695.064Z" fill="#4A4A4A"/>
<path d="M561.02 673.076L560.31 579.455L560.31 532.645L560.31 509.24C560.31 504.984 560.31 501.438 560.31 497.182C559.601 492.927 557.473 488.671 553.927 485.834C526.976 468.812 500.734 453.209 473.782 436.896L433.355 412.782L413.496 400.725L403.566 395.051L392.928 389.377L387.963 386.54L387.963 392.214L387.254 404.271L387.254 416.328L387.963 440.442L388.672 488.671L389.381 536.9L390.091 561.015L390.091 573.072C390.091 577.327 390.091 581.583 392.928 585.838C395.055 590.094 399.311 592.222 402.857 594.349L413.496 600.023L434.773 612.081L476.619 636.195L560.31 684.424L561.02 673.076ZM561.02 673.076L560.31 685.842L477.328 636.195L436.192 611.371L415.624 598.605L404.985 592.222C401.439 590.094 398.602 587.966 396.474 585.129C395.055 582.292 394.346 578.746 394.346 574.49L394.346 562.433L394.346 538.319L394.346 490.09L394.346 441.861L394.346 417.746L394.346 405.689L395.055 393.632L389.381 397.178L399.311 402.143L409.24 407.817L429.809 419.874L470.236 443.279C497.187 458.883 524.848 473.777 551.09 489.381C553.927 491.508 555.345 494.345 556.055 497.892C556.764 501.438 556.764 505.693 556.764 509.24L557.473 532.645L558.892 579.455L561.02 673.076Z" fill="#4A4A4A"/>
<path d="M400.019 778.755L480.165 734.072L520.592 712.085L540.451 700.737L550.38 695.063L560.31 688.68L562.438 687.262L559.6 685.843L475.909 636.905L434.064 612.791L412.786 600.733L402.147 595.059C398.601 592.932 394.345 590.095 389.381 590.095C383.707 590.095 379.451 592.932 375.905 594.35L365.266 600.024L343.989 612.081L302.143 636.196L260.297 660.31L239.729 672.368L229.091 678.751C225.545 680.879 221.998 683.006 219.161 685.843L216.324 687.971L219.161 689.39C226.254 694.354 234.056 697.9 241.148 702.156L263.135 714.213L307.817 738.328L352.5 763.151L374.487 775.209C378.033 777.336 381.579 779.464 385.835 780.173C392.218 782.301 396.473 780.883 400.019 778.755ZM400.019 778.755C396.473 780.883 392.218 782.301 387.962 781.592C383.707 780.883 380.161 778.046 376.614 776.627L354.628 763.861L310.654 738.328L266.681 712.795L244.694 700.028C237.602 695.773 229.8 691.517 223.417 686.553L223.417 690.099C226.963 687.971 229.8 685.843 233.346 683.716L243.985 678.042L265.262 666.694L307.817 643.288L349.663 619.883L370.94 607.826L381.579 602.152C385.125 600.024 387.962 598.606 390.799 598.606C393.636 598.606 396.473 600.024 400.019 602.152L410.658 607.826L431.936 619.883L474.491 643.288L559.6 689.39L559.6 686.552L550.38 692.936L540.451 698.61L520.592 709.958L480.874 733.363L400.019 778.755Z" fill="#4A4A4A"/>
<path d="M386.542 799.322C386.542 795.067 385.124 790.811 381.578 787.974C378.031 785.846 374.485 783.719 370.939 781.591L349.661 768.824L306.397 743.292L263.842 717.049L242.565 704.283C235.472 700.027 228.38 695.063 220.578 691.516L217.741 690.098L217.032 692.935L216.323 698.609C216.323 700.737 216.323 702.864 216.323 704.992L216.323 717.049L216.323 741.164L216.323 789.393L216.323 837.622L216.323 861.736L216.323 873.793C216.323 877.34 215.614 882.304 218.451 887.269C219.869 890.106 221.997 891.524 224.124 892.943L229.089 895.78L239.728 902.163L260.296 914.22L302.142 938.335L343.987 962.449L365.265 974.507L375.904 980.18L380.868 983.018C381.578 983.727 382.287 983.727 383.705 984.436L386.542 985.145L388.67 985.854L388.67 983.727C389.379 975.925 388.67 968.123 388.67 960.322L387.961 936.916L386.542 890.815L386.542 799.322ZM386.542 799.322L387.252 891.524L387.252 937.626L387.252 961.031C387.252 968.832 387.252 976.634 386.542 983.727L388.67 982.308L385.833 981.599C385.833 981.599 384.415 980.89 383.705 980.18L378.741 977.344L368.102 970.96L347.534 958.194L306.397 933.37L265.261 908.546L244.693 896.489L234.054 890.106L229.089 887.269C227.671 886.56 226.961 885.85 226.252 884.432C224.834 882.304 225.543 878.758 224.833 874.503L224.833 862.445L224.124 838.331L223.415 790.102L221.997 741.873L221.287 717.759L221.287 705.701C221.287 703.574 221.287 701.446 221.287 700.027L221.997 694.353L219.16 695.772C226.252 699.318 234.054 703.574 241.147 707.829L263.133 719.886L306.397 744.71L349.661 770.243L371.648 783.009C375.194 785.137 378.74 787.265 382.287 789.393C385.124 790.811 386.542 795.067 386.542 799.322Z" fill="#4A4A4A"/>
<path d="M385.833 586.548C387.961 523.425 389.379 458.884 390.798 395.051L390.798 390.796L387.252 392.214L383.705 393.633L380.868 395.051L375.194 397.888L364.556 403.562C357.463 407.109 350.371 411.364 343.278 415.62L301.433 439.734L259.587 464.558C245.402 473.069 231.926 480.87 218.451 490.091L217.032 491.509L217.032 493.637L216.323 590.095C216.323 622.011 215.614 654.636 216.323 686.553L216.323 692.227L220.578 689.39L304.269 638.324L385.833 586.548ZM385.833 586.548L300.723 634.777L217.032 683.006L221.287 685.843C221.997 653.927 221.997 621.302 222.706 589.385L224.124 492.928L222.706 495.765C235.472 486.544 249.657 478.743 263.133 470.232L304.979 445.408L346.824 421.294L368.102 409.236L378.741 403.562L383.705 400.725L386.542 399.307L388.67 398.598L385.124 395.761C384.415 458.175 385.124 522.007 385.833 586.548Z" fill="#4A4A4A"/>
<path d="M387.252 377.32L386.543 282.281L386.543 234.761L386.543 211.356L386.543 199.299C386.543 195.043 385.124 190.079 381.578 187.242C378.032 184.405 374.485 182.986 371.648 180.149L361.719 173.766L341.151 161.709L300.724 136.885C273.772 120.572 246.821 104.26 219.16 88.6561L213.486 85.8191L213.486 92.2023C212.777 108.515 213.486 124.119 213.486 140.431L214.195 188.66L215.614 236.889L216.323 261.003L216.323 273.061C216.323 276.607 216.323 281.572 218.451 285.827C220.579 290.083 224.834 292.21 228.38 294.338L239.019 300.012L260.296 312.069L302.142 336.184L343.988 360.298L364.556 372.355C371.648 376.611 378.741 380.866 385.833 383.703C386.543 382.285 387.252 380.157 387.252 377.32ZM387.252 377.32C387.252 380.157 386.543 382.285 385.833 385.122C378.741 381.576 371.648 377.32 364.556 373.065L343.988 361.007L302.851 336.184L261.715 311.36L241.147 298.594L230.508 292.21C226.962 290.083 224.125 287.955 222.706 285.118C221.288 282.281 221.288 278.025 221.288 274.479L221.288 262.422L221.288 238.308L221.288 190.079C221.288 158.162 220.578 125.537 221.288 93.6208L215.614 97.1671C243.274 112.771 270.226 128.374 297.887 144.687L339.023 168.092L359.591 179.44L370.23 185.114C373.776 187.242 377.322 188.66 380.159 190.788C382.996 192.916 384.415 196.462 384.415 200.008L384.415 212.065L385.124 235.471L386.543 282.99L387.252 377.32Z" fill="#4A4A4A"/>
<path d="M341.153 10.6382L355.338 2.1272L365.977 2.1272L364.558 2.83645L343.99 14.8937L302.144 39.0081C273.774 54.6116 246.113 70.9243 217.743 86.5278L300.017 36.1711L341.153 10.6382Z" fill="#4A4A4A"/>
<path d="M219.159 2.1272L218.45 38.2989L217.741 62.4133C217.741 70.215 217.031 78.726 217.741 86.5278C216.322 78.726 217.032 70.215 216.322 62.4133L216.322 38.2989L215.613 2.1272L219.159 2.1272Z" fill="#4A4A4A"/>
<path d="M239.019 76.5984L259.587 65.9596L300.015 43.2637L373.776 2.12727L300.724 43.9729L260.296 67.3781L240.438 79.4354C234.764 82.9816 228.381 85.8186 223.416 90.0741C229.09 93.6203 235.473 97.1666 241.856 100.713L263.134 112.061L305.688 134.757L347.534 158.162L368.812 169.51L379.45 175.184C382.997 177.312 385.834 178.73 388.671 178.73C391.508 178.73 394.345 177.312 397.891 175.184L408.529 169.51L429.807 157.453L471.653 134.047C498.604 118.444 526.974 104.259 553.216 88.6556L551.088 86.5278C549.67 85.1093 547.542 84.4001 546.124 83.6908L535.485 77.3076L513.498 64.5411L470.234 39.0082L426.97 14.1845L404.983 1.41802C404.274 0.708774 403.565 0.708774 402.856 -0.000474516L403.565 -0.000474578C404.274 -0.00047464 404.983 0.708774 404.983 0.708774L426.261 14.8937L470.234 39.0082L514.207 63.1226L536.194 75.1798L547.542 80.8538C548.961 81.5631 551.088 82.9816 553.216 84.4001L558.181 87.9463L560.309 89.3648L558.181 90.7833C551.798 95.748 544.705 99.2943 537.613 103.55L517.044 115.607L475.199 139.721L433.353 163.836L412.785 175.893L402.146 181.567C399.309 183.695 394.345 186.532 388.671 185.823C382.997 185.823 379.45 182.986 375.904 180.858L365.265 175.184L343.988 163.127L302.142 139.012L260.296 114.898L239.728 102.841C232.636 98.5851 225.543 95.0388 219.16 90.0741L217.032 88.6556L219.16 87.2371C225.543 83.6909 231.926 80.8539 239.019 76.5984Z" fill="#4A4A4A"/>
<path d="M417.039 2.12721L428.386 9.21969L471.651 34.7526L515.624 58.8671L537.611 71.6335C543.994 75.1798 550.377 79.4353 557.47 82.2723C557.47 80.8538 558.179 80.1445 558.179 79.4353C558.179 78.0168 558.179 75.889 558.179 73.7613L558.179 61.7041L557.47 37.5896L556.76 2.83645L563.144 2.83645L563.144 37.5896L563.144 61.7041L563.144 73.7613C563.144 75.889 563.144 77.3075 563.144 80.1445C563.144 82.2723 562.434 84.4 561.725 85.8185L561.016 88.6555L558.888 87.237C551.087 83.6908 543.994 78.726 536.901 74.4705L515.624 61.7041L472.36 35.4619L429.096 9.92894L417.039 2.83646L417.039 2.12721Z" fill="#4A4A4A"/>
<path d="M549.668 98.5851L469.523 145.396L429.096 168.801L409.237 180.149L399.308 185.823C395.762 187.95 392.215 191.497 391.506 195.752C390.087 227.668 390.087 258.166 389.378 289.373C388.669 320.58 387.96 351.078 388.669 382.284L388.669 384.412L390.087 385.122L391.506 386.54C391.506 386.54 392.215 386.54 392.924 387.249C392.924 387.249 393.634 387.249 394.343 387.249C395.052 387.249 395.052 387.249 395.762 387.249L396.471 387.249L397.889 386.54L400.726 385.122C402.854 384.412 404.273 382.994 406.4 382.284L417.039 375.901L437.607 363.844L478.743 339.02C506.404 322.708 533.356 305.686 561.016 288.664L561.726 287.954L561.726 286.536L561.016 189.369L561.016 92.9111L549.668 98.5851ZM549.668 98.5851L560.307 92.9111L558.889 189.369L556.761 285.827L557.47 283.699C529.809 300.012 501.439 315.615 474.488 331.928L433.352 356.042L412.783 368.1L402.145 374.483C400.726 375.192 398.598 376.611 397.18 377.32L394.343 378.738L392.924 379.448L393.634 379.448C394.343 379.448 394.343 379.448 394.343 379.448C395.052 379.448 395.052 379.448 394.343 379.448L393.634 378.738L395.052 381.575C394.343 351.078 395.052 319.871 395.052 288.664C395.052 257.457 394.343 226.25 394.343 195.752C395.052 188.66 403.563 185.823 409.946 181.567L429.805 169.51L469.523 145.396L549.668 98.5851Z" fill="#4A4A4A"/>
<path d="M553.215 298.593L473.07 343.276L432.642 365.262L412.784 376.61L402.854 382.284L392.924 388.668L390.087 390.086L392.924 391.505L475.907 439.733L517.752 463.848L539.03 475.905L549.668 481.579C553.215 483.707 556.761 486.544 562.435 486.544C568.109 487.253 572.364 483.707 575.911 482.288L586.549 476.614L607.827 464.557L649.672 440.443L691.518 416.328L712.086 404.271C719.179 400.016 726.271 396.469 732.655 391.505L734.782 390.086L732.655 388.668C725.562 382.994 718.47 379.447 710.668 375.192L688.681 363.135L643.999 339.02L600.025 314.196L578.038 302.139C574.492 300.012 570.946 297.884 566.69 296.465C561.016 294.338 556.761 296.465 553.215 298.593ZM553.215 298.593C556.761 296.465 561.016 295.047 565.272 295.756C569.527 296.465 573.074 299.302 576.62 301.43L598.606 314.196L642.58 339.02L686.553 364.553L708.54 377.32C715.632 381.575 723.434 385.831 729.817 390.795L729.817 387.249C723.434 391.505 716.342 395.051 709.249 399.306L687.972 410.654L645.417 434.059L603.571 457.465L582.294 469.522L571.655 475.196C568.109 477.324 565.272 478.742 562.435 478.742C559.598 478.742 556.761 476.614 553.215 474.487L542.576 468.813L521.298 456.755L478.744 433.35L393.634 387.249L393.634 390.086L402.854 383.703L412.784 378.029L432.642 366.681L472.36 343.276L553.215 298.593Z" fill="#4A4A4A"/>
<path d="M732.653 800.032C732.653 795.776 731.943 791.521 728.397 788.684C724.851 785.847 721.305 784.428 717.758 782.3L695.772 769.534L652.507 744.001L609.243 717.759L587.966 704.992C580.873 700.737 573.781 695.772 565.979 692.226L563.142 690.807L563.142 693.644C563.142 697.9 562.433 702.155 562.433 705.702L562.433 717.759L562.433 741.873L562.433 790.102L562.433 838.331L562.433 862.446L562.433 874.503C562.433 878.049 561.724 883.014 564.561 887.978C565.979 890.106 568.107 892.234 570.234 893.652L575.909 896.489L586.547 902.873L607.115 914.93L648.961 939.044L690.807 963.159L712.084 975.216C719.177 978.762 725.56 983.727 733.362 986.564L735.489 987.273L735.489 984.436C736.199 976.634 735.489 968.833 735.489 961.031L734.78 938.335L733.362 892.234L732.653 800.032ZM732.653 800.032L733.362 892.234L733.362 938.335L733.362 961.031C733.362 968.833 733.362 976.634 732.653 983.727L735.489 982.308C728.397 978.762 721.305 974.507 714.921 970.251L694.353 957.485L653.217 932.661L611.371 907.837L590.803 895.78L580.164 889.397L575.199 886.56C573.781 885.851 573.072 884.432 572.362 883.723C570.944 881.595 570.944 878.049 570.944 873.794L570.944 861.736L570.234 837.622L569.525 789.393L568.107 741.164L567.398 717.05L567.398 704.992C567.398 700.737 568.107 697.191 568.107 692.935L565.27 694.354C573.072 697.9 580.164 702.155 587.257 706.411L609.243 719.177L653.217 744.001L696.481 769.534L718.468 782.3C722.014 784.428 725.56 786.556 729.106 788.684C731.943 790.811 733.362 795.776 732.653 800.032Z" fill="#4A4A4A"/>
<path d="M565.274 685.133C572.366 682.296 579.458 678.041 586.551 673.785L607.828 661.728L649.674 637.614L691.52 613.499L712.088 601.442L722.727 595.059C726.273 592.931 730.528 591.512 733.365 586.548C736.202 582.292 735.493 577.327 735.493 573.072L735.493 561.015L735.493 536.9L736.202 488.671L736.911 440.442L736.911 416.328C736.911 408.526 737.621 400.015 736.202 392.214L735.493 386.54L730.528 388.667C722.727 392.214 716.343 396.469 709.251 400.725L688.683 412.782L647.546 437.605L606.41 462.429L585.842 474.486L575.203 480.87C572.366 482.997 567.401 485.125 564.564 489.381C561.727 494.345 562.437 498.601 562.437 502.856L562.437 514.914L562.437 539.028L562.437 587.257L563.146 635.486L563.146 659.6C563.855 668.82 563.855 676.622 565.274 685.133ZM565.274 685.133C564.564 677.331 565.274 668.82 565.274 661.019L565.983 636.904L567.401 588.675L568.11 540.446L568.82 516.332L568.82 504.275C568.82 500.019 568.82 496.473 570.238 494.345C571.657 491.508 575.203 490.09 578.749 487.962L589.388 481.579L609.956 469.522L651.802 445.407L693.647 421.293L714.216 409.236C721.308 404.98 728.401 400.725 734.784 397.888L729.11 394.341C729.819 402.143 729.819 409.945 729.819 418.456L729.819 442.57L729.819 490.799L729.819 539.028L729.819 563.142L729.819 575.2C729.819 579.455 729.819 583.001 728.401 585.838C726.982 588.675 723.436 590.094 719.89 592.222L709.251 598.605L688.683 611.371L647.546 636.195L606.41 661.728L585.842 674.494C578.749 677.331 572.366 681.587 565.274 685.133Z" fill="#4A4A4A"/>
<path d="M733.364 374.483L732.655 280.862L732.655 234.052L732.655 210.646C732.655 206.391 732.655 202.845 732.655 198.589C732.655 194.334 730.527 190.078 726.981 187.241L646.836 138.303L606.409 114.189L586.55 102.132C580.167 97.876 573.074 94.3298 565.982 90.7835L561.017 87.9465L561.017 93.6205L560.308 105.678L560.308 117.735L561.017 141.849L561.726 190.078L562.436 238.307L563.145 262.422L563.145 274.479C563.145 278.734 563.145 282.99 565.982 287.245C568.11 291.501 572.365 293.629 575.911 295.756L586.55 301.43L607.827 313.488L649.673 337.602L733.364 385.831L733.364 374.483ZM733.364 374.483L732.655 385.831L649.673 336.183L608.537 311.36L587.968 298.593L577.33 292.21C573.783 290.082 570.947 287.955 568.819 285.118C567.4 282.281 566.691 278.734 566.691 274.479L566.691 262.422L566.691 238.307L566.691 190.078L566.691 141.849L566.691 117.735L566.691 105.678L567.4 93.6205L561.726 97.1668C568.819 100.004 575.202 104.259 582.294 108.515L602.863 120.572L643.29 143.977L724.853 190.078C731.237 193.625 729.818 202.845 729.818 210.646L730.527 234.052L731.946 280.862L733.364 374.483Z" fill="#4A4A4A"/>
<path d="M567.398 2.12721C567.398 28.3694 566.689 55.3208 565.98 81.563L645.415 36.1711L704.992 2.1272L707.12 2.1272L648.252 38.2989L564.561 89.3648L560.306 92.2018L560.306 86.5278C560.306 58.1578 560.306 29.7879 560.306 2.12721L567.398 2.12721Z" fill="#4A4A4A"/>
<path d="M585.843 75.8891L606.412 64.5411L646.839 42.5544L719.182 2.12721L646.839 43.9729L607.121 67.3781L587.262 79.4353C581.588 82.9815 575.205 86.5278 569.531 90.074C575.205 94.3295 581.588 97.1665 587.971 100.713L609.248 112.061L651.803 135.466L694.358 158.871L715.636 170.928L726.274 176.602C729.821 178.73 732.658 180.149 735.495 180.149C736.913 180.149 738.332 179.439 739.75 178.73L744.715 175.893L755.354 170.219L776.631 158.162L819.186 134.757L861.741 111.351L883.018 100.003C888.692 96.4572 895.076 93.6202 900.75 89.3647C887.274 81.563 873.798 73.7613 860.323 65.9596L817.058 40.4266L773.085 15.6029L751.098 2.83646C750.389 2.83646 750.389 2.12721 749.68 2.12721L750.389 2.12721C750.389 2.12721 751.098 2.12721 751.098 2.83646L773.085 14.8937L816.349 39.0081L860.323 63.1226C875.217 70.9243 890.111 78.726 904.296 87.237L907.133 88.6555L905.005 90.7832C898.622 95.748 891.529 99.2942 884.437 103.55L863.869 115.607L822.023 139.721L780.177 163.836L758.9 175.893L748.261 181.567C746.133 182.276 744.715 183.695 742.587 184.404C740.46 185.823 737.623 186.532 734.786 186.532C729.112 186.532 724.856 183.695 722.019 181.567L711.38 175.893L690.103 163.836L648.257 139.721L606.412 115.607L585.843 103.55C578.751 99.2942 571.658 95.748 565.275 90.074L563.147 88.6555L565.275 87.237C572.368 82.9815 579.46 80.1445 585.843 75.8891Z" fill="#4A4A4A"/>
<path d="M761.735 2.12721L773.793 9.21969L817.057 34.7526L861.03 59.5763L883.017 72.3428C889.4 75.889 895.783 80.1445 902.876 82.9815C902.876 81.563 903.585 80.8538 903.585 80.1445L903.585 74.4705L903.585 62.4133L902.876 38.2989L902.167 2.83645L908.55 2.83645L908.55 38.2989L908.55 62.4133L908.55 74.4705L908.55 80.8538C908.55 83.6908 907.131 85.1093 907.131 87.237L906.422 90.074L904.294 88.6555C896.493 85.1093 889.4 80.1445 882.308 75.889L861.03 63.1226L817.766 36.8804L774.502 11.3474L761.735 3.54571L761.735 2.12721Z" fill="#4A4A4A"/>
<path d="M898.615 96.4574L817.051 143.977L775.915 167.382L755.347 179.439L745.417 185.113C743.999 185.823 741.871 187.241 740.453 188.66C739.034 190.078 737.616 192.915 737.616 195.043C736.197 226.959 736.197 258.166 735.488 290.082L734.779 337.602L734.779 361.007L734.779 373.064L734.779 378.738C734.779 380.866 735.488 382.994 735.488 385.121L736.197 390.795L741.162 387.958C744.708 385.831 748.254 384.412 751.801 382.284L762.439 375.901L783.007 363.844L824.144 339.02L865.28 314.197L885.848 301.43L895.778 295.047C899.324 292.919 903.58 290.791 905.708 286.536C908.545 282.28 907.835 277.316 907.835 273.769L907.835 261.712L907.835 237.598L907.835 189.369C907.835 157.453 908.544 124.827 907.835 92.9111C903.58 95.0389 900.743 95.7481 898.615 96.4574ZM898.615 96.4574C900.743 95.0389 903.58 95.0389 905.708 93.6204C905.708 125.537 904.998 158.162 904.998 190.078L903.58 238.307L902.871 262.421L902.871 274.479C902.871 278.734 902.87 282.28 900.743 285.117C898.615 287.954 895.778 289.373 892.232 291.501L881.593 297.175L861.025 309.232L819.179 333.346L777.334 357.461L756.765 369.518L746.127 375.901L735.488 381.575L741.162 384.412C741.162 382.994 740.453 380.866 740.453 379.447L740.453 373.774L740.453 361.716L740.453 338.311L740.453 290.791L739.743 196.461C739.743 192.915 742.58 190.787 746.127 188.66L756.056 182.276L775.915 170.219L816.342 145.396L898.615 96.4574Z" fill="#4A4A4A"/>
<path d="M1079.48 373.064L1078.77 279.443L1078.77 232.633L1078.77 209.228C1078.77 204.972 1078.77 201.426 1078.77 197.171C1078.06 192.915 1075.93 188.66 1072.39 186.532C1045.43 169.51 1019.19 153.906 992.24 137.594L912.095 89.3648L907.13 86.5278L906.421 92.9111C906.421 97.1666 905.712 101.422 905.712 104.968L905.712 117.026L906.421 141.14L907.13 189.369L907.839 237.598L908.549 261.712L908.549 273.769C908.549 277.316 908.549 282.28 910.676 286.536C912.804 290.791 917.769 292.919 920.606 295.047L931.245 300.721L952.522 312.778L994.368 336.893L1036.21 361.007L1057.49 373.064C1064.58 377.32 1070.97 381.575 1078.77 384.412L1079.48 373.064ZM1079.48 373.064L1079.48 384.412C1072.39 381.575 1065.29 376.61 1058.2 372.355L1037.63 360.298L995.786 335.474L954.65 310.65L934.082 297.884L923.443 291.501C919.897 289.373 916.35 287.954 914.932 284.408C913.513 281.571 913.513 278.025 913.513 273.769L913.513 261.712L913.513 237.598L913.513 189.369L913.513 141.14L913.513 117.026L913.513 104.968C913.513 100.713 914.223 97.1666 914.223 92.9111L908.549 95.7481L989.403 142.558C1016.35 158.162 1044.01 173.056 1070.26 188.66C1073.09 190.787 1075.22 193.624 1075.93 197.171C1076.64 200.717 1076.64 204.972 1076.64 208.519L1077.35 231.924L1078.77 278.734L1079.48 373.064Z" fill="#4A4A4A"/>
<path d="M913.511 2.12721C913.511 28.3694 912.802 53.9023 912.092 80.1445L913.511 79.4353C915.639 78.726 917.057 78.0168 919.185 76.5983L929.824 70.9243L951.101 59.5763L993.656 36.1711L1035.5 12.0567C1041.18 8.51043 1046.85 5.67344 1051.81 2.1272L1054.65 2.1272C1048.98 5.67344 1042.59 9.92893 1036.92 13.4752L995.784 39.0081L953.938 63.8318L932.661 75.889L922.022 81.563C920.603 82.2723 918.476 83.6908 916.348 84.4L913.511 85.8185L909.965 87.237L906.418 88.6555L906.418 84.4C906.418 56.7393 906.418 29.7879 906.418 2.12721L913.511 2.12721V2.12721Z" fill="#4A4A4A"/>
<path d="M951.103 65.9596L991.53 43.9729L1066 2.12721L991.53 44.6821L951.812 68.0873C939.755 75.1798 926.989 82.2723 914.931 90.074C917.768 91.4925 919.896 93.6203 922.733 95.0388L933.372 100.713L954.649 112.061L997.204 135.466L1039.76 158.871L1061.04 170.928L1071.68 176.602C1075.22 178.73 1078.06 180.149 1080.9 180.149C1083.73 180.149 1086.57 178.021 1090.12 175.893L1100.75 170.219L1122.03 158.162L1164.59 134.757L1207.14 111.351L1228.42 100.003C1234.8 96.4572 1240.48 93.6202 1246.15 89.3648L1161.04 39.7174L1117.07 14.1844L1095.79 2.12721L1096.5 2.12721L1117.78 14.1844L1162.46 39.0081L1251.11 87.237L1253.95 88.6555L1251.11 90.7832C1244.73 95.748 1237.64 100.003 1230.55 104.259L1209.98 116.316L1168.13 140.431L1126.29 164.545L1105.01 176.602L1094.37 182.276C1090.83 183.695 1087.28 187.241 1081.6 187.241C1075.93 187.241 1071.68 184.404 1068.13 182.276L1057.49 176.602L1036.21 164.545L994.367 140.431L952.522 116.316L931.244 104.259L920.605 97.8758C917.059 95.748 913.513 93.6203 910.676 90.7833L908.548 89.3648L910.676 87.9463C924.152 80.1446 937.627 73.7613 951.103 65.9596Z" fill="#4A4A4A"/>
<path d="M1108.56 2.12721L1120.62 9.21969L1163.88 34.7526L1207.85 59.5763L1229.84 72.3428C1236.22 75.889 1242.61 79.4353 1248.99 82.9815L1249.7 80.1445C1249.7 78.0168 1249.7 76.5983 1249.7 74.4705L1249.7 62.4133L1248.99 37.5896L1248.28 2.1272L1254.66 2.1272L1254.66 37.5896L1254.66 61.7041L1254.66 73.7613C1254.66 75.889 1254.66 78.0168 1254.66 80.1445L1253.95 85.8185L1253.24 88.6555L1250.41 87.237C1242.61 83.6908 1235.51 78.726 1228.42 74.4705L1207.14 61.7041L1163.88 35.4619L1120.62 9.92894L1107.85 2.12721L1108.56 2.12721Z" fill="#4A4A4A"/>
<path d="M1085.15 191.496C1083.03 254.619 1081.61 319.161 1080.19 382.993L1080.19 387.249L1083.73 385.83L1087.28 384.412L1090.12 382.993C1092.25 382.284 1093.66 380.866 1095.79 380.156L1106.43 374.482C1113.52 370.936 1120.62 366.681 1127.71 363.135L1169.55 339.02L1211.4 314.196C1225.58 305.685 1239.06 297.884 1252.54 288.663L1253.95 287.245L1253.95 285.117L1254.66 188.659C1254.66 156.034 1255.37 124.118 1254.66 91.4923L1254.66 85.8184L1250.41 88.6554L1166.72 139.721L1085.15 191.496ZM1085.15 191.496L1170.26 143.267L1253.95 95.0386L1249.7 92.2016C1248.99 124.118 1248.99 156.743 1248.28 188.659L1246.86 285.117L1248.28 282.28C1235.51 291.5 1221.33 299.302 1207.85 307.813L1166.01 332.637L1124.16 356.751L1102.88 368.808L1092.25 374.482C1090.83 375.192 1088.7 376.61 1087.28 377.319L1084.44 378.738L1082.32 379.447L1085.86 382.284C1086.57 319.87 1085.86 256.747 1085.15 191.496Z" fill="#4A4A4A"/>
<path d="M1260.33 2.12721C1260.33 28.3694 1259.62 55.3208 1258.92 81.563L1338.35 36.1711L1397.22 2.1272L1399.35 2.1272L1340.48 38.2989L1256.79 89.3648L1252.53 92.2018L1252.53 86.5278C1252.53 58.1578 1252.53 30.4971 1252.53 2.12721L1260.33 2.12721Z" fill="#4A4A4A"/>
<path d="M570.946 1080.19L651.8 1034.79L692.227 1012.81L712.795 1001.46C719.888 997.912 726.271 994.366 732.655 989.401L734.782 987.983L732.655 986.564C729.108 984.437 726.271 981.6 722.725 979.472L712.086 973.088L691.518 961.031L649.672 936.917L607.827 912.802L586.549 900.745L575.911 895.071C572.364 892.943 568.818 890.106 563.144 890.106C560.307 890.106 557.47 890.816 555.342 892.234C553.215 893.653 551.796 894.362 549.668 895.071L539.03 900.745L517.752 912.802L475.907 936.917L434.061 961.031L413.493 973.089C406.4 977.344 399.308 980.89 392.924 985.855L390.087 987.983L392.924 989.401L481.58 1037.63L525.554 1061.74L547.541 1073.8C551.087 1075.93 554.633 1078.06 558.889 1079.48C563.144 1083.02 567.4 1082.31 570.946 1080.19ZM570.946 1080.19C567.4 1082.31 563.144 1083.02 558.889 1080.89C555.342 1079.48 551.796 1076.64 547.541 1074.51L525.554 1061.74L481.58 1036.92L438.316 1011.39L395.052 985.855L395.052 989.401C401.436 985.146 408.528 980.89 415.62 977.344L436.898 965.996L479.453 942.591L522.008 919.186L543.285 907.128L553.924 901.454L558.889 898.617C560.307 897.908 561.726 897.199 563.144 897.199C565.981 897.199 568.818 898.617 572.364 900.745L583.003 906.419L604.281 918.476L646.835 941.882L689.39 965.287L710.668 976.635L721.307 982.309C724.853 984.436 727.69 986.564 731.236 988.692L731.236 985.855C725.562 990.82 718.469 994.366 712.086 997.912L692.227 1009.97L652.509 1033.37L570.946 1080.19Z" fill="#4A4A4A"/>
<path d="M226.961 1280.9L308.525 1233.38L349.661 1209.98L370.229 1197.92L380.159 1192.25C383.705 1190.83 387.961 1187.99 388.67 1183.03C389.379 1178.06 389.379 1175.22 389.379 1170.97L389.379 1158.91L390.088 1135.51L391.507 1088.7L392.216 1041.89L392.216 1018.48L392.216 1006.42C392.216 1002.17 392.925 998.621 392.216 994.366L391.507 990.11L387.96 991.529C386.542 992.238 385.124 992.238 384.414 992.947L381.577 994.366C379.45 995.075 378.031 996.494 375.903 997.203L365.264 1002.88L343.987 1014.93L302.141 1039.05C287.956 1047.56 274.481 1056.07 261.005 1064.58C247.529 1073.09 233.344 1081.6 220.578 1090.82L219.869 1091.53L219.869 1092.24L220.578 1188.7L220.578 1285.16C221.996 1282.32 224.834 1282.32 226.961 1280.9ZM226.961 1280.9C224.834 1282.32 221.996 1282.32 219.159 1283.74L220.578 1187.28L222.705 1090.82L221.996 1092.24C235.472 1083.73 248.948 1075.22 263.133 1067.42L304.979 1043.3L346.824 1019.19L368.101 1007.84L378.74 1002.17L383.705 999.331L386.542 997.912C387.251 997.912 387.961 997.203 388.67 997.203L384.414 993.657C385.124 996.494 384.414 1001.46 385.124 1005L385.124 1017.06L385.124 1040.47L385.124 1087.28L385.124 1134.09L385.124 1157.49L385.124 1169.55C385.124 1173.1 385.124 1178.06 385.124 1180.9C384.414 1184.44 381.577 1185.86 378.031 1187.99L368.101 1194.37L348.243 1206.43L307.815 1231.25L226.961 1280.9Z" fill="#4A4A4A"/>
<path d="M228.38 1078.06L307.106 1034.08L386.542 990.11L388.67 988.692L386.542 987.273C382.996 985.145 380.159 982.308 376.613 980.181L365.974 973.797L345.406 961.74L303.56 937.626L261.714 913.511L240.437 901.454L229.798 895.78C226.252 893.652 221.997 891.525 216.323 891.525C211.358 891.525 206.393 894.362 203.556 895.78L192.917 901.454L171.64 913.511L129.794 937.626L87.9484 961.74L67.3805 973.797L56.7418 980.181L46.8121 986.564L43.975 988.692L46.8121 990.11C76.6005 1007.13 107.098 1022.74 136.887 1039.05L181.569 1063.87L204.265 1076.64C207.812 1078.77 212.067 1080.89 216.323 1080.89C220.578 1081.6 224.833 1080.18 228.38 1078.06ZM228.38 1078.06C224.833 1080.18 220.578 1081.6 216.323 1081.6C212.067 1081.6 207.812 1079.48 204.265 1077.35L182.278 1064.58L137.596 1039.05C107.807 1022.03 78.019 1005 48.9398 987.273L48.9398 990.819C76.6005 974.507 105.68 959.613 133.341 944.009L175.895 920.604L197.173 908.547L207.812 902.873C211.358 900.745 214.195 899.326 217.032 899.326C219.869 899.326 222.706 900.745 226.252 902.873L236.891 908.547L258.168 920.604L300.723 944.009L343.278 967.414L364.555 978.762L375.194 984.436C378.74 986.564 381.577 988.692 385.124 990.819L385.124 987.982L346.115 1010.68L307.106 1033.37L228.38 1078.06Z" fill="#4A4A4A"/>
<path d="M215.617 1272.39L214.908 1178.77L214.908 1131.96L214.908 1108.55C214.908 1104.3 214.908 1100.75 214.908 1096.5C214.199 1092.24 212.071 1087.99 208.525 1085.15C181.573 1068.13 155.331 1052.52 128.38 1036.21L87.9525 1012.1L68.0936 1000.04L58.1639 994.366L47.5252 988.692L41.8513 985.855L41.8513 992.238L41.1422 1004.3L41.1422 1016.35L41.8513 1040.47L42.5608 1088.7L43.2699 1136.92L43.979 1161.04L43.979 1173.1C43.979 1177.35 43.9792 1181.61 46.8162 1185.86C48.9439 1190.12 53.1996 1192.25 56.7458 1194.37L67.3845 1200.05L88.662 1212.11L130.507 1236.22L214.199 1284.45L215.617 1272.39ZM215.617 1272.39L214.908 1285.16L131.926 1235.51L90.7897 1209.98L70.2213 1197.21L59.5826 1190.83C56.0363 1188.7 53.1992 1186.57 51.0715 1183.74C49.653 1180.9 48.9438 1177.35 48.9438 1173.1L48.9438 1161.04L48.9438 1136.92L48.9438 1088.7C48.9438 1056.78 48.2346 1024.15 48.9438 992.238L43.2699 995.785L53.1996 1000.75L63.1288 1006.42L83.6971 1018.48L124.124 1041.89C151.076 1057.49 178.736 1072.38 204.978 1087.99C207.815 1090.11 209.943 1092.95 209.943 1096.5C210.653 1100.04 210.652 1104.3 210.652 1107.85L211.362 1131.25L212.78 1178.06L215.617 1272.39Z" fill="#4A4A4A"/>
<path d="M1.42113 1357.5L7.80453 1361.05L28.3729 1372.4C35.4654 1375.94 41.8484 1381.62 48.9409 1378.78C75.8923 1363.18 102.844 1346.86 130.504 1331.26L171.641 1307.85L192.209 1295.8C197.174 1292.96 202.138 1290.12 207.103 1287.29L128.377 1242.6L86.5309 1218.49L65.963 1206.43L55.3243 1200.05C51.778 1197.92 48.2316 1195.79 45.3946 1195.79C41.8484 1195.08 39.0116 1197.21 35.4654 1199.34L24.8266 1205.01L3.54921 1216.36L2.13062 1217.07L2.13062 1214.23L22.6986 1202.18L33.3373 1195.79C36.8835 1193.66 40.4299 1190.83 45.3946 1191.54C50.3593 1191.54 53.9057 1194.37 57.4519 1196.5L68.0906 1202.18L89.3681 1213.52L131.923 1236.93C160.293 1252.53 188.663 1268.14 216.324 1283.74L221.288 1286.58L216.324 1290.12C209.94 1295.09 202.848 1298.63 195.755 1302.18L175.187 1313.53L134.051 1336.22C106.39 1351.12 79.4384 1366.72 51.0685 1381.62C46.813 1383.74 41.8484 1382.32 38.3021 1380.2L27.6634 1374.52L7.09546 1362.47L1.42113 1359.63L1.42113 1357.5Z" fill="#4A4A4A"/>
<path d="M1.41956 1206.43L37.5915 1184.44C37.5915 1152.53 37.5915 1120.61 37.5915 1089.41L38.3005 999.331L33.3357 1002.17L22.697 1008.55L2.12905 1020.61L1.41955 1021.32L1.41955 1012.81L19.1508 1002.17L29.7895 995.785L40.4282 990.11L46.1025 987.273L46.1025 993.657L44.684 1090.82C43.9747 1123.45 43.9746 1155.37 43.2654 1187.99L43.2654 1189.41L41.8468 1190.12L1.41956 1213.52L1.41956 1206.43Z" fill="#4A4A4A"/>
<path d="M1.42237 1009.26C12.7703 1002.17 24.8279 995.785 35.4666 988.692C34.7574 987.983 33.3387 987.274 32.6295 986.565C31.211 985.855 29.0831 984.437 27.6646 983.728L17.0259 978.054L1.42236 969.543L1.42236 963.869L19.1536 974.507L29.7923 980.891C31.92 982.309 33.3389 983.018 35.4666 984.437C36.8851 985.855 38.3035 987.274 39.722 988.692L41.8496 990.111L39.722 991.529C26.9555 999.331 14.1888 1005.71 1.42237 1012.81L1.42237 1009.26Z" fill="#4A4A4A"/>
<path d="M1.41861 690.808L24.8242 677.332L86.5284 642.579C126.246 619.883 166.674 599.315 205.682 576.619C197.172 570.236 187.951 565.271 178.731 559.597L146.815 541.157L82.9822 504.276L19.1498 467.395L1.41859 457.465L1.41859 456.756L19.8593 466.686L84.4007 502.857L148.943 538.32L181.568 556.051C192.207 561.725 203.555 567.399 213.484 575.201L217.03 578.038L213.484 580.165C203.555 586.549 193.625 592.932 182.986 598.606L152.489 616.337L91.4932 651.799L30.4981 687.262L1.41862 703.575L1.41861 690.808Z" fill="#8C8C8C"/>
<path d="M460.301 1024.15L341.148 1094.37L280.862 1129.12L251.073 1146.15L236.179 1154.66C234.051 1156.08 231.214 1157.49 228.377 1159.62C226.249 1161.75 224.122 1165.3 223.413 1168.13C221.285 1215.65 221.285 1261.04 219.866 1307.15L219.157 1376.65L218.448 1411.4L218.448 1428.43L218.448 1436.94C218.448 1439.77 219.157 1443.32 219.867 1446.16L220.576 1453.96L227.668 1450.41C232.633 1447.58 238.307 1444.74 243.272 1441.9L258.166 1432.68L288.663 1414.95L348.95 1378.78L409.236 1341.9L439.024 1323.46L453.918 1314.24C458.883 1311.4 464.557 1308.56 468.103 1302.18C471.649 1295.8 470.94 1288.7 470.94 1283.74L470.94 1266.01L470.94 1230.55L470.231 1160.33C470.231 1113.52 470.94 1066.71 470.231 1019.9C466.685 1022.03 463.138 1022.74 460.301 1024.15ZM460.301 1024.15C463.138 1022.74 466.685 1022.03 469.522 1021.32C470.231 1068.13 468.812 1114.94 468.103 1161.75L466.685 1231.96L465.976 1267.43L465.266 1285.16C465.266 1290.83 465.266 1296.51 462.429 1300.76C459.592 1305.02 454.627 1307.14 449.663 1309.98L434.059 1318.49L403.562 1336.22L342.566 1370.98L281.571 1406.44L251.073 1424.17L236.179 1432.68L221.285 1440.48L229.087 1444.74C229.087 1441.9 227.668 1439.77 227.668 1436.94L227.668 1428.43L227.668 1411.4L227.668 1376.65L227.668 1307.15C227.668 1261.04 226.959 1214.23 226.959 1168.84C227.668 1163.88 231.923 1161.04 236.888 1158.2L251.783 1148.98L281.571 1130.54L340.438 1094.37L460.301 1024.15Z" fill="#8C8C8C"/>
<path d="M469.522 992.239L468.813 855.354L468.813 787.266L468.813 753.222C468.813 747.548 469.522 741.874 468.104 735.491C467.395 729.107 463.848 723.433 458.884 719.178C419.875 694.354 380.866 671.658 341.858 647.544L284.409 612.081L255.33 594.35L240.435 585.839L224.832 578.037L217.03 573.782L216.321 582.293L215.611 600.024L215.611 617.755L216.321 653.218L217.739 724.143L219.158 795.068L219.867 830.53L220.576 848.261C220.576 853.935 221.285 861.028 224.832 866.702C228.378 872.376 234.052 875.922 239.017 878.759L254.62 887.27L285.118 905.001L346.822 939.754L468.813 1010.68L469.522 992.239ZM469.522 992.239L468.813 1010.68L347.532 938.336L287.246 901.455L256.748 883.014L241.854 873.794C236.889 870.957 232.633 868.12 229.796 863.155C227.669 858.9 226.96 853.226 226.96 847.552L226.96 829.821L226.96 794.358L226.96 723.433L226.96 652.509L226.96 617.046L226.96 599.315L227.669 582.293L219.867 587.258L234.761 595.059L249.655 603.57L279.444 620.592L338.312 654.636C378.029 677.332 418.456 699.319 456.756 722.015C461.011 724.852 463.139 729.817 464.558 734.781C465.267 739.746 465.267 746.129 465.267 751.803L465.976 785.847L467.395 853.935L469.522 992.239Z" fill="#8C8C8C"/>
<path d="M408.525 1046.14L437.604 1029.12L451.789 1020.61L461.719 1013.52L341.856 948.265L280.151 914.222L249.653 897.2L234.05 888.689C228.376 885.852 224.83 883.015 220.574 883.015C216.319 883.015 212.772 885.142 207.098 887.979L191.495 896.49L160.997 913.512L99.293 947.556L37.5883 981.6L6.38118 998.622L2.12587 1000.75L2.12587 992.239L2.83494 991.53L33.3325 973.798L94.3281 938.336L155.323 903.583L185.821 885.852L201.424 877.341C206.389 874.504 212.773 870.248 220.574 870.957C228.376 870.957 234.759 875.213 239.724 878.05L255.328 886.561L285.825 904.292L346.82 939.045L468.811 1009.97L472.357 1012.1L468.811 1014.23L454.626 1023.45L439.732 1031.25L410.653 1047.56L351.785 1080.19L234.759 1145.44L351.076 1078.77L408.525 1046.14Z" fill="#8C8C8C"/>
<path d="M1.41891 1028.41C3.54666 1029.83 4.9655 1030.54 7.09325 1031.96L39.0094 1050.4L102.842 1087.99L167.383 1124.87L199.299 1143.31C204.973 1146.15 209.938 1149.69 216.322 1151.11C222.705 1152.53 228.379 1150.4 234.053 1146.86C229.088 1149.69 222.705 1151.82 216.322 1151.11C209.938 1150.4 204.973 1146.15 199.299 1143.31L166.674 1125.58L102.132 1089.41L36.8813 1053.94L4.25607 1036.21C3.54683 1035.5 2.12816 1034.79 1.41892 1034.79L1.41891 1028.41Z" fill="#8C8C8C"/>
<path d="M207.809 1160.33C202.844 1156.78 197.17 1153.95 192.205 1151.11L160.289 1132.67L97.1659 1095.79L33.3335 1059.62L1.41733 1041.18L1.41733 1035.5C2.12657 1036.21 2.83617 1036.21 3.54541 1036.92L34.7521 1056.07L97.1659 1094.37L160.289 1131.96L191.496 1150.4C197.88 1153.24 202.844 1156.08 207.809 1160.33C212.774 1163.88 214.901 1170.26 214.901 1176.64C214.901 1170.26 212.774 1163.88 207.809 1160.33Z" fill="#8C8C8C"/>
<path d="M1.41818 1314.24L6.38299 1317.07L36.8806 1334.81L97.1667 1370.98L157.453 1407.86L187.241 1426.3L202.136 1435.52L209.937 1439.77C211.356 1440.48 212.774 1441.9 213.484 1441.9L214.193 1441.9C214.902 1431.97 214.902 1422.04 214.902 1411.4L214.902 1377.36L214.902 1309.98L214.193 1175.22L216.321 1309.98L217.739 1377.36L218.448 1411.4C218.448 1422.75 219.158 1434.1 218.448 1445.45L218.448 1448.99L214.902 1448.29L210.646 1446.87C208.519 1446.16 207.81 1445.45 206.391 1444.74L198.59 1440.48L182.986 1431.97L152.488 1414.24L91.4928 1379.49L30.4976 1344.03L0.709104 1327L0.709103 1314.24L1.41818 1314.24Z" fill="#8C8C8C"/>
<path d="M1.41406 986.564L89.361 936.208L213.479 865.283L93.6163 939.754L1.41406 995.785L1.41406 986.564Z" fill="#8C8C8C"/>
<path d="M209.937 592.932L202.135 597.187L186.531 605.698L156.034 623.43L95.0382 658.892L34.0431 695.064C23.4043 701.447 12.0561 708.539 1.41739 714.923L1.41738 702.156C10.6376 696.482 19.8582 691.517 28.3692 685.843L89.3643 649.672L151.069 614.209C161.708 608.535 171.637 602.861 182.276 597.187L197.879 588.676L205.681 584.421L209.937 582.293L214.901 580.165L219.866 578.038L219.866 584.421C218.448 678.751 215.611 772.372 212.774 864.574C211.355 772.372 211.355 681.588 211.355 590.804L209.937 592.932Z" fill="#8C8C8C"/>
<path d="M212.065 352.497L211.356 317.743L210.647 300.722C210.647 295.048 208.519 290.792 204.973 287.246C201.427 283.7 195.753 281.572 190.788 278.735L175.894 270.224L146.105 253.202L85.8193 219.158C58.1586 202.845 29.7888 186.533 2.12811 170.929L2.12811 158.163C31.9165 175.894 60.9957 192.916 90.7842 210.647L149.652 246.819L179.44 264.55L194.334 273.77C199.299 276.607 204.264 279.444 209.229 283.7C214.193 287.955 216.321 295.048 216.321 301.431L216.321 318.453L216.321 353.206L216.321 422.712L217.03 561.016L214.903 422.712L212.065 352.497Z" fill="#8C8C8C"/>
<path d="M1.4202 443.99L31.9182 462.43L92.2043 499.311L152.49 535.483L182.988 553.214C192.918 558.888 202.847 565.271 213.486 570.236C214.195 566.69 215.613 563.143 215.613 558.888C215.613 562.434 214.195 566.69 213.486 570.236C202.847 565.271 192.917 558.888 182.279 553.214L151.781 535.483L90.7857 500.02L29.7901 465.267L0.711121 448.955L0.711121 443.99L1.4202 443.99Z" fill="#8C8C8C"/>
<path d="M1.42005 114.189L87.9484 60.9956L148.235 24.1146L178.732 5.67417L185.825 2.12793L202.138 2.12793C200.719 2.83718 200.01 3.54643 198.591 4.25568L182.988 12.7667L152.49 30.4979L91.4947 65.9603C61.7062 82.9823 31.918 100.004 2.12956 116.317L2.12956 114.189L1.42005 114.189Z" fill="#8C8C8C"/>
<path d="M31.208 107.097L1.41954 124.828L1.41954 119.863L29.0804 104.26L88.6574 71.6344L207.102 5.67432L89.3665 73.0529L31.208 107.097Z" fill="#8C8C8C"/>
<path d="M1.42116 154.616C2.13041 154.616 2.83974 155.325 2.83974 155.325L34.0469 172.347L95.7515 205.682L157.456 239.726L187.954 256.748L203.557 265.259C209.231 268.096 213.487 270.933 217.033 270.933C221.288 270.933 224.835 268.805 230.509 265.968L246.112 257.457L276.61 240.435L338.314 206.391C378.032 183.695 418.459 163.127 457.468 140.431L453.922 137.594C451.794 136.176 448.957 134.757 446.12 132.629L430.517 123.409L398.601 104.969L335.477 68.0878L271.645 31.9161L239.729 13.4757C234.055 10.6387 229.09 7.09245 223.416 4.25546C217.742 1.41846 211.359 2.12771 205.685 5.67395C210.65 2.12771 217.742 1.41846 223.416 4.25546C229.09 7.09245 234.055 9.92944 239.729 12.7664L271.645 30.4976L335.477 65.9601L400.019 100.713L431.935 118.444L448.248 126.955C451.085 128.374 453.922 129.792 456.759 131.92L463.851 137.594L467.397 139.722L463.851 141.85C453.922 148.942 443.992 154.616 433.354 160.29L402.856 178.021L341.861 213.484L280.865 248.237L250.368 265.968L234.764 274.479C230.509 277.316 223.416 281.572 215.614 280.862C207.813 280.153 201.429 275.898 197.174 273.77L181.57 265.259L151.073 247.528L90.0772 212.774L29.082 177.312L0.00300452 160.29L0.00300402 154.616L1.42116 154.616Z" fill="#8C8C8C"/>
<path d="M242.559 2.12795C243.268 2.8372 243.978 2.8372 244.687 3.54645L276.603 21.9869L340.436 58.8678L404.268 95.0395L436.184 113.48C445.404 118.445 455.334 124.828 464.554 129.083C464.554 127.665 465.263 126.246 465.263 124.119C465.263 121.991 465.263 118.445 465.263 115.608L464.554 97.8765L463.845 62.414L461.717 2.12793L471.646 2.12793L471.646 62.414L471.646 97.8764L471.646 115.608C471.646 118.445 471.646 121.282 471.646 124.828C470.937 128.374 470.228 131.211 469.519 133.339L468.81 137.594L465.263 136.176C453.915 130.502 443.986 124.119 433.347 117.735L402.14 98.5857L339.017 60.2863L275.894 22.6961L244.687 3.54645C243.978 2.8372 243.268 2.8372 242.559 2.12795V2.12795Z" fill="#8C8C8C"/>
<path d="M452.501 153.198L334.766 221.995L275.898 256.039L246.11 273.061L231.216 281.572C226.251 284.409 221.286 290.083 220.577 296.466C219.158 342.567 218.449 387.25 217.031 432.642C216.321 478.034 215.612 522.716 215.612 568.818L215.612 571.655L217.74 573.073L220.577 574.492C220.577 574.492 221.286 575.201 222.705 575.201C223.414 575.201 224.123 575.201 224.832 575.201C225.541 575.201 226.251 575.201 226.251 574.492L226.96 574.492L229.088 573.782L233.343 571.655C236.18 570.236 238.308 568.818 241.145 567.399L256.039 558.179L285.828 540.448L346.114 504.276C386.541 480.162 426.259 455.338 465.977 431.223L467.395 430.514L467.395 429.096L466.686 287.955L467.395 146.815L452.501 153.198ZM452.501 153.198L468.104 145.396L465.977 286.537L462.431 427.677L463.849 424.84C423.422 448.245 382.286 470.941 341.858 495.056L281.572 530.518L251.074 548.249L236.18 557.47C233.343 558.888 231.215 561.016 228.378 561.725L224.832 563.853L222.705 564.562L221.995 564.562C222.705 564.562 222.705 564.562 223.414 563.853C224.123 563.853 224.832 563.853 224.832 563.853C225.541 563.853 225.541 563.853 224.832 563.853L225.542 563.853L224.123 563.144L226.251 567.399C225.542 522.716 226.251 476.615 226.251 431.933C226.251 386.541 225.542 341.149 225.542 296.466C226.251 286.537 239.017 282.281 248.238 275.898L277.317 258.167L335.475 222.704L452.501 153.198Z" fill="#8C8C8C"/>
<path d="M458.173 443.99L340.438 509.95L281.57 542.575L251.782 558.888L236.888 566.69L222.703 575.91L219.156 578.038L222.703 580.166L344.693 651.091L405.689 685.844L436.186 703.575L451.79 712.086C456.755 714.923 462.429 719.178 470.231 719.178C478.741 719.888 485.125 714.923 489.38 712.795L504.984 704.284L535.481 686.553L596.477 651.09L657.472 615.628L687.97 597.897C697.899 591.514 708.538 586.549 718.467 579.456L722.014 577.329L719.177 574.492C709.247 566.69 697.899 561.016 687.26 555.342L654.635 537.611L589.384 502.148L524.842 465.977L492.217 448.245C486.543 445.408 481.578 441.862 475.195 440.444C469.521 439.025 463.847 441.153 458.173 443.99ZM458.173 443.99C463.138 441.153 469.521 439.025 475.904 440.444C482.288 441.862 487.252 445.408 492.217 448.245L524.133 466.686L588.675 503.567L652.507 541.157L684.423 559.597C695.062 565.981 706.41 571.655 714.921 579.456L714.921 574.492C705.701 580.875 695.062 586.549 684.423 592.223L653.217 609.245L591.512 643.289L529.807 678.042L499.31 695.064L483.706 703.575C478.032 706.412 474.486 709.249 470.231 708.54C465.975 708.54 461.719 705.703 456.755 702.866L441.151 694.355L409.944 677.333L348.24 643.289L224.121 575.91L224.121 580.166L238.306 570.945L252.491 562.434L281.57 545.412L339.729 511.369L458.173 443.99Z" fill="#8C8C8C"/>
<path d="M721.303 1176.64C721.303 1170.26 719.885 1163.88 714.92 1159.62C709.955 1155.37 704.281 1153.24 699.316 1149.69L667.4 1130.54L604.277 1092.95L541.154 1054.65L509.947 1035.5C499.308 1029.12 489.379 1022.74 478.031 1017.06L473.776 1014.93L473.776 1019.19C473.066 1024.86 472.357 1031.25 472.357 1036.92L472.357 1054.65L472.357 1090.11L472.357 1160.33L473.066 1230.55L473.066 1266.01L473.066 1283.74C473.066 1289.41 472.357 1296.51 476.612 1303.6C478.74 1307.14 481.577 1309.98 484.414 1311.4L492.216 1316.37L507.819 1324.88L538.317 1342.61L599.312 1378.07L661.017 1412.82L691.515 1430.55C702.153 1436.23 711.374 1442.61 722.722 1447.58L726.268 1448.99L726.268 1445.45C726.977 1434.1 726.268 1422.75 726.268 1411.4L725.559 1378.07L724.14 1310.69L721.303 1176.64ZM721.303 1176.64L722.012 1311.4L722.013 1378.78L722.013 1412.11C722.013 1423.46 722.012 1434.81 721.303 1445.45L724.849 1443.32C714.211 1438.36 704.281 1431.97 694.352 1425.59L663.854 1407.15L603.568 1370.27L543.282 1334.1L512.784 1316.37L497.89 1307.14L490.797 1302.89C488.67 1301.47 487.251 1300.05 486.542 1298.63C484.414 1295.09 484.414 1290.12 484.414 1284.45L484.414 1266.72L483.705 1231.26L482.286 1161.04L480.868 1090.82L480.159 1055.36L479.449 1037.63C479.449 1031.96 480.159 1026.28 480.159 1020.61L475.903 1022.74C486.542 1027.7 497.181 1034.08 507.819 1040.47L539.736 1058.91L603.568 1095.08L667.4 1131.96L699.316 1150.4C704.281 1153.95 709.955 1156.07 714.92 1160.33C719.885 1163.88 721.303 1170.97 721.303 1176.64Z" fill="#8C8C8C"/>
<path d="M475.909 1009.26C486.548 1005.01 497.186 998.622 507.116 992.948L537.614 975.217L598.609 940.464L659.604 905.001L690.102 887.27L705.705 878.759C710.67 875.922 717.053 873.085 720.6 866.702C724.855 860.319 724.146 852.517 724.146 847.552L724.146 829.821L724.855 794.358L725.565 724.143L726.274 653.927L726.983 618.465C726.983 606.408 727.692 595.06 726.274 583.002L725.564 575.201L718.472 578.038C707.124 583.002 697.194 589.386 687.265 595.06L656.767 612.791L596.481 648.962L536.195 685.134L505.698 703.575L490.803 712.795C486.548 715.632 479.455 718.469 475.909 725.561C471.654 732.654 473.072 739.746 473.072 744.711L473.072 762.442L473.072 797.905L473.072 868.12L473.781 938.336L473.781 973.798C474.491 985.146 474.491 997.203 475.909 1009.26ZM475.909 1009.26C475.2 997.203 475.909 985.855 475.909 973.798L476.618 938.336L478.746 868.12L480.165 797.905L480.874 762.442L480.874 744.711C480.874 738.328 480.874 733.363 483.001 729.817C485.129 726.271 490.094 723.434 495.059 720.597L510.662 712.086L541.16 694.354L602.155 658.892L663.151 623.43L693.648 605.698C703.578 600.024 714.216 593.641 724.146 589.386L716.344 584.421C717.763 595.769 717.053 607.117 717.053 619.174L717.053 654.636L717.053 724.852L717.053 795.068L717.053 830.53L717.053 848.261C717.053 854.645 717.763 859.609 714.926 863.156C712.798 866.702 707.833 869.539 702.868 872.376L687.974 881.596L657.477 900.036L597.191 936.917L536.904 973.798L507.116 992.239C496.477 997.913 486.548 1003.59 475.909 1009.26Z" fill="#8C8C8C"/>
<path d="M721.308 556.051L720.598 419.166L720.598 350.369L720.598 316.325C720.598 310.651 720.598 304.977 720.598 299.303C720.598 292.92 717.052 286.536 712.087 282.99L595.061 211.356L536.194 175.894L506.405 158.162C496.476 152.488 486.546 146.105 475.908 141.141L468.815 136.885L468.106 145.396L467.397 163.127L467.397 180.858L468.106 216.321L469.524 286.536L470.943 356.752L471.652 392.214L472.361 409.946C472.361 415.62 473.071 422.712 476.617 428.386C480.163 434.06 485.837 437.606 490.802 440.443L506.405 448.954L536.903 466.686L597.898 501.439L719.889 572.364L721.308 556.051ZM721.308 556.051L719.889 572.364L598.608 500.02L538.321 463.139L508.533 444.699L493.639 435.479C488.674 432.642 483.709 429.805 481.582 424.84C478.745 420.584 478.745 414.91 478.745 409.236L478.745 391.505L478.745 356.043L478.745 285.827L478.745 215.612L478.745 180.149L478.745 162.418L479.454 145.396L471.652 150.361C481.582 154.616 491.511 160.999 501.441 166.673L531.229 183.695L590.806 218.449L709.96 286.536C719.18 292.21 717.052 304.977 717.761 316.325L718.471 350.369L719.889 419.166L721.308 556.051Z" fill="#8C8C8C"/>
<path d="M479.452 2.12795C478.742 43.9736 478.743 85.8193 477.324 127.665L592.931 60.9956L697.191 2.12793L698.609 2.12793L597.187 65.251L475.196 139.722L468.813 143.978L468.813 136.176C468.813 91.4932 468.813 47.5198 469.522 2.8372L479.452 2.8372L479.452 2.12795Z" fill="#8C8C8C"/>
<path d="M713.504 4.96461L595.769 70.9247L536.192 103.55L506.404 119.863C496.474 125.537 486.545 129.792 477.325 136.885L474.487 139.013L477.325 141.14C486.545 148.942 497.183 154.616 507.113 160.29L537.611 178.021L598.606 213.484L659.601 248.237L690.099 265.968L705.702 274.479C710.667 277.316 716.341 281.572 724.852 281.572C729.108 281.572 732.654 280.153 735.491 278.735C738.328 277.316 740.456 275.898 743.293 274.479L758.896 265.968L789.394 248.237L850.389 212.774L911.384 177.312L941.882 159.581C951.812 153.198 962.45 148.233 971.671 140.431L975.217 137.594L971.671 135.466C950.393 123.409 928.406 112.061 907.129 100.004L842.587 65.2507L778.755 29.7883L746.839 12.0571C741.165 9.2201 736.2 5.67386 730.526 3.54611C724.852 1.41837 718.469 1.41837 713.504 4.96461ZM713.504 4.96461C718.469 1.41837 725.561 1.41837 731.235 4.25536C736.909 7.09235 741.874 9.92935 747.548 12.7663L779.464 31.2068L843.297 67.3785L906.42 104.259C927.697 116.317 948.975 128.374 969.543 141.14L969.543 136.176C960.323 143.268 949.684 148.233 939.754 153.907L908.548 170.929L846.843 204.973L785.138 239.726L754.641 256.748L739.037 265.259L731.945 269.514C729.817 270.224 727.689 270.933 726.271 270.933C722.724 270.933 717.76 268.805 712.795 265.259L697.192 256.748L665.984 239.726L604.28 205.682L542.575 171.638L511.368 154.616C500.73 148.942 490.091 143.977 481.58 136.885L481.58 141.14C490.091 134.048 500.73 129.083 509.95 123.409L539.029 106.387L597.187 72.3432L713.504 4.96461Z" fill="#8C8C8C"/>
<path d="M746.126 2.12795C746.835 2.8372 748.253 3.54645 748.963 4.2557L780.879 22.6962L844.711 59.5771L908.544 95.7487L940.46 114.189C950.389 119.863 959.61 125.537 969.539 129.793C970.248 128.374 970.248 126.246 970.248 125.537L970.248 117.026L969.539 99.295L968.83 63.8325L967.411 2.12793L977.341 2.12793L977.341 63.8325L977.341 99.295L977.341 117.026L977.341 126.246C976.632 129.793 975.213 132.63 975.213 135.467L974.504 139.013L970.957 137.594C959.609 131.92 949.68 125.537 939.041 119.154L907.834 100.004L844.711 61.7048L780.879 23.4054L749.672 4.25569C748.254 3.54645 747.544 2.8372 746.126 2.12795V2.12795Z" fill="#8C8C8C"/>
<path d="M963.158 150.361L844.004 219.867L783.718 254.62L753.93 271.642L739.035 280.153C736.907 281.572 734.07 282.99 731.233 285.827C729.106 287.955 726.978 291.501 726.978 295.047C725.559 341.858 724.85 387.25 723.432 434.06L722.722 503.566L722.013 538.32L722.013 555.342L722.013 563.852C722.013 566.689 722.722 570.236 723.432 573.073L724.141 580.874L731.233 577.328C736.198 574.491 741.872 572.363 746.837 568.817L761.731 559.597L792.229 541.866L852.515 505.694L912.801 468.813L942.589 450.373L957.484 441.153C962.448 438.316 968.122 435.479 971.669 429.095C975.215 422.712 974.506 415.62 974.506 410.655L974.506 392.924L974.506 357.461L973.797 287.246C973.797 240.435 974.506 193.625 973.796 146.814C970.25 147.524 966.704 148.233 963.158 150.361ZM963.158 150.361C966.704 148.233 970.25 148.233 973.796 146.814C974.506 193.625 973.087 240.435 972.378 287.246L970.959 357.461L970.25 392.924L969.541 410.655C969.541 417.038 969.541 422.003 966.704 426.258C963.867 430.514 958.902 432.642 953.937 436.188L938.334 444.699L907.836 462.43L846.841 497.183L785.846 532.646L755.348 550.377L740.454 559.597L724.85 567.399L732.652 571.654C732.652 568.817 731.943 566.689 731.233 563.852L731.233 555.342L731.233 538.32L731.233 503.566L731.233 434.06L730.524 296.466C731.233 291.501 734.78 287.955 739.745 285.118L754.639 275.898L784.427 258.166L843.295 221.995L963.158 150.361Z" fill="#8C8C8C"/>
<path d="M1227.71 553.923L1227 417.038L1227 348.95L1227 314.906C1227 309.232 1227.71 303.558 1226.29 297.175C1225.58 290.792 1222.03 285.118 1217.07 280.863C1178.06 256.039 1139.05 233.343 1100.04 209.228L982.308 139.013L974.506 134.048L973.797 143.268C973.088 148.942 973.088 155.326 972.379 161L972.379 178.731L973.088 214.193L974.506 285.118L975.925 356.043L976.634 391.505L977.343 409.237C977.343 414.911 977.343 422.003 980.89 427.677C984.436 434.06 990.819 436.897 995.784 439.734L1011.39 448.245L1041.88 465.976L1103.59 500.73L1164.58 536.192L1195.08 553.923C1205.01 559.597 1214.94 565.98 1226.29 570.945L1227.71 553.923ZM1227.71 553.923L1227 570.945C1216.36 565.98 1206.43 559.597 1196.5 553.923L1166 536.192L1105.01 500.02L1044.72 463.139L1014.22 444.699L999.33 435.479C994.365 432.642 989.401 429.805 987.273 425.549C985.145 421.294 985.145 415.62 985.145 409.946L985.145 392.215L985.145 356.752L985.145 285.827L985.145 214.902L985.145 179.44L985.145 161.709C985.145 156.035 985.854 150.361 985.854 144.687L977.343 148.942L1095.79 217.739C1135.51 240.435 1175.22 262.422 1214.23 285.118C1218.49 287.955 1221.32 292.21 1222.03 297.884C1222.74 302.849 1222.74 309.232 1222.74 314.197L1223.45 348.241L1224.87 416.329L1227.71 553.923Z" fill="#8C8C8C"/>
<path d="M985.148 2.12795C984.438 43.2644 984.438 84.4008 983.02 125.537L984.439 124.828C987.276 123.409 989.403 121.991 992.24 121.282L1007.84 112.771L1039.05 95.7487L1100.76 60.9956L1162.46 26.2424C1175.94 18.4406 1189.41 10.6389 1202.89 2.12793L1205.01 2.12793C1191.54 11.3482 1178.06 19.8591 1163.88 28.3701L1103.59 65.9603L1042.6 102.132L1012.1 119.863L996.496 128.374C993.659 129.793 991.531 131.211 988.694 132.63L984.439 134.757L979.474 136.885L974.509 139.013L974.509 132.63C974.509 89.3655 974.509 46.1013 975.218 2.8372L985.148 2.8372L985.148 2.12795Z" fill="#8C8C8C"/>
<path d="M1214.94 7.80188L1097.92 73.0527L1039.05 104.969C1019.9 115.608 999.332 125.537 980.891 137.594L977.345 139.722L980.891 141.85C985.856 145.396 990.82 148.942 995.785 151.779L1011.39 161L1041.89 178.731L1102.88 214.193L1164.59 248.946L1195.08 266.678L1210.69 275.189C1215.65 278.026 1222.04 282.281 1229.84 282.281C1238.35 282.281 1244.02 278.026 1248.99 275.189L1264.59 266.678L1295.09 248.946L1356.08 213.484L1417.08 178.021L1447.58 160.29C1457.51 154.616 1468.14 148.942 1477.36 141.141L1480.91 138.304L1476.66 136.176L1346.15 65.251L1280.9 29.0793L1248.28 11.3481C1242.6 8.51113 1237.64 4.96489 1231.26 3.54639C1226.29 2.12789 1220.62 4.25564 1214.94 7.80188ZM1214.94 7.80188C1219.91 4.96489 1226.29 2.83714 1232.67 3.54639C1239.06 4.25564 1244.02 8.51113 1249.7 11.3481L1281.61 29.7886L1346.15 66.6695L1474.53 141.85L1474.53 136.885C1465.31 143.978 1454.67 148.942 1444.74 154.616L1413.53 171.638L1351.83 205.682L1290.12 240.435L1258.92 257.457L1243.31 265.968C1237.64 268.805 1234.09 271.642 1229.84 271.642C1225.58 271.642 1221.33 269.515 1216.36 266.678L1200.76 258.167L1169.55 241.145L1107.85 207.101L1045.43 173.057L1014.23 156.035L998.622 147.524C993.658 144.687 988.693 141.141 983.728 138.304L983.728 142.559C1002.17 130.502 1022.03 119.863 1041.18 107.806L1098.63 74.4712L1214.94 7.80188Z" fill="#8C8C8C"/>
<path d="M1253.24 2.12795C1253.95 2.8372 1254.66 2.8372 1255.37 3.54645L1287.29 21.9869L1351.12 58.8678L1414.95 95.0395L1446.87 113.48C1456.09 118.445 1466.02 124.119 1475.24 129.083L1475.95 124.828C1476.66 121.991 1475.95 119.863 1475.95 116.317L1475.24 98.5857L1474.53 63.1233L1473.11 2.12793L1483.04 2.12793L1483.04 63.1233L1483.04 98.5857L1483.04 116.317C1483.04 119.154 1483.04 122.7 1482.33 125.537L1480.91 134.048L1480.2 138.304L1476.66 136.176C1465.31 130.502 1455.38 124.119 1444.74 117.735L1413.53 98.5857L1350.41 60.2863L1287.29 22.6962L1255.37 3.54645C1254.66 2.8372 1253.24 2.12795 1252.53 2.12795L1253.24 2.12795V2.12795Z" fill="#8C8C8C"/>
<path d="M1235.51 288.664C1232.67 380.867 1230.54 474.487 1228.42 568.817L1228.42 575.201L1233.38 573.073L1238.35 570.945L1242.6 568.817C1245.44 567.399 1248.28 565.98 1250.4 564.562L1266.01 556.051C1276.65 550.377 1286.57 544.703 1297.21 539.029L1358.92 504.276L1419.91 468.104C1440.48 456.047 1460.34 443.99 1480.2 430.514L1482.33 429.095L1482.33 426.258L1483.04 285.118C1483.04 238.308 1483.75 190.788 1483.75 143.978L1483.75 136.176L1477.36 140.431L1355.37 214.193L1235.51 288.664ZM1235.51 288.664L1359.63 218.449L1482.33 147.524L1475.94 143.978C1474.53 190.788 1474.53 238.308 1473.82 285.118L1472.4 426.258L1474.53 422.003C1455.38 434.769 1435.52 447.536 1414.95 459.593L1353.95 495.765L1292.96 531.227L1262.46 548.249L1246.86 556.76C1244.02 558.179 1241.89 559.597 1239.06 561.016L1235.51 563.143L1232.67 564.562L1237.64 568.817C1236.93 475.906 1236.22 382.994 1235.51 288.664Z" fill="#8C8C8C"/>
<path d="M1490.84 2.1404C1490.13 43.9861 1490.13 85.8317 1488.71 127.677L1604.32 61.008L1708.58 2.14038L1710 2.14038L1608.58 64.5543L1486.58 139.025L1480.2 143.281L1480.2 135.479C1480.2 90.7964 1480.2 46.8231 1480.91 2.1404L1490.84 2.1404Z" fill="#8C8C8C"/>
<path d="M484.417 1586.59L602.861 1520.63L662.438 1488L692.226 1471.69C702.156 1466.02 712.085 1461.05 721.306 1454.67L724.143 1452.54L721.306 1450.41C716.341 1446.87 711.376 1443.32 706.411 1440.48L690.808 1431.26L660.31 1413.53L599.315 1378.07L537.61 1343.32L507.113 1325.59L491.509 1317.07C486.544 1314.24 480.87 1309.98 472.359 1309.98C468.104 1309.98 464.558 1311.4 461.721 1312.82C458.174 1314.24 456.047 1315.66 453.919 1317.07L438.316 1325.59L407.818 1343.32L346.822 1378.78L285.827 1414.24L255.33 1431.97C245.4 1437.65 234.761 1443.32 225.541 1451.12L221.995 1453.96L226.25 1456.09L355.333 1526.3L419.875 1561.76L451.791 1579.5C457.465 1582.33 462.43 1585.88 468.104 1588.01C472.359 1590.84 479.452 1589.43 484.417 1586.59ZM484.417 1586.59C479.452 1590.13 472.36 1590.84 466.686 1588.01C461.012 1585.17 456.047 1582.33 450.373 1579.5L418.457 1561.06L354.624 1524.88L290.792 1488L227.669 1451.12L227.669 1456.09C236.889 1449.7 247.528 1444.03 258.166 1438.36L289.373 1421.33L351.078 1387.29L412.783 1352.54L443.28 1335.51L458.884 1327L465.976 1322.75C468.104 1322.04 470.232 1321.33 471.65 1321.33C475.196 1321.33 480.161 1323.46 485.126 1327L500.729 1335.51L531.936 1352.54L593.641 1386.58L656.055 1419.92L687.262 1436.94L702.865 1445.45C707.83 1448.29 712.795 1451.83 717.759 1454.67L717.759 1450.41C709.248 1457.51 699.319 1462.47 689.389 1468.14L660.31 1485.17L602.152 1519.21L484.417 1586.59Z" fill="#8C8C8C"/>
<path d="M1.42051 1867.45L100.006 1808.58L158.874 1772.41L187.953 1754.68L202.847 1745.46C207.812 1742.62 212.068 1739.79 212.777 1734.82C213.486 1730.57 212.777 1723.47 212.777 1718.51L212.777 1701.49L212.777 1666.73L212.067 1597.94L212.067 1529.14L212.067 1494.39L212.067 1477.36C212.067 1474.53 212.067 1471.69 212.067 1468.14L211.358 1468.85L203.556 1472.4L187.953 1480.91L156.746 1497.93L95.0414 1532.69L34.0462 1568.15C22.6982 1574.53 11.3503 1581.62 0.00233118 1588.01L0.00233043 1579.5C9.9318 1573.11 19.8609 1566.73 29.7904 1561.06C49.6494 1548.29 69.5083 1536.23 90.0765 1524.18L151.072 1488.71L182.279 1470.98L197.882 1462.47C200.719 1461.05 202.847 1459.63 205.684 1458.22L209.94 1456.09C212.067 1455.38 213.486 1454.67 215.614 1453.96L220.578 1452.54L221.997 1458.92C223.415 1466.02 221.997 1470.98 222.706 1476.66L222.706 1493.68L221.997 1528.43L221.287 1597.23L219.869 1666.03L219.16 1700.78L218.451 1717.8C217.742 1723.47 218.451 1728.44 217.741 1735.53C216.323 1742.62 209.94 1746.88 204.975 1749.01L190.081 1757.52L160.292 1774.54L100.715 1808.58L1.42051 1867.45Z" fill="#8C8C8C"/>
<path d="M1.41799 1573.11L98.5851 1517.08L155.325 1483.75L208.519 1451.83C204.972 1448.99 201.426 1446.16 197.171 1444.03L181.567 1435.52L150.36 1418.5L87.9464 1384.45L26.2417 1350.41L-0.000182051 1336.22L-0.000183105 1324.17L0.708893 1324.17L31.2065 1341.9L92.9112 1377.36L153.906 1412.82L184.404 1430.55L200.008 1439.77C204.972 1442.61 209.937 1446.87 214.902 1450.41L218.448 1452.54L214.902 1454.67L99.2946 1518.5L1.41799 1573.11Z" fill="#8C8C8C"/>
</g>
</svg>
