<svg width="196" height="182" viewBox="0 0 196 182" fill="none" xmlns="http://www.w3.org/2000/svg">
<path d="M155.831 133.492C155.119 132.834 154.132 132.455 153.125 132.455C152.118 132.455 151.131 132.834 150.419 133.492C149.706 134.151 149.297 135.064 149.297 135.996C149.297 136.927 149.706 137.841 150.419 138.499C151.131 139.161 152.118 139.537 153.125 139.537C154.132 139.537 155.119 139.161 155.831 138.499C156.544 137.841 156.953 136.927 156.953 135.996C156.953 135.064 156.544 134.151 155.831 133.492Z" fill="#6D6D6D"/>
<path d="M180.688 0H15.3125C6.86919 0 0 6.35366 0 14.1633V125.375C0 133.184 6.86919 139.538 15.3125 139.538H75.4141V157.312C64.1854 158.324 55.3803 167.102 55.3803 177.749C55.3803 179.705 57.0942 181.29 59.2085 181.29H136.792C138.906 181.29 140.62 179.705 140.62 177.749C140.62 166.861 131.411 157.93 119.821 157.258V139.538H137.685C139.8 139.538 141.514 137.953 141.514 135.997C141.514 134.042 139.8 132.456 137.685 132.456H15.3125C11.0908 132.456 7.65625 129.279 7.65625 125.375V14.1633C7.65625 10.2585 11.0908 7.08165 15.3125 7.08165H180.688C184.909 7.08165 188.344 10.2585 188.344 14.1633V125.375C188.344 129.279 184.909 132.456 180.688 132.456H166.396C164.282 132.456 162.568 134.042 162.568 135.997C162.568 137.953 164.282 139.538 166.396 139.538H180.688C189.131 139.538 196 133.184 196 125.375V14.1633C196 6.35331 189.131 0 180.688 0ZM83.0703 139.538H112.164V157.213H83.0703V139.538ZM118.417 164.294C125.113 164.294 130.768 168.502 132.453 174.209H63.5473C65.2316 168.502 70.8862 164.294 77.5831 164.294H118.417Z" fill="#6D6D6D"/>
<path d="M100.324 122.162C99.6116 121.504 98.624 121.125 97.6172 121.125C96.6104 121.125 95.6227 121.504 94.9107 122.162C94.1987 122.821 93.7891 123.734 93.7891 124.665C93.7891 125.6 94.1987 126.51 94.9107 127.169C95.6227 127.831 96.6104 128.206 97.6172 128.206C98.624 128.206 99.6116 127.831 100.324 127.169C101.036 126.51 101.445 125.6 101.445 124.665C101.445 123.734 101.036 122.821 100.324 122.162Z" fill="#6D6D6D"/>
<path d="M55.9655 64.908L74.7218 47.5597C76.217 46.177 76.217 43.935 74.7222 42.5523C73.2273 41.1696 70.8033 41.1696 69.308 42.5523L47.8453 62.4043C46.3504 63.787 46.3504 66.029 47.8453 67.4121L69.308 87.2641C70.0557 87.9556 71.0353 88.3012 72.0149 88.3012C72.9945 88.3012 73.9745 87.9556 74.7218 87.2641C76.2167 85.8814 76.2167 83.6393 74.7218 82.2563L55.9655 64.908Z" fill="#6D6D6D"/>
<path d="M148.154 62.4043L126.692 42.5523C125.197 41.1696 122.773 41.1696 121.277 42.5523C119.783 43.935 119.783 46.177 121.277 47.5601L140.034 64.9084L121.277 82.2566C119.783 83.6393 119.783 85.8814 121.278 87.2641C122.025 87.9556 123.005 88.3012 123.985 88.3012C124.964 88.3012 125.944 87.9556 126.692 87.2641L148.154 67.4121C149.649 66.029 149.649 63.7873 148.154 62.4043Z" fill="#6D6D6D"/>
<path d="M104.721 43.0313C102.679 42.5243 100.58 43.6464 100.032 45.535L88.5718 85.0971C88.0247 86.9861 89.2367 88.9275 91.2786 89.4339C91.6105 89.516 91.9439 89.5553 92.272 89.5553C93.9621 89.5553 95.5091 88.5118 95.9673 86.9301L107.428 47.3681C107.975 45.4787 106.763 43.5377 104.721 43.0313Z" fill="#6D6D6D"/>
<path d="M176.859 14.1927H115.992C113.878 14.1927 112.164 15.7779 112.164 17.7335C112.164 19.6891 113.878 21.2744 115.992 21.2744H173.031V109.795H22.9688V21.2744H81.7305C83.8447 21.2744 85.5586 19.6891 85.5586 17.7335C85.5586 15.7779 83.8447 14.1927 81.7305 14.1927H19.1406C17.0264 14.1927 15.3125 15.7779 15.3125 17.7335V113.336C15.3125 115.291 17.0264 116.877 19.1406 116.877H176.859C178.974 116.877 180.688 115.291 180.688 113.336V17.7335C180.688 15.7779 178.974 14.1927 176.859 14.1927Z" fill="#6D6D6D"/>
</svg>
