<svg width="196" height="182" viewBox="0 0 196 182" fill="none" xmlns="http://www.w3.org/2000/svg">
<path d="M182.097 0H13.9033C6.23713 0 0 6.23713 0 13.9033V127.979C0 135.645 6.23713 141.882 13.9033 141.882H77.312V150.219C77.312 153.717 75.6288 157.012 72.9181 158.82L65.7423 163.607H60.0373C56.3435 163.607 53.3385 166.612 53.3385 170.306V174.592C53.3385 178.286 56.3435 181.291 60.0373 181.291H135.963C139.656 181.291 142.662 178.286 142.662 174.592V170.306C142.662 166.612 139.656 163.607 135.963 163.607H130.258L123.082 158.82C120.372 157.012 118.688 153.717 118.688 150.219V141.882H182.096C189.763 141.882 196 135.645 196 127.979V13.9033C196 6.23713 189.763 0 182.097 0V0ZM135.963 169.35C136.49 169.35 136.919 169.779 136.919 170.306V174.592C136.919 175.12 136.49 175.549 135.963 175.549H60.0377C59.5102 175.549 59.081 175.12 59.081 174.592V170.306C59.081 169.779 59.5102 169.35 60.0377 169.35H135.963ZM119.895 163.597L119.91 163.607H76.0904L76.105 163.597C80.4564 160.695 83.0541 155.694 83.0541 150.219V141.883H112.946V150.219C112.946 155.694 115.544 160.695 119.895 163.597ZM190.258 127.979C190.258 132.479 186.597 136.14 182.097 136.14C177.538 136.14 18.2865 136.14 13.9037 136.14C9.40335 136.14 5.74254 132.479 5.74254 127.979V13.9033C5.74254 9.40297 9.40335 5.74215 13.9037 5.74215H182.097C186.597 5.74215 190.258 9.40297 190.258 13.9033V127.979Z" fill="#4A4A4A" fill-opacity="0.8"/>
<path d="M179.599 11.9417C172.848 11.9417 23.1671 11.9417 16.4006 11.9417C13.9422 11.9417 11.9424 13.9419 11.9424 16.3999V125.481C11.9424 127.94 13.9426 129.94 16.4006 129.94H179.599C182.058 129.94 184.058 127.939 184.058 125.481V77.64C184.058 76.054 182.773 74.7689 181.187 74.7689C179.601 74.7689 178.316 76.054 178.316 77.64V124.198H17.6842V31.8819H178.316V64.2416C178.316 65.8276 179.601 67.1127 181.187 67.1127C182.773 67.1127 184.058 65.8276 184.058 64.2416C184.058 62.1698 184.058 18.7167 184.058 16.3999C184.058 13.9419 182.058 11.9417 179.599 11.9417V11.9417ZM29.1815 26.1397H17.6842V17.6838H29.1815V26.1397ZM178.316 26.1397H34.9236V17.6838H178.316V26.1397H178.316Z" fill="#4A4A4A" fill-opacity="0.8"/>
<path d="M60.6613 38.9477C57.4341 35.7206 52.2114 35.7199 48.9839 38.9474L46.0129 41.9184L45.9934 41.8988C42.7659 38.6713 37.5432 38.671 34.3157 41.8985C31.0966 45.1175 31.0966 50.3563 34.3157 53.5762L40.1739 59.434C43.4002 62.6611 48.6245 62.6619 51.8512 59.4344L60.6613 50.6247C63.8803 47.4052 63.8803 42.1664 60.6613 38.9477V38.9477ZM56.6011 46.5646L47.7911 55.3743C46.808 56.3573 45.217 56.3566 44.2347 55.3743C44.2347 55.3743 44.2347 55.3743 44.2347 55.3739L38.3766 49.5161C37.3958 48.5353 37.3958 46.9397 38.3766 45.9593C39.3581 44.9767 40.9502 44.9751 41.9333 45.9593L43.9829 48.0089C45.1045 49.1298 46.9221 49.1298 48.0426 48.0089L53.0437 43.0082C54.0263 42.0256 55.6177 42.0252 56.6 43.0086C57.5811 43.9882 57.5811 45.5838 56.6011 46.5646V46.5646Z" fill="#4A4A4A" fill-opacity="0.8"/>
<path d="M163.032 47.1026C163.032 43.5467 160.138 40.6534 156.582 40.6534H123.678C122.092 40.6534 120.807 41.9385 120.807 43.5245C120.807 45.1105 122.092 46.3956 123.678 46.3956H156.582C156.973 46.3956 157.29 46.7126 157.29 47.1026V51.278C157.29 51.6677 156.973 51.9846 156.582 51.9846H77.376C76.9859 51.9846 76.6689 51.6677 76.6689 51.278V47.1026C76.6689 46.7126 76.9859 46.3956 77.376 46.3956H110.28C111.866 46.3956 113.151 45.1105 113.151 43.5245C113.151 41.9385 111.866 40.6534 110.28 40.6534H77.376C73.82 40.6534 70.9268 43.5467 70.9268 47.1026V51.278C70.9268 54.8339 73.82 57.7268 77.376 57.7268H156.582C160.138 57.7268 163.032 54.8339 163.032 51.278V47.1026Z" fill="#4A4A4A" fill-opacity="0.8"/>
<path d="M40.029 95.7924L54.2949 82.5974C55.4322 81.5457 55.4322 79.8404 54.2952 78.7888C53.1582 77.7371 51.3145 77.7371 50.1772 78.7888L33.8528 93.8881C32.7157 94.9398 32.7157 96.6451 33.8528 97.697L50.1772 112.796C50.7459 113.322 51.491 113.585 52.2361 113.585C52.9812 113.585 53.7265 113.322 54.2949 112.796C55.4319 111.745 55.4319 110.039 54.2949 108.987L40.029 95.7924Z" fill="#6D6D6D"/>
<path d="M110.147 93.8881L93.8228 78.7888C92.6858 77.7371 90.8421 77.7371 89.7048 78.7888C88.5678 79.8404 88.5678 81.5457 89.7048 82.5977L103.971 95.7927L89.7048 108.988C88.5681 110.039 88.5681 111.745 89.7051 112.796C90.2737 113.322 91.0188 113.585 91.7639 113.585C92.509 113.585 93.2544 113.322 93.8228 112.796L110.147 97.697C111.284 96.6451 111.284 94.94 110.147 93.8881Z" fill="#6D6D6D"/>
<path d="M77.112 79.1531C75.5589 78.7675 73.9622 79.6209 73.5458 81.0574L64.8289 111.148C64.4128 112.585 65.3346 114.062 66.8877 114.447C67.1402 114.509 67.3938 114.539 67.6433 114.539C68.9288 114.539 70.1054 113.745 70.4539 112.542L79.1708 82.4517C79.5872 81.0146 78.6654 79.5382 77.112 79.1531Z" fill="#6D6D6D"/>
</svg>
